<svg width="80" height="92" viewBox="0 0 80 92" fill="none" xmlns="http://www.w3.org/2000/svg">
<g clip-path="url(#clip0_1637_140606)">
<path d="M39.7182 44.0692C51.8876 44.0692 61.7528 34.204 61.7528 22.0346C61.7528 9.86523 51.8876 0 39.7182 0C27.5488 0 17.6836 9.86523 17.6836 22.0346C17.6836 34.204 27.5488 44.0692 39.7182 44.0692Z" fill="#FFB300"/>
<path d="M36.3901 16.6493C33.6011 21.4797 30.8122 26.3102 28.0233 31.1406C22.6046 40.5247 17.1859 49.9088 11.7672 59.2929C8.14785 65.5628 4.52848 71.8326 0.909099 78.1025C0.410829 78.9607 -0.0389978 79.805 0.00944512 80.85C0.106331 83.016 1.91948 84.5247 4.01637 84.5385C6.11325 84.5524 8.21014 84.5385 10.307 84.5385H39.3797C49.1928 84.5385 59.0129 84.5385 68.826 84.5385C70.9991 84.5385 73.179 84.5524 75.352 84.5385C77.2828 84.5247 79.0198 83.3621 79.3797 81.369C79.5873 80.1994 79.1721 79.2029 78.6115 78.2271C75.0475 72.0541 71.4835 65.8811 67.9195 59.7012C62.5215 50.3517 57.1236 41.0022 51.7257 31.6458C48.8399 26.6493 46.0856 21.5628 43.0683 16.6493C41.525 14.1372 37.9541 14.1302 36.4039 16.6423C36.1132 17.1199 36.8607 17.5489 37.1513 17.0783C38.4662 14.9538 41.2482 15.2583 42.4385 17.2859C42.7984 17.9019 43.1513 18.5247 43.5112 19.1406L48.4177 27.6389C53.5665 36.5593 58.7153 45.4728 63.8641 54.3932C68.1063 61.7427 72.3555 69.0991 76.5977 76.4486C77.6634 78.2963 79.6565 80.7185 77.7672 82.7392C76.4662 84.1302 73.6703 83.6666 71.9472 83.6666H5.91256C5.26896 83.6666 4.62536 83.6666 3.97484 83.6666C1.6219 83.6389 0.154774 81.2859 1.27588 79.1821C2.06481 77.7012 2.95754 76.2686 3.79491 74.8153C5.76723 71.4036 7.73263 67.9918 9.70495 64.5801C14.9921 55.4243 20.2724 46.2756 25.5596 37.1199C29.2274 30.76 32.9022 24.4071 36.57 18.0472C36.7568 17.7219 36.9437 17.4036 37.1306 17.0783C37.4074 16.5939 36.66 16.1579 36.3831 16.6423L36.3901 16.6493Z" fill="url(#paint0_radial_1637_140606)"/>
<path d="M39.7165 76.0365C41.8683 76.0365 43.6127 74.2921 43.6127 72.1403C43.6127 69.9885 41.8683 68.2441 39.7165 68.2441C37.5647 68.2441 35.8203 69.9885 35.8203 72.1403C35.8203 74.2921 37.5647 76.0365 39.7165 76.0365Z" fill="url(#paint1_radial_1637_140606)"/>
<path d="M33.6267 92.0033C34.6739 92.0033 35.5229 91.1544 35.5229 90.1071C35.5229 89.0599 34.6739 88.2109 33.6267 88.2109C32.5794 88.2109 31.7305 89.0599 31.7305 90.1071C31.7305 91.1544 32.5794 92.0033 33.6267 92.0033Z" fill="url(#paint2_radial_1637_140606)"/>
<path d="M45.8083 92.0033C46.8555 92.0033 47.7045 91.1544 47.7045 90.1071C47.7045 89.0599 46.8555 88.2109 45.8083 88.2109C44.7611 88.2109 43.9121 89.0599 43.9121 90.1071C43.9121 91.1544 44.7611 92.0033 45.8083 92.0033Z" fill="url(#paint3_radial_1637_140606)"/>
<path d="M39.7183 65.5643C38.0228 65.5643 36.8187 64.1872 36.7633 62.5609C36.7495 62.1456 36.7633 61.7235 36.7633 61.3083V41.1768C36.7633 39.5712 36.5557 37.8134 38.1612 36.81C40.0713 35.6197 42.5419 36.9899 42.6664 39.1975C42.6872 39.5159 42.6664 39.8342 42.6664 40.1526V60.7477C42.6664 61.3221 42.6664 61.8965 42.6664 62.4709C42.6457 64.1664 41.4484 65.4951 39.7114 65.5574C39.1578 65.5782 39.1508 66.4432 39.7114 66.4224C41.5176 66.3602 43.1301 65.1422 43.4623 63.3152C43.5522 62.8238 43.5315 62.3325 43.5315 61.8342V40.4916C43.5315 40.1041 43.5453 39.7096 43.5315 39.3221C43.483 37.6681 42.4726 36.201 40.874 35.682C39.2754 35.1629 37.3654 35.8481 36.4519 37.3221C36.0021 38.0557 35.8913 38.8654 35.8913 39.7027V60.893C35.8913 62.6716 35.8083 64.464 37.4415 65.6681C38.0989 66.1525 38.8948 66.4224 39.7114 66.4224C40.265 66.4224 40.272 65.5574 39.7114 65.5574L39.7183 65.5643Z" fill="url(#paint4_radial_1637_140606)"/>
</g>
<defs>
<radialGradient id="paint0_radial_1637_140606" cx="0" cy="0" r="1" gradientUnits="userSpaceOnUse" gradientTransform="translate(39.7119 49.6596) scale(37.0381 37.0381)">
<stop stop-color="#0F5BAD"/>
<stop offset="0.28" stop-color="#0B5097"/>
<stop offset="0.84" stop-color="#023560"/>
<stop offset="1" stop-color="#002D4F"/>
</radialGradient>
<radialGradient id="paint1_radial_1637_140606" cx="0" cy="0" r="1" gradientUnits="userSpaceOnUse" gradientTransform="translate(39.7198 72.1412) rotate(143.72) scale(3.89619)">
<stop stop-color="#0F5BAD"/>
<stop offset="0.28" stop-color="#0B5097"/>
<stop offset="0.84" stop-color="#023560"/>
<stop offset="1" stop-color="#002D4F"/>
</radialGradient>
<radialGradient id="paint2_radial_1637_140606" cx="0" cy="0" r="1" gradientUnits="userSpaceOnUse" gradientTransform="translate(33.6273 90.1098) rotate(143.72) scale(1.89619)">
<stop stop-color="#0F5BAD"/>
<stop offset="0.28" stop-color="#0B5097"/>
<stop offset="0.84" stop-color="#023560"/>
<stop offset="1" stop-color="#002D4F"/>
</radialGradient>
<radialGradient id="paint3_radial_1637_140606" cx="0" cy="0" r="1" gradientUnits="userSpaceOnUse" gradientTransform="translate(45.8124 90.1121) rotate(143.72) scale(1.89619)">
<stop stop-color="#0F5BAD"/>
<stop offset="0.28" stop-color="#0B5097"/>
<stop offset="0.84" stop-color="#023560"/>
<stop offset="1" stop-color="#002D4F"/>
</radialGradient>
<radialGradient id="paint4_radial_1637_140606" cx="0" cy="0" r="1" gradientUnits="userSpaceOnUse" gradientTransform="translate(39.7183 50.9692) scale(10.9619 10.9619)">
<stop stop-color="#0F5BAD"/>
<stop offset="0.28" stop-color="#0B5097"/>
<stop offset="0.84" stop-color="#023560"/>
<stop offset="1" stop-color="#002D4F"/>
</radialGradient>
<clipPath id="clip0_1637_140606">
<rect width="79.4256" height="92" fill="white"/>
</clipPath>
</defs>
</svg>
