<?xml version="1.0" encoding="UTF-8"?>
<svg width="40px" height="28px" viewBox="0 0 40 28" version="1.1" xmlns="http://www.w3.org/2000/svg" xmlns:xlink="http://www.w3.org/1999/xlink">
    <title>white/American Express </title>
    <g id="BF_payment" stroke="none" stroke-width="1" fill="none" fill-rule="evenodd">
        <g id="bf_Payment-Prepaid-Copy-7" transform="translate(-760.000000, -296.000000)">
            <g id="American-Express-" transform="translate(760.000000, 296.000000)">
                <path d="M0,2.99649048 C0,1.34157448 1.34230941,0 3.0065012,0 L36.9934988,0 C38.6539436,0 40,1.3504982 40,2.99649048 L40,25.0035095 C40,26.6584255 38.6576906,28 36.9934988,28 L3.0065012,28 C1.34605644,28 0,26.6495018 0,25.0035095 L0,2.99649048 Z" id="Rectangle-Copy-4" fill="#016FD0"></path>
                <g id="American_Express_logo_(2018)" transform="translate(0.000000, 6.695652)">
                    <path d="M7.77006587,14.4810301 L7.77006587,8.23516861 L14.3896375,8.23516861 L15.0998459,9.16012278 L15.8335389,8.23516861 L39.8609501,8.23516861 L39.8609501,14.0502829 C39.8609501,14.0502829 39.2325908,14.4747846 38.5058643,14.4810301 L25.2013908,14.4810301 L24.4006587,13.4964606 L24.4006587,14.4810301 L21.7767206,14.4810301 L21.7767206,12.8003401 C21.7767206,12.8003401 21.4182866,13.0349447 20.6433768,13.0349447 L19.7502523,13.0349447 L19.7502523,14.4810301 L15.7773884,14.4810301 L15.0681948,13.5362387 L14.3481122,14.4810301 L7.77006587,14.4810301 Z" id="path3082" fill="#FFFFFF"></path>
                    <path d="M0.0399201597,3.52769889 L1.53265968,0.0509409963 L4.11419681,0.0509409963 L4.96134371,1.99847993 L4.96134371,0.0509409963 L8.17043234,0.0509409963 L8.67473932,1.4585644 L9.1636479,0.0509409963 L23.5691289,0.0509409963 L23.5691289,0.758599295 C23.5691289,0.758599295 24.3264124,0.0509409963 25.5709597,0.0509409963 L30.2450112,0.0672606203 L31.0775337,1.98931111 L31.0775337,0.0509409963 L33.7630663,0.0509409963 L34.502204,1.15500424 L34.502204,0.0509409963 L37.2123745,0.0509409963 L37.2123745,6.29679849 L34.502204,6.29679849 L33.7938639,5.18915785 L33.7938639,6.29679849 L29.8482212,6.29679849 L29.4514311,5.31222904 L28.3907094,5.31222904 L28.0003776,6.29679849 L25.3245804,6.29679849 C24.2536866,6.29679849 23.5691289,5.60358936 23.5691289,5.60358936 L23.5691289,6.29679849 L19.5346707,6.29679849 L18.7339381,5.31222904 L18.7339381,6.29679849 L3.73175768,6.29679849 L3.33524112,5.31222904 L2.2779018,5.31222904 L1.88418762,6.29679849 L0.0399201597,6.29679849 L0.0399201597,3.52769889 Z" id="path3080" fill="#FFFFFF"></path>
                    <path d="M2.0609992,0.820922551 L0.047619521,5.49762347 L1.35843357,5.49762347 L1.72992715,4.56113549 L3.88959441,4.56113549 L4.25916327,5.49762347 L5.5988499,5.49762347 L3.58739481,0.820922551 L2.0609992,0.820922551 Z M2.80591098,1.90933219 L3.46420559,3.54579724 L2.14569182,3.54579724 L2.80591098,1.90933219 L2.80591098,1.90933219 Z" id="path3046" fill="#016FD0" fill-rule="nonzero"></path>
                    <polygon id="path3048" fill="#016FD0" points="5.73743792 5.4968378 5.73743792 0.820132892 7.60017764 0.827044404 8.68361038 3.84228637 9.7410994 0.820132892 11.5889429 0.820132892 11.5889429 5.4968378 10.4186419 5.4968378 10.4186419 2.05084471 9.1780982 5.4968378 8.15174172 5.4968378 6.90773892 2.05084471 6.90773892 5.4968378"></polygon>
                    <polygon id="path3050" fill="#016FD0" points="12.389675 5.4968378 12.389675 0.820132892 16.2085521 0.820132892 16.2085521 1.86623993 13.572295 1.86623993 13.572295 2.66620062 16.1469573 2.66620062 16.1469573 3.65077007 13.572295 3.65077007 13.572295 4.48149955 16.2085521 4.48149955 16.2085521 5.4968378"></polygon>
                    <path d="M16.8860946,0.820922551 L16.8860946,5.49762347 L18.0563956,5.49762347 L18.0563956,3.83616451 L18.5491537,3.83616451 L19.9523601,5.49762347 L21.3825142,5.49762347 L19.8426443,3.77463092 C20.4746164,3.72135285 21.1265106,3.17946316 21.1265106,2.33816102 C21.1265106,1.3540183 20.3533261,0.820922551 19.4903992,0.820922551 L16.8860946,0.820922551 L16.8860946,0.820922551 Z M18.0563956,1.8670256 L19.3941573,1.8670256 C19.7150679,1.8670256 19.9485106,2.11781021 19.9485106,2.35931033 C19.9485106,2.67000933 19.6460463,2.85159506 19.411481,2.85159506 L18.0563956,2.85159506 L18.0563956,1.8670256 L18.0563956,1.8670256 Z" id="path3052" fill="#016FD0" fill-rule="nonzero"></path>
                    <polygon id="path3054" fill="#016FD0" points="22.7991944 5.4968378 21.6042555 5.4968378 21.6042555 0.820132892 22.7991944 0.820132892"></polygon>
                    <path d="M25.6325545,5.4968378 L25.3746263,5.4968378 C24.1266535,5.4968378 23.3689461,4.51458149 23.3689461,3.17771634 C23.3689461,1.80782509 24.1181701,0.820132892 25.6941493,0.820132892 L26.9876399,0.820132892 L26.9876399,1.92777353 L25.6468587,1.92777353 C25.0070982,1.92777353 24.5546455,2.42656297 24.5546455,3.18925414 C24.5546455,4.09495339 25.0720056,4.4753458 25.8173389,4.4753458 L26.1253126,4.4753458 L25.6325545,5.4968378 Z" id="path3056" fill="#016FD0"></path>
                    <path d="M28.1791138,0.820922551 L26.1657345,5.49762347 L27.4765485,5.49762347 L27.8480419,4.56113549 L30.0077094,4.56113549 L30.3772778,5.49762347 L31.7169645,5.49762347 L29.7055098,0.820922551 L28.1791138,0.820922551 Z M28.9240259,1.90933219 L29.5823202,3.54579724 L28.2638068,3.54579724 L28.9240259,1.90933219 Z" id="path3058" fill="#016FD0" fill-rule="nonzero"></path>
                    <polygon id="path3060" fill="#016FD0" points="31.8536279 5.4968378 31.8536279 0.820132892 33.3415269 0.820132892 35.2413413 3.75845885 35.2413413 0.820132892 36.4116423 0.820132892 36.4116423 5.4968378 34.9718643 5.4968378 33.0239289 2.48159584 33.0239289 5.4968378"></polygon>
                    <polygon id="path3062" fill="#016FD0" points="8.5707984 13.6810694 8.5707984 9.00436449 12.389675 9.00436449 12.389675 10.0504715 9.75341836 10.0504715 9.75341836 10.8504322 12.3280802 10.8504322 12.3280802 11.8350017 9.75341836 11.8350017 9.75341836 12.6657312 12.389675 12.6657312 12.389675 13.6810694"></polygon>
                    <polygon id="path3064" fill="#016FD0" points="27.2832946 13.6810694 27.2832946 9.00436449 31.1021717 9.00436449 31.1021717 10.0504715 28.4659146 10.0504715 28.4659146 10.8504322 31.0282579 10.8504322 31.0282579 11.8350017 28.4659146 11.8350017 28.4659146 12.6657312 31.1021717 12.6657312 31.1021717 13.6810694"></polygon>
                    <polygon id="path3066" fill="#016FD0" points="12.5378874 13.6810694 14.3972802 11.3715594 12.4936164 9.00436449 13.9680415 9.00436449 15.1017705 10.4677546 16.2393493 9.00436449 17.6560295 9.00436449 15.7773884 11.3427169 17.640204 13.6810694 16.166012 13.6810694 15.0651988 12.2407469 13.9911397 13.6810694"></polygon>
                    <path d="M17.7792192,9.00515415 L17.7792192,13.6818551 L18.9803174,13.6818551 L18.9803174,12.2050009 L20.2122132,12.2050009 C21.2545713,12.2050009 22.0446579,11.6525425 22.0446579,10.5781553 C22.0446579,9.68813759 21.4249888,9.00515415 20.3642754,9.00515415 L17.7792192,9.00515415 L17.7792192,9.00515415 Z M18.9803174,10.062795 L20.2776575,10.062795 C20.6144024,10.062795 20.8551086,10.2689878 20.8551086,10.6012309 C20.8551086,10.9133537 20.6156176,11.1396668 20.273808,11.1396668 L18.9803174,11.1396668 L18.9803174,10.062795 Z" id="path3068" fill="#016FD0" fill-rule="nonzero"></path>
                    <path d="M22.5528152,9.00436449 L22.5528152,13.6810694 L23.7231162,13.6810694 L23.7231162,12.0196065 L24.2158743,12.0196065 L25.6190806,13.6810694 L27.0492347,13.6810694 L25.5093649,11.9580729 C26.1413365,11.9047868 26.7932311,11.3629051 26.7932311,10.521599 C26.7932311,9.53746024 26.0200467,9.00436449 25.1571198,9.00436449 L22.5528152,9.00436449 L22.5528152,9.00436449 Z M23.7231162,10.0504715 L25.0608778,10.0504715 C25.3817884,10.0504715 25.6152307,10.3012521 25.6152307,10.5427523 C25.6152307,10.8534553 25.3127665,11.035037 25.0782012,11.035037 L23.7231162,11.035037 L23.7231162,10.0504715 L23.7231162,10.0504715 Z" id="path3072" fill="#016FD0" fill-rule="nonzero"></path>
                    <path d="M31.6442056,13.6810694 L31.6442056,12.6657312 L33.9863477,12.6657312 C34.3329006,12.6657312 34.4829557,12.4786378 34.4829557,12.273442 C34.4829557,12.0768408 34.3333737,11.878078 33.9863477,11.878078 L32.9279605,11.878078 C32.0079721,11.878078 31.4956084,11.3181019 31.4956084,10.4773741 C31.4956084,9.7275049 31.9648092,9.00436449 33.331903,9.00436449 L35.6109102,9.00436449 L35.1181517,10.0566213 L33.1471186,10.0566213 C32.7703437,10.0566213 32.6543601,10.2541398 32.6543601,10.4427607 C32.6543601,10.636634 32.7976878,10.8504322 33.0855238,10.8504322 L34.1942299,10.8504322 C35.2197904,10.8504322 35.6648056,11.4316055 35.6648056,12.1926774 C35.6648056,13.010904 35.1689126,13.6810694 34.1384,13.6810694 L31.6442056,13.6810694 Z" id="path3074" fill="#016FD0"></path>
                    <path d="M35.9394802,13.6810694 L35.9394802,12.6657312 L38.2816208,12.6657312 C38.6281756,12.6657312 38.7782315,12.4786378 38.7782315,12.273442 C38.7782315,12.0768408 38.6286467,11.878078 38.2816208,11.878078 L37.2232351,11.878078 C36.3032467,11.878078 35.7908826,11.3181019 35.7908826,10.4773741 C35.7908826,9.7275049 36.2600834,9.00436449 37.6271772,9.00436449 L39.9061836,9.00436449 L39.4134251,10.0566213 L37.4423928,10.0566213 C37.0656184,10.0566213 36.9496347,10.2541398 36.9496347,10.4427607 C36.9496347,10.636634 37.0929621,10.8504322 37.380798,10.8504322 L38.489505,10.8504322 C39.5150659,10.8504322 39.9600798,11.4316055 39.9600798,12.1926774 C39.9600798,13.010904 39.4641876,13.6810694 38.4336727,13.6810694 L35.9394802,13.6810694 Z" id="path3076" fill="#016FD0"></path>
                </g>
            </g>
        </g>
    </g>
</svg>