<svg width="64" height="65" viewBox="0 0 64 65" fill="none" xmlns="http://www.w3.org/2000/svg">
<path d="M48.0589 20.5865C47.9296 15.394 43.1917 11.4068 37.8532 12.4328C34.7961 13.0209 32.2895 15.3648 31.3761 18.3385C30.6337 20.7534 31.0425 22.943 32.0226 24.7822H31.9809L39.0919 36.5103C39.4506 37.0983 40.3056 37.0816 40.6351 36.4769L47.2164 24.4027C47.7586 23.2391 48.084 21.9545 48.0464 20.5824H48.0548L48.0589 20.5865ZM39.6258 24.6988C37.3527 24.7531 35.4676 22.9597 35.4134 20.6908C35.3591 18.4178 37.1525 16.5326 39.4214 16.4784C41.6944 16.4242 43.5796 18.2176 43.6338 20.4864C43.688 22.7595 41.8946 24.6446 39.6258 24.6988Z" fill="#FF0000"/>
<path d="M56.8255 7.14024C52.2211 2.53579 46.1027 0 39.5922 0C33.0817 0 26.9633 2.53579 22.3589 7.14024C17.7544 11.7447 15.2186 17.8631 15.2186 24.3736C15.2186 30.884 17.7544 37.0025 22.3589 41.6069C26.9633 46.2114 33.0817 48.7471 39.5922 48.7471C46.1027 48.7471 52.2211 46.2114 56.8255 41.6069C61.43 37.0025 63.9658 30.884 63.9658 24.3736C63.9658 17.8631 61.43 11.7447 56.8255 7.14024ZM39.5922 43.6547C28.9611 43.6547 20.3152 35.0047 20.3152 24.3777C20.3152 13.7508 28.9653 5.10077 39.5922 5.10077C50.2191 5.10077 58.8692 13.7508 58.8692 24.3777C58.8692 35.0047 50.2191 43.6547 39.5922 43.6547Z" fill="#D6D6D6"/>
<path d="M24.2107 39.8092L20.076 43.9439L21.7305 45.5983L25.8651 41.4636L24.2107 39.8092Z" fill="#D6D6D6"/>
<path d="M7.94501 63.8784L22.2964 49.3352C23.7269 47.8838 23.7478 45.5565 22.3423 44.0801L21.8251 43.5379C20.4237 42.0698 18.1132 41.9697 16.595 43.3127L1.27605 56.8383C-0.329665 58.2563 -0.433933 60.7212 1.0425 62.2685L2.52727 63.8284C3.99535 65.3715 6.45189 65.3924 7.94917 63.8784H7.94501Z" fill="#1B1C1C"/>
</svg>
