<svg width="65" height="41" viewBox="0 0 65 41" fill="none" xmlns="http://www.w3.org/2000/svg">
<path d="M52.9724 0H41.8017C40.9606 0 40.2575 0.581537 40.0636 1.36349C39.8731 0.581537 39.17 0 38.3256 0H4.08061C1.82675 0 0 1.82675 0 4.08061V11.1412L1.9056 13.0304V19.2433L0 21.2376V27.8645C0 30.1184 1.82675 31.9451 4.08061 31.9451H38.3256C39.1667 31.9451 39.8698 31.3636 40.0636 30.5816C40.2542 31.3636 40.9573 31.9451 41.8017 31.9451H52.9724C55.2263 31.9451 57.053 30.1184 57.053 27.8645V4.08061C57.053 1.82675 55.2263 0 52.9724 0Z" fill="#D6D6D6"/>
<path d="M4.08061 0C1.82675 0 0 1.82675 0 4.08061V11.1412L1.9056 13.0304V19.2433L0 21.2376V27.8645C0 30.1184 1.82675 31.9451 4.08061 31.9451H6.45605V0H4.08061Z" fill="#969696"/>
<path d="M28.2621 2.7959H9.63324V4.56022H28.2621V2.7959Z" fill="#969696"/>
<path opacity="0.4" d="M36.9425 6.32462H9.63324V8.08895H36.9425V6.32462Z" fill="white"/>
<path d="M36.9425 2.7959H30.5916V4.56022H36.9425V2.7959Z" fill="#969696"/>
<path opacity="0.4" d="M29.3201 9.92233H9.63324V11.6867H29.3201V9.92233Z" fill="white"/>
<path opacity="0.4" d="M36.9424 9.92233H31.6494V11.6867H36.9424V9.92233Z" fill="white"/>
<path opacity="0.4" d="M19.7954 13.52H9.63324V15.2844H19.7954V13.52Z" fill="white"/>
<path opacity="0.4" d="M36.9425 13.52H22.3351V15.2844H36.9425V13.52Z" fill="white"/>
<path opacity="0.4" d="M22.3351 17.121H9.63324V18.8853H22.3351V17.121Z" fill="white"/>
<path opacity="0.4" d="M36.9425 17.121H24.6645V18.8853H36.9425V17.121Z" fill="white"/>
<path d="M48.583 2.7959H42.2321V4.56022H48.583V2.7959Z" fill="#969696"/>
<path opacity="0.4" d="M54.2998 6.32462H42.2321V8.08895H54.2998V6.32462Z" fill="white"/>
<path opacity="0.4" d="M46.0433 9.92233H42.2321V11.6867H46.0433V9.92233Z" fill="white"/>
<path opacity="0.4" d="M54.2999 9.92233H47.949V11.6867H54.2999V9.92233Z" fill="white"/>
<path opacity="0.4" d="M54.2998 27.4931H42.2321V29.2575H54.2998V27.4931Z" fill="white"/>
<path d="M36.9425 27.4931H9.63324V29.2575H36.9425V27.4931Z" fill="#969696"/>
<path d="M64.6753 30.7461C64.258 30.066 63.3676 29.8524 62.6875 30.273L61.8629 30.7789C61.922 30.4274 61.9647 30.0725 61.991 29.7144C62.3951 23.8596 57.9597 18.7704 52.1049 18.3662C49.3352 18.1757 46.6411 19.0562 44.5186 20.8435C43.9075 21.3561 43.8287 22.2694 44.3445 22.8805C44.857 23.4917 45.7704 23.5705 46.3815 23.0547C47.929 21.7536 49.8904 21.1129 51.9077 21.2509C56.1723 21.5433 59.402 25.2527 59.1096 29.5173C59.0932 29.7703 59.0636 30.0167 59.0209 30.2631L58.3966 29.2512C57.9794 28.5711 57.089 28.3575 56.4089 28.7781C55.7288 29.1953 55.5152 30.0857 55.9358 30.7658L58.3276 34.6558C58.5281 34.9811 58.85 35.2144 59.2246 35.3064C59.3363 35.3327 59.448 35.3458 59.5597 35.3458C59.8258 35.3458 60.0854 35.2735 60.3154 35.1322L64.2054 32.7404C64.8855 32.3231 65.0991 31.4328 64.6786 30.7527L64.6753 30.7461Z" fill="#FF0000"/>
<path d="M55.9392 36.2854C54.3917 37.5864 52.4303 38.2271 50.413 38.0891C50.2816 38.0792 50.1501 38.0661 50.0187 38.053C50.0023 38.053 49.9826 38.0464 49.9662 38.0464C49.8512 38.0333 49.7394 38.0168 49.6277 37.9971H49.6212C46.0202 37.3729 43.3261 34.2845 43.2013 30.631C43.2013 30.6277 43.2013 30.6211 43.2013 30.6178C43.198 30.5061 43.198 30.3944 43.2013 30.2794C43.2013 30.2597 43.2013 30.24 43.2013 30.2203C43.2013 30.0889 43.2078 29.9574 43.2177 29.826C43.2275 29.7012 43.2374 29.5763 43.2505 29.4548C43.2637 29.3299 43.2834 29.2051 43.3031 29.0802L43.9274 30.0922C44.2001 30.5357 44.6732 30.7821 45.1594 30.7821C45.419 30.7821 45.6785 30.7131 45.9151 30.5686C46.5952 30.1513 46.8088 29.2609 46.3882 28.5808L43.9964 24.6908C43.7959 24.3655 43.474 24.1322 43.0994 24.0402C42.7249 23.9515 42.3339 24.0139 42.0086 24.2144L38.1186 26.6062C37.4385 27.0235 37.2249 27.9139 37.6455 28.594C38.066 29.2741 38.9531 29.4876 39.6332 29.0671L40.4579 28.5611C40.3987 28.9127 40.356 29.2675 40.3297 29.6256C40.3166 29.8063 40.31 29.987 40.3067 30.1677C40.3067 30.194 40.3067 30.2203 40.3067 30.2466C40.3067 30.401 40.3067 30.5587 40.31 30.7131C40.31 30.7197 40.31 30.723 40.31 30.7295C40.3921 33.1674 41.2989 35.4837 42.922 37.3499C44.545 39.2128 46.7135 40.4284 49.1185 40.8424C49.1251 40.8424 49.1316 40.8424 49.1382 40.8457C49.2893 40.8719 49.4438 40.8917 49.5949 40.9114C49.6212 40.9147 49.6475 40.9212 49.677 40.9245C49.8512 40.9442 50.0286 40.9607 50.2027 40.9738C50.206 40.9738 50.2126 40.9738 50.2158 40.9738C50.4655 40.9902 50.712 41.0001 50.9584 41.0001C53.4652 41.0001 55.8702 40.1261 57.8021 38.4965C58.4132 37.984 58.4921 37.0706 57.9762 36.4595C57.4637 35.8484 56.5503 35.7695 55.9392 36.2854Z" fill="#FF0000"/>
</svg>
