<svg width="56" height="26" viewBox="0 0 56 26" fill="none" xmlns="http://www.w3.org/2000/svg">
<g clip-path="url(#clip0_33_24)">
<path d="M33.0039 13.5623C33.0525 13.8038 33.0767 14.0355 33.0767 14.2573C33.0767 14.9623 32.8923 15.5538 32.5186 16.0369C32.1109 16.5644 31.6304 16.8256 30.9509 16.8256C30.3831 16.8256 29.9948 16.4608 29.7084 16.1996H29.689L29.6696 18.6693H28.8202V13.6411C28.8202 13.2961 28.8154 12.2115 28.8105 11.9503H29.5434L29.5822 12.8475H29.6017C29.922 12.177 30.4219 11.8418 31.0917 11.8418C31.5625 11.8418 32.0915 12.0144 32.4167 12.3545C32.7127 12.6651 32.9069 13.0693 33.0039 13.5623ZM32.1788 13.6214C32.1206 13.3108 31.9993 13.0545 31.8148 12.8573C31.611 12.6306 31.2276 12.5221 30.9364 12.5221C30.5044 12.5221 30.1064 12.7094 29.8734 13.2024C29.689 13.6017 29.6599 14.1045 29.6696 14.5876L29.6939 15.12C29.8103 15.8841 30.3976 16.1799 30.781 16.1799C31.247 16.1799 31.6061 15.9531 31.8828 15.4996C32.1158 15.1151 32.2322 14.6714 32.2322 14.1735C32.2322 13.9813 32.2128 13.7939 32.1788 13.6214Z" fill="#231F20"/>
<path d="M46.8272 16.7269L46.8224 16.1255H46.7981C46.4681 16.5987 45.9924 16.8354 45.3615 16.8354C44.9489 16.8354 44.6092 16.7072 44.3374 16.4558C44.0656 16.2044 43.9297 15.8741 43.9297 15.46C43.9297 14.7847 44.2549 14.3016 44.9052 14.0009C45.3809 13.784 45.9924 13.6755 46.7496 13.6854V13.5868C46.7496 12.8572 46.3953 12.4924 45.6818 12.4924C45.2159 12.4924 44.8082 12.6107 44.4587 12.8473L44.2646 12.2706C44.6868 11.9896 45.2062 11.8516 45.8128 11.8516C47.0019 11.8516 47.5941 12.5023 47.5941 13.8037V15.5833C47.5941 15.7065 47.5941 16.6234 47.5989 16.722H46.8272V16.7269ZM46.769 15.1248V14.2917C45.444 14.2671 44.7839 14.622 44.7839 15.3663C44.7839 15.6178 44.8567 15.8149 44.9975 15.9678C45.1382 16.1206 45.3372 16.1945 45.5847 16.1945C45.8517 16.1945 46.0846 16.1206 46.2933 15.9776C46.502 15.8347 46.6476 15.6325 46.7301 15.3811C46.7593 15.3023 46.769 15.2185 46.769 15.1248Z" fill="#231F20"/>
<path d="M39.1535 16.7269L39.1486 16.1255H39.1243C38.7943 16.5987 38.3187 16.8354 37.6877 16.8354C37.2752 16.8354 36.9354 16.7072 36.6636 16.4558C36.3918 16.2044 36.2559 15.8741 36.2559 15.46C36.2559 14.7847 36.5811 14.3016 37.2315 14.0009C37.7071 13.784 38.3187 13.6755 39.0758 13.6854V13.5868C39.0758 12.8572 38.7215 12.4924 38.008 12.4924C37.5421 12.4924 37.1344 12.6107 36.785 12.8473L36.5908 12.2706C37.0131 11.9896 37.5324 11.8516 38.1391 11.8516C39.3282 11.8516 39.9203 12.5023 39.9203 13.8037V15.5833C39.9203 15.7065 39.9203 16.6234 39.9252 16.722H39.1535V16.7269ZM39.0952 15.1248V14.2917C37.7702 14.2671 37.1101 14.622 37.1101 15.3663C37.1101 15.6178 37.1829 15.8149 37.3237 15.9678C37.4645 16.1206 37.6634 16.1945 37.911 16.1945C38.1779 16.1945 38.4109 16.1206 38.6196 15.9776C38.8283 15.8347 38.9739 15.6325 39.0564 15.3811C39.0855 15.3023 39.0952 15.2185 39.0952 15.1248Z" fill="#231F20"/>
<path d="M35.1792 16.5788H34.334V10.4711V9.6084H35.1792V16.5788Z" fill="#231F20"/>
<path d="M41.2759 10.9488L42.1058 10.6826V11.8262H43.324V12.4819H42.1058V15.0453C42.1058 15.6615 42.3194 15.9671 42.7416 15.9671C42.9358 15.9671 43.0959 15.9474 43.2318 15.9079L43.2755 16.5537C43.0717 16.6424 42.8241 16.6819 42.5184 16.6819C41.6884 16.6819 41.271 16.1446 41.271 15.0699V12.4769H40.543V11.8213H41.271V10.9488H41.2759Z" fill="#231F20"/>
<path d="M52.1268 7.53722C51.3696 6.88651 50.1757 5.97454 49.6078 5.54567C49.5108 5.47172 49.4574 5.35341 49.4719 5.23017C49.535 4.63862 49.6369 4.02243 49.768 3.49989C49.9282 2.85905 50.0543 2.19355 49.6903 1.72031C49.4525 1.40975 49.0497 1.252 48.4867 1.252H46.2735C45.7299 1.252 45.3319 1.41468 45.0892 1.74003C45.0019 1.85341 44.9388 1.98651 44.9048 2.1344C44.8466 2.3513 44.6233 2.46961 44.4195 2.38088C42.2985 1.39496 40.1533 0.428758 39.3039 0.423828C36.848 0.438618 30.9753 3.69707 26.4859 7.53722C26.0345 7.92172 25.6948 8.28158 25.4424 8.6168C25.2919 8.81398 25.3647 9.0999 25.588 9.2083C25.5928 9.2083 25.5928 9.2132 25.5977 9.2132C25.7239 9.2724 25.8792 9.2379 25.9617 9.1196C26.2044 8.79426 26.5296 8.44919 26.9469 8.08933C31.7131 4.00764 37.2849 1.15341 39.3039 1.14355C40.0659 1.14848 42.7935 2.44989 44.1234 3.03651C44.667 3.27806 44.9825 3.41609 45.1815 3.49989C45.4533 3.6182 45.5843 3.54426 45.5843 3.37172C45.5794 2.96257 45.5891 2.2675 45.6522 2.17876C45.7784 2.01116 46.0599 1.97665 46.2735 1.97665H48.4867C48.7148 1.97665 49.0108 2.01116 49.1273 2.16398C49.3069 2.4006 49.1565 3.002 49.0788 3.32243C48.9089 4.00271 48.7779 4.82595 48.7245 5.57524L48.7099 5.77243V5.77736L48.8652 5.89567C48.8847 5.91046 50.6804 7.2513 51.6608 8.09426C52.8208 9.0851 53.3159 10.002 53.0538 10.6675C52.7626 11.4168 51.5298 11.8653 49.9913 11.7914C49.6855 11.7766 49.3894 11.7618 49.0982 11.747H49.0885C48.8847 11.7372 48.7196 11.9048 48.7245 12.1069V12.1168C48.7439 12.9992 49.0011 14.7837 50.4717 16.79L50.4863 16.8048C51.6172 18.1752 51.9035 19.7379 51.3065 21.1724C51.292 21.2069 51.2774 21.2365 51.2629 21.271C51.1901 21.4386 51.1076 21.6013 51.0105 21.7639C49.8602 23.6766 46.9821 25.2097 43.1381 24.3273L43.0411 24.3027L42.9489 24.3372C41.9005 24.6921 40.1872 24.8548 39.3088 24.8548C38.4303 24.8548 36.717 24.6921 35.6686 24.3372L35.5764 24.3027L35.4794 24.3273C31.6354 25.2097 28.7573 23.6766 27.607 21.7639C27.4905 21.5717 27.3935 21.3745 27.311 21.1724C27.311 21.1675 27.3061 21.1625 27.3013 21.1576C26.9567 20.3097 26.9178 19.4175 27.1751 18.5499C27.2333 18.3576 27.1362 18.1506 26.9518 18.0815C26.7722 18.0076 26.5684 18.1062 26.5101 18.2935C26.151 19.4618 26.2432 20.6745 26.8013 21.7886C26.8062 21.7935 26.8062 21.8034 26.8111 21.8083C26.8693 21.9217 26.9275 22.0351 26.9955 22.1435C28.2574 24.2435 31.3539 25.9442 35.4551 25.0717C35.5085 25.0618 35.5619 25.0618 35.6153 25.0766C36.7995 25.4414 38.4837 25.5745 39.3088 25.5745C40.1338 25.5745 41.818 25.4365 43.0022 25.0766C43.0556 25.0618 43.109 25.0569 43.1624 25.0717C47.2636 25.9442 50.3601 24.2435 51.622 22.1435C51.7579 21.9168 51.8744 21.6851 51.9666 21.4534C52.651 19.7773 52.3306 17.9189 51.0396 16.3513C50.0592 15.0153 49.6709 13.8027 49.5205 12.9301C49.4816 12.7083 49.6564 12.5013 49.8796 12.5161L49.9573 12.521C51.8356 12.6146 53.311 11.9984 53.7187 10.9435C53.9954 10.2386 53.9371 9.0851 52.1268 7.53722Z" fill="#EC2029"/>
<path d="M3.30953 15.9176C4.69277 16.2577 8.10962 16.1542 8.19213 13.5464C8.19213 12.5014 7.037 11.5253 5.93041 11.2443C4.58114 10.8993 3.71237 10.8943 2.34369 11.2443C1.49918 11.619 1.23709 10.6577 2.00394 10.3324C3.45999 9.71624 9.13855 9.58314 9.40549 13.5464C9.16767 17.4605 4.21227 17.1845 3.09598 16.9232C2.65431 16.8197 2.31942 16.5831 2.31942 15.9274V12.6641C2.31942 11.8901 3.30953 11.895 3.30953 12.669V15.9176Z" fill="#ED1F29"/>
<path d="M13.809 11.3184C12.7024 11.3184 10.8435 15.2424 10.295 16.6473C9.96982 17.4903 8.93118 16.8889 9.26122 16.0459C9.84849 14.5325 12.0617 9.96276 13.7992 10.0072C15.5319 9.96766 17.75 14.5325 18.3372 16.0459C18.6624 16.8889 17.6286 17.4903 17.3035 16.6473C16.755 15.2424 14.9155 11.3184 13.809 11.3184Z" fill="#ED1F29"/>
<path d="M21.1952 15.7448C22.297 15.7448 24.1607 11.8208 24.7043 10.4159C25.0295 9.57302 26.0681 10.1744 25.7381 11.0173C25.1508 12.5307 22.9328 17.1004 21.2001 17.0561C19.4674 17.0955 17.2494 12.5307 16.6621 11.0173C16.3369 10.1744 17.3707 9.57302 17.6959 10.4159C18.2492 11.8208 20.0886 15.7448 21.1952 15.7448Z" fill="#ED1F29"/>
<path d="M27.2353 10.6829V16.4012C27.2353 17.254 26.123 17.2244 26.123 16.3667V10.6632C26.1278 9.78575 27.2353 9.77595 27.2353 10.6829Z" fill="#ED1F29"/>
</g>
<defs>
<clipPath id="clip0_33_24">
<rect width="56" height="26" fill="white"/>
</clipPath>
</defs>
</svg>
