<svg width="80" height="31" viewBox="0 0 80 31" fill="none" xmlns="http://www.w3.org/2000/svg">
<path d="M10.0006 10.52C8.23831 10.52 6.90845 11.1223 6.90845 11.9205C6.90845 12.7186 8.23767 13.3209 10.0006 13.3209C11.7636 13.3209 13.0928 12.7186 13.0928 11.9205C13.0928 11.1223 11.7636 10.52 10.0006 10.52ZM10.0006 11.2851C11.1403 11.2851 11.8679 11.6616 11.8679 11.9205C11.8679 12.1793 11.1403 12.5558 10.0006 12.5558C8.86094 12.5558 8.13337 12.1793 8.13337 11.9205C8.13337 11.6616 8.86094 11.2851 10.0006 11.2851Z" fill="#1B1B1B"/>
<path d="M19.344 22.7527C19.1895 22.5828 18.9669 22.4855 18.7322 22.4855H1.26918C1.03449 22.4855 0.811898 22.5828 0.657353 22.7527C0.509167 22.9155 0.439208 23.1241 0.460195 23.3397L0.87041 27.576C0.909841 27.9805 1.25709 28.2851 1.67875 28.2851H18.3214C18.743 28.2851 19.0909 27.9805 19.1297 27.576L19.5399 23.3397C19.5609 23.1241 19.4909 22.9155 19.3428 22.7527H19.344Z" fill="#1B1B1B"/>
<path d="M10.0007 11.9313C14.4221 11.9313 18.011 15.5208 18.011 19.9416V27.7503C18.011 29.2786 16.7702 30.52 15.2412 30.52H4.75948C3.2312 30.52 1.98975 29.2792 1.98975 27.7503V19.9416C1.98975 15.5202 5.57928 11.9313 10 11.9313H10.0007Z" fill="#B50080"/>
<path d="M5.26553 22.7749V27.4825C5.26553 27.9939 5.61723 28.4098 6.0497 28.4098H14.2076C14.64 28.4098 14.9917 27.9939 14.9917 27.4825V22.7749H5.26489H5.26553Z" fill="#69104F"/>
<path d="M14.0032 23.6793H6.86548V23.9973H14.0032V23.6793Z" fill="#D9D9D9"/>
<path d="M6.55781 23.6793H6.25635V23.9973H6.55781V23.6793Z" fill="#D9D9D9"/>
<path d="M6.56604 24.2504H6.24805V24.6606H6.56604V24.2504Z" fill="#D9D9D9"/>
<path d="M14.8004 17.0701H6.06763V17.3881H14.8004V17.0701Z" fill="#B50080"/>
<path d="M5.75922 17.0701H5.45776V17.3881H5.75922V17.0701Z" fill="#B50080"/>
<path d="M5.76746 17.6406H5.44946V18.0508H5.76746V17.6406Z" fill="#B50080"/>
<path d="M31.263 1.31491H30.5132V9.58374H31.263V1.31491Z" fill="#E9E9E9"/>
<path d="M39.5654 1.31491H38.8157V9.58374H39.5654V1.31491Z" fill="#E9E9E9"/>
<path d="M35.0397 7.72455C33.3853 7.72455 32.0894 8.2884 32.0894 9.0077C32.0894 9.72699 33.3853 10.2908 35.0397 10.2908C36.6941 10.2908 37.99 9.72699 37.99 9.0077C37.99 8.2884 36.6941 7.72455 35.0397 7.72455ZM35.0397 9.73186C33.8973 9.73186 33.1012 9.35027 33.1012 9.0077C33.1012 8.66512 33.8973 8.28353 35.0397 8.28353C36.182 8.28353 36.9781 8.66512 36.9781 9.0077C36.9781 9.35027 36.182 9.73186 35.0397 9.73186Z" fill="#1B1B1B"/>
<path d="M40.2288 1.11008L40.1166 0.91746C39.974 0.672412 39.6862 0.52002 39.365 0.52002H30.7134C30.3921 0.52002 30.1038 0.672412 29.9618 0.91746L29.8496 1.11069C29.7893 1.21493 29.7886 1.33441 29.8484 1.43864C29.9185 1.55995 30.0581 1.63553 30.2135 1.63553H39.8648C40.0197 1.63553 40.1599 1.55995 40.23 1.43864C40.2897 1.33441 40.2897 1.21493 40.2288 1.11069V1.11008Z" fill="#1B1B1B"/>
<path d="M27.2053 26.2116V26.72C27.2053 27.9208 28.1825 28.898 29.3833 28.898H40.6177C41.8186 28.898 42.7957 27.9208 42.7957 26.72V26.2116H27.2053Z" fill="#1B1B1B"/>
<path d="M40.7672 9.01862H29.3121C28.1552 9.01862 27.217 9.95674 27.217 11.1137V26.3188C27.217 26.6145 27.4572 26.8547 27.7529 26.8547H28.6081C28.7081 26.8547 28.7891 26.9369 28.7867 27.0369L28.7782 27.41C28.7757 27.5227 28.8086 27.6337 28.8732 27.7263C29.0512 27.9842 29.4273 28.5218 29.6316 28.7699C29.7333 28.8937 29.8845 28.9644 30.0448 28.9644H40.065C40.2234 28.9644 40.3734 28.8943 40.4752 28.7736C40.6855 28.523 41.0445 27.9714 41.2073 27.7166C41.2628 27.63 41.292 27.5288 41.2914 27.4264L41.2896 27.0339C41.2896 26.9351 41.3694 26.8547 41.4682 26.8547H42.3271C42.6227 26.8547 42.8629 26.6145 42.8629 26.3188V11.1137C42.8629 9.95674 41.9248 9.01862 40.7678 9.01862H40.7672Z" fill="#B50080"/>
<path d="M28.9597 11.4929C28.9597 10.9248 29.4206 10.4645 29.9881 10.4645H40.0905C40.6586 10.4645 41.1188 10.9254 41.1188 11.4929V11.8385H28.9597V11.4929Z" fill="#FCE4EC"/>
<path d="M28.0862 30.4895C28.7518 30.4895 29.2913 29.95 29.2913 29.2844C29.2913 28.6188 28.7518 28.0793 28.0862 28.0793C27.4207 28.0793 26.8811 28.6188 26.8811 29.2844C26.8811 29.95 27.4207 30.4895 28.0862 30.4895Z" fill="#1B1B1B"/>
<path d="M28.2686 29.132H27.9041V29.4368H28.2686V29.132Z" fill="#D9D9D9"/>
<path d="M41.9136 30.4896C42.5792 30.4896 43.1187 29.95 43.1187 29.2845C43.1187 28.6189 42.5792 28.0793 41.9136 28.0793C41.248 28.0793 40.7085 28.6189 40.7085 29.2845C40.7085 29.95 41.248 30.4896 41.9136 30.4896Z" fill="#1B1B1B"/>
<path d="M42.096 29.132H41.7314V29.4368H42.096V29.132Z" fill="#D9D9D9"/>
<path d="M40.1386 27.204C40.1386 27.7721 39.7351 28.2323 39.237 28.2323H30.8762C30.3781 28.2323 29.9746 27.7715 29.9746 27.204V26.8584H40.1392V27.204H40.1386Z" fill="#69104F"/>
<path d="M55.9694 21.1293H74.0309C74.5957 21.1293 75.0542 21.5878 75.0542 22.1526V26.8937C75.0542 27.4585 74.5957 27.917 74.0309 27.917H55.9694C55.4045 27.917 54.946 27.4585 54.946 26.8937V22.1526C54.946 21.5878 55.4045 21.1293 55.9694 21.1293Z" fill="#1B1B1B"/>
<path d="M68.059 0.912384H61.9413C61.3609 0.912384 60.8892 1.40812 60.8892 2.01802V3.84533C60.8892 4.45463 61.3615 4.95096 61.9413 4.95096H68.059C68.6394 4.95096 69.1111 4.45523 69.1111 3.84533V2.01802C69.1111 1.40872 68.6388 0.912384 68.059 0.912384ZM68.1227 2.41761V3.57493C68.1227 3.90241 67.8691 4.1686 67.5578 4.1686H62.4425C62.1306 4.1686 61.8776 3.90241 61.8776 3.57493V2.41761C61.8776 2.09013 62.1312 1.82393 62.4425 1.82393H67.5578C67.8691 1.82393 68.1227 2.09013 68.1227 2.41761Z" fill="#1B1B1B"/>
<path d="M67.2717 0.684631H62.738C62.4662 0.684631 62.2458 0.904964 62.2458 1.17676V1.57815C62.2458 1.84995 62.4662 2.07028 62.738 2.07028H67.2717C67.5435 2.07028 67.7638 1.84995 67.7638 1.57815V1.17676C67.7638 0.904964 67.5435 0.684631 67.2717 0.684631Z" fill="#B50080"/>
<path d="M56.2752 27.7493C55.5421 27.7493 54.946 28.3706 54.946 29.135C54.946 29.8993 55.5421 30.52 56.2752 30.52C57.0083 30.52 57.6044 29.8987 57.6044 29.135C57.6044 28.3712 57.0083 27.7493 56.2752 27.7493Z" fill="#1B1B1B"/>
<path d="M56.4806 28.9842H56.0696V29.2846H56.4806V28.9842Z" fill="#D9D9D9"/>
<path d="M73.6138 26.285H74.3691C75.0727 26.285 75.6436 25.6859 75.6436 24.9462V4.76412C75.6436 3.73299 74.848 2.89716 73.8661 2.89716H56.1339C55.1526 2.89716 54.3564 3.73299 54.3564 4.76412V24.9468C54.3564 25.6859 54.9273 26.2856 55.6309 26.2856H56.4638C57.1746 26.2856 57.5526 26.0014 57.7346 27.0547C57.8446 27.6923 58.3722 28.1561 58.9887 28.1561H71.0341C71.6404 28.1561 72.1632 27.7079 72.2828 27.0836C72.4859 26.0272 72.8957 26.2856 73.6132 26.2856L73.6138 26.285Z" fill="#B50080"/>
<path d="M62.4829 2.89716V28.1555H67.5172V2.89716H62.7509" fill="#69104F"/>
<path d="M73.7249 27.7493C72.9918 27.7493 72.3958 28.3706 72.3958 29.135C72.3958 29.8993 72.9918 30.52 73.7249 30.52C74.458 30.52 75.0541 29.8987 75.0541 29.135C75.0541 28.3712 74.458 27.7493 73.7249 27.7493Z" fill="#1B1B1B"/>
<path d="M73.9305 28.9842H73.5195V29.2846H73.9305V28.9842Z" fill="#D9D9D9"/>
<path d="M61.9016 5.9418H61.5356V6.36243H61.9016V5.9418Z" fill="#D50469"/>
<path d="M60.1728 5.94186H59.8069V6.36249H60.1728V5.94186Z" fill="#D50469"/>
<path d="M70.1933 5.94177H69.8274V6.3624H70.1933V5.94177Z" fill="#D50469"/>
<path d="M68.4646 5.94183H68.0986V6.36246H68.4646V5.94183Z" fill="#D50469"/>
<path d="M73.866 2.89716H56.1338C56.0328 2.89716 55.9343 2.90617 55.8381 2.9236H74.1611C74.0649 2.90677 73.9664 2.89716 73.8654 2.89716H73.866Z" fill="#B50080"/>
<path d="M54.364 7.71512C54.364 8.09188 54.6663 8.39773 55.04 8.39773H56.0159C57.1185 8.39773 58.012 7.84551 58.012 6.09692V5.03876C58.012 4.56946 58.2518 4.1891 58.5474 4.1891H71.4521C71.7478 4.1891 71.9875 4.56946 71.9875 5.03876V6.09692C71.9875 7.84551 72.881 8.39833 73.9837 8.39833H74.9595C75.3327 8.39833 75.6355 8.09248 75.6355 7.71572V4.80741C75.6355 4.7341 75.6355 4.6614 75.6355 4.58989C75.561 3.74444 74.9487 3.06243 74.1615 2.92422H55.8386C55.0514 3.06243 54.4397 3.74444 54.3646 4.58989C54.3646 4.6614 54.3646 4.7335 54.3646 4.80741V7.71572L54.364 7.71512Z" fill="#EC4079"/>
<path d="M66.0118 10.7051H64.0475C63.7278 10.7051 63.467 10.4449 63.467 10.1247V6.71821C63.467 6.39854 63.7272 6.13776 64.0475 6.13776H66.0118C66.3315 6.13776 66.5923 6.39794 66.5923 6.71821V10.1247C66.5923 10.4443 66.3321 10.7051 66.0118 10.7051ZM64.0475 6.31862C63.827 6.31862 63.6473 6.49829 63.6473 6.71882V10.1253C63.6473 10.3458 63.827 10.5255 64.0475 10.5255H66.0118C66.2323 10.5255 66.412 10.3458 66.412 10.1253V6.71882C66.412 6.49829 66.2323 6.31862 66.0118 6.31862H64.0475Z" fill="#B6B6B6"/>
<path d="M65.0299 0.52002C64.8641 0.52002 64.7295 0.654619 64.7295 0.820464V1.92009C64.7295 2.04327 64.804 2.14903 64.9098 2.1953V6.22847H65.1501V2.1953C65.2559 2.14903 65.3304 2.04327 65.3304 1.92009V0.820464C65.3304 0.654619 65.1958 0.52002 65.0299 0.52002Z" fill="#B6B6B6"/>
<path d="M63.6179 6.77891V10.0646C63.6179 10.3354 63.8374 10.5549 64.1082 10.5549H65.9518C66.2226 10.5549 66.4421 10.3354 66.4421 10.0646V6.77891C66.4421 6.50811 66.2226 6.28859 65.9518 6.28859H64.1082C63.8374 6.28859 63.6179 6.50811 63.6179 6.77891Z" fill="#E9E9E9"/>
<path d="M65.7815 7.06967H64.2793V7.24994H65.7815V7.06967Z" fill="#B6B6B6"/>
<path d="M65.7815 7.91092H64.2793V8.09119H65.7815V7.91092Z" fill="#B6B6B6"/>
<path d="M65.7815 8.75223H64.2793V8.93249H65.7815V8.75223Z" fill="#B6B6B6"/>
<path d="M65.7815 9.59344H64.2793V9.77371H65.7815V9.59344Z" fill="#B6B6B6"/>
</svg>
