<svg width="30" height="30" viewBox="0 0 30 30" fill="none" xmlns="http://www.w3.org/2000/svg">
<g id="Illustration">
<g id="Group">
<path id="Vector" d="M15.0011 0C12.3576 0 10.3628 0.903426 10.3628 2.10068C10.3628 3.29793 12.3566 4.20135 15.0011 4.20135C17.6455 4.20135 19.6394 3.29793 19.6394 2.10068C19.6394 0.903426 17.6455 0 15.0011 0ZM15.0011 1.14765C16.7106 1.14765 17.802 1.71241 17.802 2.10068C17.802 2.48895 16.7106 3.05371 15.0011 3.05371C13.2915 3.05371 12.2002 2.48895 12.2002 2.10068C12.2002 1.71241 13.2915 1.14765 15.0011 1.14765Z" fill="#1B1B1B"/>
<path id="Vector_2" d="M29.2084 18.349C28.9766 18.0943 28.6427 17.9483 28.2907 17.9483H2.09615C1.74413 17.9483 1.41023 18.0943 1.17841 18.349C0.956133 18.5932 0.851194 18.9061 0.882676 19.2295L1.498 25.584C1.55714 26.1907 2.07802 26.6477 2.71051 26.6477H27.6744C28.3069 26.6477 28.8287 26.1907 28.8869 25.584L29.5023 19.2295C29.5337 18.9061 29.4288 18.5932 29.2065 18.349H29.2084Z" fill="#1B1B1B"/>
<path id="Vector_3" d="M15.0008 2.11688C21.6329 2.11688 27.0162 7.50118 27.0162 14.1323V25.8454C27.0162 28.1378 25.155 30 22.8616 30H7.13898C4.84655 30 2.98438 28.1388 2.98438 25.8454V14.1323C2.98438 7.50023 8.36867 2.11688 14.9998 2.11688H15.0008Z" fill="#FF0000"/>
<path id="Vector_4" d="M7.89841 18.3823V25.4437C7.89841 26.2107 8.42597 26.8346 9.07468 26.8346H21.3115C21.9602 26.8346 22.4877 26.2107 22.4877 25.4437V18.3823H7.89746H7.89841Z" fill="#D00000"/>
<g id="Group_2">
<path id="Vector_5" d="M21.0049 19.7389H10.2983V20.2159H21.0049V19.7389Z" fill="#FFF3F3"/>
<path id="Vector_6" d="M9.83671 19.7389H9.38452V20.2159H9.83671V19.7389Z" fill="#FFF3F3"/>
<path id="Vector_7" d="M9.84882 20.5956H9.37183V21.211H9.84882V20.5956Z" fill="#FFF3F3"/>
</g>
<g id="Group_3">
<path id="Vector_8" d="M22.2005 9.82507H9.10132V10.3021H22.2005V9.82507Z" fill="#E71E00"/>
<path id="Vector_9" d="M8.63896 9.82507H8.18677V10.3021H8.63896V9.82507Z" fill="#E71E00"/>
<path id="Vector_10" d="M8.65131 10.6808H8.17432V11.2961H8.65131V10.6808Z" fill="#E71E00"/>
</g>
</g>
</g>
</svg>
