<svg width="112" height="31" viewBox="0 0 112 31" fill="none" xmlns="http://www.w3.org/2000/svg">
<path d="M10.0006 10.04C8.23831 10.04 6.90845 10.6423 6.90845 11.4405C6.90845 12.2387 8.23767 12.8409 10.0006 12.8409C11.7636 12.8409 13.0928 12.2387 13.0928 11.4405C13.0928 10.6423 11.7636 10.04 10.0006 10.04ZM10.0006 10.8051C11.1403 10.8051 11.8679 11.1816 11.8679 11.4405C11.8679 11.6993 11.1403 12.0758 10.0006 12.0758C8.86094 12.0758 8.13337 11.6993 8.13337 11.4405C8.13337 11.1816 8.86094 10.8051 10.0006 10.8051Z" fill="#1B1B1B"/>
<path d="M19.344 22.2727C19.1895 22.1029 18.9669 22.0056 18.7322 22.0056H1.26918C1.03449 22.0056 0.811898 22.1029 0.657353 22.2727C0.509167 22.4355 0.439208 22.6441 0.460195 22.8597L0.87041 27.096C0.909841 27.5005 1.25709 27.8052 1.67875 27.8052H18.3214C18.743 27.8052 19.0909 27.5005 19.1297 27.096L19.5399 22.8597C19.5609 22.6441 19.4909 22.4355 19.3428 22.2727H19.344Z" fill="#1B1B1B"/>
<path d="M10.0007 11.4513C14.4221 11.4513 18.011 15.0408 18.011 19.4616V27.2703C18.011 28.7986 16.7702 30.04 15.2412 30.04H4.75948C3.2312 30.04 1.98975 28.7992 1.98975 27.2703V19.4616C1.98975 15.0402 5.57928 11.4513 10 11.4513H10.0007Z" fill="#EF5B06"/>
<path d="M5.26553 22.295V27.0026C5.26553 27.5139 5.61723 27.9298 6.0497 27.9298H14.2076C14.64 27.9298 14.9917 27.5139 14.9917 27.0026V22.295H5.26489H5.26553Z" fill="#CF4D04"/>
<path d="M14.0032 23.1993H6.86548V23.5173H14.0032V23.1993Z" fill="#D9D9D9"/>
<path d="M6.55781 23.1993H6.25635V23.5173H6.55781V23.1993Z" fill="#D9D9D9"/>
<path d="M6.56604 23.7705H6.24805V24.1807H6.56604V23.7705Z" fill="#D9D9D9"/>
<path d="M14.8004 16.5901H6.06763V16.9081H14.8004V16.5901Z" fill="#EF5B06"/>
<path d="M5.75922 16.5901H5.45776V16.9081H5.75922V16.5901Z" fill="#EF5B06"/>
<path d="M5.76746 17.1606H5.44946V17.5708H5.76746V17.1606Z" fill="#EF5B06"/>
<path d="M31.263 0.834946H30.5132V9.10377H31.263V0.834946Z" fill="#E9E9E9"/>
<path d="M39.5654 0.83493H38.8157V9.10376H39.5654V0.83493Z" fill="#E9E9E9"/>
<path d="M35.0397 7.24455C33.3853 7.24455 32.0894 7.80841 32.0894 8.5277C32.0894 9.24699 33.3853 9.81085 35.0397 9.81085C36.6941 9.81085 37.99 9.24699 37.99 8.5277C37.99 7.80841 36.6941 7.24455 35.0397 7.24455ZM35.0397 9.25187C33.8973 9.25187 33.1012 8.87028 33.1012 8.5277C33.1012 8.18512 33.8973 7.80353 35.0397 7.80353C36.182 7.80353 36.9781 8.18512 36.9781 8.5277C36.9781 8.87028 36.182 9.25187 35.0397 9.25187Z" fill="#1B1B1B"/>
<path d="M40.2288 0.630104L40.1166 0.437479C39.974 0.192432 39.6862 0.0400391 39.365 0.0400391H30.7134C30.3921 0.0400391 30.1038 0.192432 29.9618 0.437479L29.8496 0.630713C29.7893 0.73495 29.7886 0.854426 29.8484 0.958663C29.9185 1.07997 30.0581 1.15555 30.2135 1.15555H39.8648C40.0197 1.15555 40.1599 1.07997 40.23 0.958663C40.2897 0.854426 40.2897 0.73495 40.2288 0.630713V0.630104Z" fill="#1B1B1B"/>
<path d="M27.2053 25.7316V26.24C27.2053 27.4408 28.1825 28.418 29.3833 28.418H40.6177C41.8186 28.418 42.7957 27.4408 42.7957 26.24V25.7316H27.2053Z" fill="#1B1B1B"/>
<path d="M40.7672 8.53864H29.3121C28.1552 8.53864 27.217 9.47676 27.217 10.6337V25.8389C27.217 26.1345 27.4572 26.3747 27.7529 26.3747H28.6081C28.7081 26.3747 28.7891 26.457 28.7867 26.5569L28.7782 26.93C28.7757 27.0428 28.8086 27.1537 28.8732 27.2464C29.0512 27.5042 29.4273 28.0418 29.6316 28.2899C29.7333 28.4137 29.8845 28.4844 30.0448 28.4844H40.065C40.2234 28.4844 40.3734 28.4143 40.4752 28.2936C40.6855 28.0431 41.0445 27.4914 41.2073 27.2366C41.2628 27.15 41.292 27.0489 41.2914 26.9465L41.2896 26.5539C41.2896 26.4551 41.3694 26.3747 41.4682 26.3747H42.3271C42.6227 26.3747 42.8629 26.1345 42.8629 25.8389V10.6337C42.8629 9.47676 41.9248 8.53864 40.7678 8.53864H40.7672Z" fill="#FF5C00"/>
<path d="M28.9597 11.0129C28.9597 10.4448 29.4206 9.98456 29.9881 9.98456H40.0905C40.6586 9.98456 41.1188 10.4454 41.1188 11.0129V11.3585H28.9597V11.0129Z" fill="#FFF3E0"/>
<path d="M28.0862 30.0095C28.7518 30.0095 29.2913 29.47 29.2913 28.8044C29.2913 28.1389 28.7518 27.5993 28.0862 27.5993C27.4207 27.5993 26.8811 28.1389 26.8811 28.8044C26.8811 29.47 27.4207 30.0095 28.0862 30.0095Z" fill="#1B1B1B"/>
<path d="M28.2686 28.652H27.9041V28.9568H28.2686V28.652Z" fill="#D9D9D9"/>
<path d="M41.9136 30.0096C42.5792 30.0096 43.1187 29.4701 43.1187 28.8045C43.1187 28.1389 42.5792 27.5994 41.9136 27.5994C41.248 27.5994 40.7085 28.1389 40.7085 28.8045C40.7085 29.4701 41.248 30.0096 41.9136 30.0096Z" fill="#1B1B1B"/>
<path d="M42.096 28.6521H41.7314V28.9569H42.096V28.6521Z" fill="#D9D9D9"/>
<path d="M40.1386 26.724C40.1386 27.2921 39.7351 27.7524 39.237 27.7524H30.8762C30.3781 27.7524 29.9746 27.2915 29.9746 26.724V26.3784H40.1392V26.724H40.1386Z" fill="#E25506"/>
<path d="M55.9694 20.6493H74.0309C74.5957 20.6493 75.0542 21.1078 75.0542 21.6727V26.4137C75.0542 26.9785 74.5957 27.437 74.0309 27.437H55.9694C55.4045 27.437 54.946 26.9785 54.946 26.4137V21.6727C54.946 21.1078 55.4045 20.6493 55.9694 20.6493Z" fill="#1B1B1B"/>
<path d="M68.059 0.432419H61.9413C61.3609 0.432419 60.8892 0.928152 60.8892 1.53806V3.36536C60.8892 3.97466 61.3615 4.471 61.9413 4.471H68.059C68.6394 4.471 69.1111 3.97526 69.1111 3.36536V1.53806C69.1111 0.928753 68.6388 0.432419 68.059 0.432419ZM68.1227 1.93765V3.09496C68.1227 3.42245 67.8691 3.68864 67.5578 3.68864H62.4425C62.1306 3.68864 61.8776 3.42245 61.8776 3.09496V1.93765C61.8776 1.61016 62.1312 1.34397 62.4425 1.34397H67.5578C67.8691 1.34397 68.1227 1.61016 68.1227 1.93765Z" fill="#1B1B1B"/>
<path d="M67.2717 0.204666H62.738C62.4662 0.204666 62.2458 0.424999 62.2458 0.696794V1.09819C62.2458 1.36998 62.4662 1.59032 62.738 1.59032H67.2717C67.5435 1.59032 67.7638 1.36998 67.7638 1.09819V0.696794C67.7638 0.424999 67.5435 0.204666 67.2717 0.204666Z" fill="#FF5C00"/>
<path d="M56.2752 27.2694C55.5421 27.2694 54.946 27.8907 54.946 28.655C54.946 29.4193 55.5421 30.0401 56.2752 30.0401C57.0083 30.0401 57.6044 29.4187 57.6044 28.655C57.6044 27.8913 57.0083 27.2694 56.2752 27.2694Z" fill="#1B1B1B"/>
<path d="M56.4806 28.5042H56.0696V28.8046H56.4806V28.5042Z" fill="#D9D9D9"/>
<path d="M73.6138 25.805H74.3691C75.0727 25.805 75.6436 25.2059 75.6436 24.4662V4.28412C75.6436 3.253 74.848 2.41716 73.8661 2.41716H56.1339C55.1526 2.41716 54.3564 3.253 54.3564 4.28412V24.4668C54.3564 25.2059 54.9273 25.8056 55.6309 25.8056H56.4638C57.1746 25.8056 57.5526 25.5214 57.7346 26.5747C57.8446 27.2123 58.3722 27.6762 58.9887 27.6762H71.0341C71.6404 27.6762 72.1632 27.2279 72.2828 26.6036C72.4859 25.5472 72.8957 25.8056 73.6132 25.8056L73.6138 25.805Z" fill="#FF5C00"/>
<path d="M62.4829 2.41716V27.6756H67.5172V2.41716H62.7509" fill="#E25506"/>
<path d="M73.7249 27.2694C72.9918 27.2694 72.3958 27.8907 72.3958 28.655C72.3958 29.4193 72.9918 30.0401 73.7249 30.0401C74.458 30.0401 75.0541 29.4187 75.0541 28.655C75.0541 27.8913 74.458 27.2694 73.7249 27.2694Z" fill="#1B1B1B"/>
<path d="M73.9305 28.5042H73.5195V28.8046H73.9305V28.5042Z" fill="#D9D9D9"/>
<path d="M61.9016 5.46184H61.5356V5.88246H61.9016V5.46184Z" fill="#E25506"/>
<path d="M60.1728 5.46188H59.8069V5.88251H60.1728V5.46188Z" fill="#E25506"/>
<path d="M70.1933 5.46182H69.8274V5.88245H70.1933V5.46182Z" fill="#E25506"/>
<path d="M68.4646 5.46187H68.0986V5.88249H68.4646V5.46187Z" fill="#E25506"/>
<path d="M73.866 2.41719H56.1338C56.0328 2.41719 55.9343 2.4262 55.8381 2.44363H74.1611C74.0649 2.4268 73.9664 2.41719 73.8654 2.41719H73.866Z" fill="#FF5C00"/>
<path d="M54.364 7.23514C54.364 7.61189 54.6663 7.91775 55.04 7.91775H56.0159C57.1185 7.91775 58.012 7.36553 58.012 5.61694V4.55877C58.012 4.08948 58.2518 3.70912 58.5474 3.70912H71.4521C71.7478 3.70912 71.9875 4.08948 71.9875 4.55877V5.61694C71.9875 7.36553 72.881 7.91835 73.9837 7.91835H74.9595C75.3327 7.91835 75.6355 7.6125 75.6355 7.23574V4.32743C75.6355 4.25412 75.6355 4.18142 75.6355 4.10991C75.561 3.26446 74.9487 2.58245 74.1615 2.44424H55.8386C55.0514 2.58245 54.4397 3.26446 54.3646 4.10991C54.3646 4.18142 54.3646 4.25352 54.3646 4.32743V7.23574L54.364 7.23514Z" fill="#FFECB7"/>
<path d="M66.0118 10.2251H64.0475C63.7278 10.2251 63.467 9.96494 63.467 9.64466V6.23822C63.467 5.91855 63.7272 5.65776 64.0475 5.65776H66.0118C66.3315 5.65776 66.5923 5.91795 66.5923 6.23822V9.64466C66.5923 9.96434 66.3321 10.2251 66.0118 10.2251ZM64.0475 5.83863C63.827 5.83863 63.6473 6.01829 63.6473 6.23882V9.64526C63.6473 9.86579 63.827 10.0455 64.0475 10.0455H66.0118C66.2323 10.0455 66.412 9.86579 66.412 9.64526V6.23882C66.412 6.01829 66.2323 5.83863 66.0118 5.83863H64.0475Z" fill="#B6B6B6"/>
<path d="M65.0299 0.0400391C64.8641 0.0400391 64.7295 0.174638 64.7295 0.340484V1.44011C64.7295 1.56329 64.804 1.66905 64.9098 1.71532V5.74849H65.1501V1.71532C65.2559 1.66905 65.3304 1.56329 65.3304 1.44011V0.340484C65.3304 0.174638 65.1958 0.0400391 65.0299 0.0400391Z" fill="#B6B6B6"/>
<path d="M63.6179 6.29893V9.58459C63.6179 9.85539 63.8374 10.0749 64.1082 10.0749H65.9518C66.2226 10.0749 66.4421 9.85539 66.4421 9.58459V6.29893C66.4421 6.02813 66.2226 5.80861 65.9518 5.80861H64.1082C63.8374 5.80861 63.6179 6.02813 63.6179 6.29893Z" fill="#E9E9E9"/>
<path d="M65.7815 6.58971H64.2793V6.76997H65.7815V6.58971Z" fill="#B6B6B6"/>
<path d="M65.7815 7.43095H64.2793V7.61122H65.7815V7.43095Z" fill="#B6B6B6"/>
<path d="M65.7815 8.27223H64.2793V8.4525H65.7815V8.27223Z" fill="#B6B6B6"/>
<path d="M65.7815 9.11346H64.2793V9.29373H65.7815V9.11346Z" fill="#B6B6B6"/>
<g clip-path="url(#clip0_4315_113194)">
<path d="M107.374 13.3198C106.764 13.4772 106.141 13.1065 105.985 12.4924C105.544 10.7623 104.644 9.19231 103.382 7.95099C100.937 5.54707 97.5032 4.62067 94.1956 5.47293C89.021 6.80611 85.8896 12.125 87.2153 17.3291C87.3718 17.9432 87.0032 18.5691 86.3926 18.7266C85.782 18.8841 85.1596 18.5134 85.0031 17.8993C83.3656 11.4676 87.2348 4.89558 93.6294 3.24813C95.6576 2.72523 97.7909 2.74557 99.7976 3.30653C101.743 3.85042 103.534 4.88836 104.979 6.30879C106.54 7.84404 107.653 9.78541 108.197 11.9223C108.353 12.5364 107.985 13.1623 107.374 13.3198Z" fill="#FF5C00"/>
<path d="M109.493 10.5436L87.5031 14.7463C87.3091 14.7834 87.1817 14.9716 87.2186 15.1666L89.3014 26.1892C89.3383 26.3842 89.5254 26.5123 89.7194 26.4753L111.709 22.2725C111.903 22.2355 112.031 22.0473 111.994 21.8522L109.911 10.8297C109.874 10.6346 109.687 10.5065 109.493 10.5436Z" fill="#D9D9D9"/>
<path d="M99.607 22.0897C101.574 22.0897 103.168 20.4862 103.168 18.5081C103.168 16.5301 101.574 14.9265 99.607 14.9265C97.6401 14.9265 96.0457 16.5301 96.0457 18.5081C96.0457 20.4862 97.6401 22.0897 99.607 22.0897Z" fill="#969696"/>
<path d="M99.6585 20.4646L99.6317 20.3012C99.1359 20.2619 98.7732 19.9227 98.7106 19.5349C98.689 19.4024 98.7895 19.281 98.9311 19.258C99.0733 19.2351 99.2064 19.3178 99.2279 19.4503C99.2612 19.6543 99.3727 19.7987 99.5521 19.8111L99.3512 18.5711L99.3062 18.5521C99.2233 18.5239 99.1627 18.5022 99.117 18.478C98.7667 18.31 98.5168 18.0836 98.4574 17.7162C98.3831 17.257 98.659 16.9027 99.0537 16.7334L99.0381 16.6363C99.0172 16.5084 99.1176 16.3877 99.2546 16.3653C99.4021 16.3411 99.5352 16.4244 99.5554 16.5517L99.571 16.6488C100.024 16.6796 100.405 16.9106 100.477 17.3547C100.498 17.4827 100.398 17.6034 100.255 17.627C100.108 17.6513 99.9749 17.568 99.9546 17.4407C99.9292 17.2826 99.8379 17.1717 99.6526 17.1494L99.8307 18.2516L100.014 18.3212C100.452 18.4852 100.728 18.7752 100.798 19.2095C100.878 19.6996 100.563 20.0709 100.149 20.2218L100.174 20.38C100.195 20.5079 100.095 20.6286 99.9475 20.6529C99.8105 20.6752 99.6774 20.5925 99.6565 20.4646H99.6585ZM99.299 18.0502L99.1542 17.1572C98.982 17.2852 98.9187 17.442 98.948 17.6204C98.9859 17.8553 99.1268 17.9524 99.299 18.0502ZM99.9201 18.7975L100.075 19.7521C100.236 19.6576 100.318 19.487 100.287 19.2928C100.252 19.0783 100.159 18.8946 99.9201 18.7975Z" fill="#FF5C00"/>
<path d="M89.2578 19.1242C89.1195 19.1242 88.9962 19.0258 88.9695 18.8841L88.6237 17.0549C88.6094 16.9781 88.6257 16.8981 88.6694 16.8338C88.7131 16.7688 88.781 16.7242 88.8573 16.7098C89.1972 16.6448 89.492 16.4506 89.6864 16.1626C89.8809 15.8746 89.9526 15.5282 89.888 15.1857C89.8737 15.1089 89.89 15.0289 89.9337 14.9646C89.9774 14.8996 90.0453 14.855 90.1216 14.8406L91.6834 14.5421C91.8425 14.5119 91.9965 14.6169 92.0265 14.7769C92.0565 14.937 91.9521 15.0919 91.793 15.1221L90.4973 15.3694C90.5104 15.7676 90.3988 16.1587 90.1718 16.4946C89.9448 16.8305 89.6238 17.0785 89.2507 17.2124L89.5455 18.7738C89.5755 18.9339 89.4712 19.0888 89.312 19.119C89.2937 19.1222 89.2748 19.1242 89.2565 19.1242H89.2578Z" fill="white"/>
<path d="M109.326 15.1535C109.188 15.1535 109.064 15.0551 109.038 14.9134L108.792 13.6104C107.979 13.6367 107.234 13.1275 106.96 12.3566L105.407 12.6532C105.248 12.684 105.094 12.5784 105.064 12.4183C105.034 12.2582 105.138 12.1034 105.298 12.0732L107.116 11.7255C107.276 11.6953 107.429 11.8003 107.459 11.9604C107.593 12.6663 108.272 13.1315 108.975 12.9976C109.134 12.9675 109.288 13.0724 109.318 13.2325L109.615 14.8032C109.645 14.9633 109.541 15.1181 109.381 15.1483C109.363 15.1516 109.344 15.1535 109.327 15.1535H109.326Z" fill="white"/>
<path d="M107.475 22.4801C107.336 22.4801 107.213 22.3817 107.186 22.24C107.156 22.0799 107.261 21.925 107.42 21.8949L108.715 21.6475C108.689 20.8294 109.196 20.0814 109.962 19.8052L109.667 18.2437C109.637 18.0836 109.742 17.9288 109.901 17.8986C110.061 17.8684 110.214 17.9734 110.244 18.1335L110.59 19.9627C110.62 20.1228 110.515 20.2776 110.356 20.3078C109.654 20.4416 109.192 21.1253 109.325 21.8319C109.355 21.992 109.25 22.1468 109.091 22.177L107.529 22.4755C107.511 22.4788 107.492 22.4808 107.475 22.4808V22.4801Z" fill="white"/>
<path d="M92.0427 25.296C91.984 25.296 91.9266 25.2783 91.8776 25.2449C91.813 25.2009 91.7687 25.1327 91.7543 25.0559C91.6897 24.7141 91.4966 24.4175 91.2103 24.222C90.9239 24.0258 90.5788 23.9537 90.2389 24.0193C90.1625 24.0337 90.083 24.0173 90.019 23.9734C89.9544 23.9294 89.9101 23.8612 89.8957 23.7844L89.5989 22.2137C89.5689 22.0536 89.6733 21.8988 89.8324 21.8686C89.9916 21.8384 90.1456 21.9434 90.1756 22.1035L90.4215 23.4065C90.8175 23.3934 91.2063 23.5056 91.5404 23.7339C91.8744 23.9622 92.121 24.285 92.254 24.6603L93.806 24.3637C93.9652 24.3336 94.1192 24.4385 94.1492 24.5986C94.1792 24.7587 94.0748 24.9135 93.9156 24.9437L92.0968 25.2914C92.0786 25.2947 92.0603 25.2967 92.042 25.2967L92.0427 25.296Z" fill="white"/>
<path d="M106.69 8.36505L85.4916 15.5936C85.3047 15.6573 85.2045 15.8615 85.2679 16.0495L88.8502 26.6751C88.9136 26.8632 89.1166 26.9639 89.3036 26.9002L110.502 19.6717C110.689 19.6079 110.789 19.4038 110.726 19.2157L107.143 8.5901C107.08 8.40204 106.877 8.30129 106.69 8.36505Z" fill="#D9D9D9"/>
<path d="M97.9968 21.2132C99.9637 21.2132 101.558 19.6097 101.558 17.6316C101.558 15.6535 99.9637 14.05 97.9968 14.05C96.03 14.05 94.4355 15.6535 94.4355 17.6316C94.4355 19.6097 96.03 21.2132 97.9968 21.2132Z" fill="#969696"/>
<path d="M98.3179 19.5618L98.2689 19.4037C97.7725 19.4339 97.3667 19.1485 97.2512 18.7732C97.2114 18.6446 97.2943 18.5108 97.4319 18.4681C97.5696 18.4255 97.7131 18.4891 97.7523 18.6171C97.8129 18.8145 97.9441 18.9418 98.1228 18.9293L97.7529 17.7287L97.7059 17.7162C97.6198 17.6998 97.5572 17.6867 97.5083 17.6697C97.1384 17.5522 96.8592 17.3633 96.7496 17.007C96.6126 16.5622 96.837 16.1731 97.2049 15.9507L97.1762 15.8569C97.1384 15.7335 97.2206 15.5997 97.3537 15.5584C97.4959 15.5137 97.6394 15.5774 97.6772 15.7007L97.7059 15.7946C98.1587 15.7617 98.5684 15.9376 98.7002 16.3673C98.738 16.4907 98.6558 16.6245 98.5181 16.6678C98.3759 16.7124 98.2324 16.6488 98.1946 16.5248C98.1476 16.3719 98.0419 16.2742 97.8553 16.2787L98.1841 17.3455L98.3753 17.3889C98.8319 17.4905 99.1451 17.7392 99.2742 18.1591C99.4204 18.6335 99.1594 19.0448 98.7713 19.2521L98.8182 19.405C98.8561 19.5284 98.7739 19.6622 98.631 19.7068C98.4986 19.7481 98.355 19.6845 98.3172 19.5612L98.3179 19.5618ZM97.629 17.2209L97.3628 16.3562C97.2101 16.5064 97.169 16.6711 97.2225 16.8436C97.2923 17.0706 97.4456 17.1474 97.629 17.2202V17.2209ZM98.3472 17.8744L98.6317 18.7981C98.7791 18.682 98.8365 18.5016 98.7784 18.3139C98.7145 18.1066 98.5977 17.9373 98.3472 17.8744Z" fill="white"/>
<path d="M87.7917 19.6871C87.6691 19.6871 87.5549 19.6097 87.5138 19.4864L86.9195 17.7235C86.8673 17.5693 86.9495 17.4013 87.1035 17.3488C87.78 17.1179 88.144 16.3765 87.9144 15.6961C87.8896 15.622 87.8948 15.5406 87.9294 15.4704C87.964 15.4002 88.0246 15.3464 88.0983 15.3215L89.604 14.8084C89.758 14.756 89.9243 14.8386 89.9765 14.9935C90.0287 15.1476 89.9465 15.3156 89.7926 15.3681L88.5433 15.7939C88.6816 16.6002 88.2836 17.4125 87.5627 17.7923L88.0703 19.2974C88.1225 19.4516 88.0403 19.6196 87.8863 19.672C87.855 19.6825 87.823 19.6878 87.7917 19.6878V19.6871Z" fill="white"/>
<path d="M107.12 12.957C106.997 12.957 106.883 12.8795 106.842 12.7562L106.418 11.5004C106.028 11.5687 105.628 11.5116 105.266 11.3318C104.904 11.1521 104.615 10.8673 104.431 10.5143L102.935 11.0248C102.781 11.0773 102.615 10.9946 102.562 10.8398C102.51 10.6856 102.592 10.5176 102.746 10.4651L104.499 9.86744C104.653 9.81495 104.82 9.89762 104.872 10.0525C104.983 10.3818 105.215 10.6488 105.525 10.8024C105.836 10.9565 106.188 10.9802 106.515 10.868C106.589 10.843 106.67 10.8483 106.739 10.8831C106.809 10.9178 106.863 10.9789 106.888 11.053L107.398 12.5672C107.45 12.7214 107.368 12.8894 107.214 12.9419C107.182 12.9524 107.15 12.9576 107.119 12.9576L107.12 12.957Z" fill="white"/>
<path d="M106.296 20.4705C106.173 20.4705 106.059 20.3931 106.018 20.2697C105.966 20.1156 106.048 19.9476 106.202 19.8951L107.451 19.4693C107.383 19.077 107.439 18.6741 107.618 18.31C107.797 17.9459 108.08 17.6552 108.431 17.4709L107.923 15.9658C107.871 15.8116 107.953 15.6436 108.107 15.5912C108.261 15.5387 108.428 15.6213 108.48 15.7762L109.074 17.5391C109.099 17.6132 109.094 17.6946 109.059 17.7648C109.025 17.835 108.964 17.8888 108.89 17.9137C108.562 18.0253 108.297 18.2588 108.144 18.5711C107.991 18.8834 107.968 19.2371 108.079 19.5664C108.104 19.6405 108.098 19.7219 108.064 19.7921C108.029 19.8623 107.968 19.9161 107.895 19.941L106.389 20.4541C106.358 20.4646 106.326 20.4698 106.294 20.4698L106.296 20.4705Z" fill="white"/>
<path d="M91.4002 25.4115C91.3558 25.4115 91.3108 25.401 91.2703 25.3813C91.2005 25.3466 91.147 25.2855 91.1222 25.2114C91.0113 24.8814 90.7791 24.615 90.4686 24.4608C90.158 24.3067 89.8064 24.2837 89.4789 24.3952C89.4052 24.4202 89.3243 24.4149 89.2545 24.3801C89.1847 24.3454 89.1312 24.2843 89.1064 24.2102L88.5963 22.696C88.5441 22.5418 88.6263 22.3738 88.7802 22.3213C88.9342 22.2688 89.1005 22.3515 89.1527 22.5063L89.5761 23.7621C89.9669 23.6939 90.3668 23.7509 90.7289 23.9307C91.0909 24.1105 91.3799 24.3952 91.5633 24.7482L93.0598 24.2378C93.2138 24.1853 93.3801 24.2679 93.4323 24.4228C93.4845 24.577 93.4023 24.7449 93.2483 24.7974L91.4954 25.3951C91.4647 25.4056 91.4328 25.4109 91.4008 25.4109L91.4002 25.4115Z" fill="white"/>
<path d="M102.801 5.95353L83.115 16.6673C82.9413 16.7618 82.8767 16.9799 82.9707 17.1546L88.2803 27.0222C88.3742 27.1968 88.5912 27.2618 88.7648 27.1673L108.451 16.4536C108.624 16.359 108.689 16.1409 108.595 15.9662L103.285 6.09862C103.191 5.92398 102.975 5.85902 102.801 5.95353Z" fill="#D9D9D9"/>
<path d="M95.7835 20.1405C97.7503 20.1405 99.3448 18.537 99.3448 16.5589C99.3448 14.5808 97.7503 12.9773 95.7835 12.9773C93.8166 12.9773 92.2222 14.5808 92.2222 16.5589C92.2222 18.537 93.8166 20.1405 95.7835 20.1405Z" fill="#969696"/>
<path d="M96.3371 18.3036L96.1895 17.9462C95.9804 18.0131 95.7703 18.0464 95.5593 18.0459C95.35 18.0416 95.1511 18.0037 94.9627 17.9323L95.0913 17.4074C95.396 17.5248 95.6974 17.5478 95.9956 17.4766L95.7192 16.8075L95.4759 16.8545C95.1838 16.9167 94.9555 16.9137 94.7911 16.8454C94.6267 16.7771 94.4999 16.6349 94.4106 16.4188C94.342 16.2525 94.3212 16.0924 94.3485 15.9385C94.3785 15.7834 94.4526 15.6409 94.5708 15.511C94.6918 15.3799 94.8509 15.2705 95.0481 15.1825L94.9057 14.8376L95.1841 14.7226L95.3317 15.08C95.5076 15.0268 95.6901 14.9936 95.8792 14.9804C96.0684 14.9671 96.2525 14.9771 96.4315 15.0101L96.3707 15.5461C96.2084 15.5223 96.058 15.5114 95.9194 15.5135C95.7808 15.5156 95.6507 15.5304 95.5291 15.5579L95.802 16.2187L96.0377 16.1652C96.3515 16.1004 96.5962 16.0999 96.7717 16.1637C96.9488 16.2235 97.0797 16.3559 97.1644 16.5609C97.2319 16.7244 97.2485 16.8862 97.2141 17.0464C97.1813 17.2026 97.1022 17.3488 96.9768 17.4849C96.8514 17.621 96.6829 17.7392 96.4714 17.8396L96.6156 18.1887L96.3371 18.3036ZM95.5098 16.3005L95.2421 15.6522C95.1086 15.7138 95.0104 15.79 94.9474 15.8809C94.8871 15.9706 94.8765 16.0626 94.9154 16.1568C94.9428 16.2233 94.9782 16.2736 95.0214 16.3076C95.0663 16.3377 95.123 16.3532 95.1915 16.3541C95.2599 16.355 95.3475 16.3432 95.4541 16.3186L95.5098 16.3005ZM96.2826 17.3824C96.4276 17.3095 96.5325 17.2257 96.5971 17.1309C96.6633 17.0322 96.6765 16.9343 96.6364 16.8374C96.6101 16.7736 96.5765 16.7275 96.5355 16.699C96.4973 16.6694 96.4412 16.6553 96.3672 16.6567C96.2932 16.658 96.1945 16.6745 96.0713 16.7059L96.008 16.7174L96.2826 17.3824Z" fill="white"/>
<path d="M86.0188 20.317C85.9144 20.317 85.8133 20.2612 85.7605 20.1621L84.8791 18.5252C84.8419 18.4563 84.8335 18.3756 84.8556 18.3002C84.8778 18.2254 84.9287 18.1617 84.9972 18.125C85.6254 17.7832 85.8603 16.9906 85.5197 16.3581C85.4428 16.2144 85.4956 16.0353 85.6385 15.9579L87.0365 15.1969C87.1787 15.1194 87.3575 15.1726 87.4345 15.3163C87.5114 15.4599 87.4586 15.6391 87.3157 15.7165L86.1558 16.3476C86.4272 17.1192 86.1708 17.9865 85.5237 18.4832L86.2758 19.8807C86.3528 20.0244 86.3 20.2035 86.1571 20.2809C86.1128 20.3052 86.0651 20.3163 86.0175 20.3163L86.0188 20.317Z" fill="white"/>
<path d="M103.944 10.41C103.84 10.41 103.739 10.3542 103.686 10.2552L103.058 9.08864C102.685 9.22249 102.281 9.23364 101.894 9.11751C101.507 9.00138 101.174 8.76978 100.935 8.45289L99.5451 9.20937C99.4029 9.28678 99.2241 9.23364 99.1472 9.08996C99.0702 8.94627 99.123 8.76716 99.2659 8.68974L100.894 7.80336C100.962 7.76597 101.042 7.75744 101.117 7.77975C101.192 7.80205 101.255 7.85323 101.292 7.92212C101.457 8.22851 101.73 8.45158 102.061 8.55065C102.393 8.64972 102.744 8.61364 103.048 8.44764C103.116 8.41025 103.196 8.40237 103.271 8.42403C103.346 8.44633 103.409 8.49751 103.446 8.5664L104.202 9.9724C104.279 10.1161 104.227 10.2952 104.084 10.3726C104.039 10.3969 103.992 10.408 103.944 10.408V10.41Z" fill="white"/>
<path d="M104.39 17.9557C104.286 17.9557 104.185 17.8999 104.132 17.8009C104.055 17.6572 104.108 17.4781 104.251 17.4007L105.41 16.7695C105.277 16.3942 105.266 15.9874 105.382 15.5984C105.497 15.2093 105.727 14.8747 106.043 14.6339L105.29 13.2365C105.213 13.0928 105.266 12.9137 105.409 12.8362C105.551 12.7588 105.73 12.812 105.807 12.9556L106.688 14.5926C106.726 14.6615 106.734 14.7422 106.712 14.8176C106.69 14.8924 106.639 14.9561 106.57 14.9928C106.266 15.1588 106.044 15.4337 105.945 15.767C105.847 16.1003 105.883 16.4533 106.048 16.759C106.125 16.9027 106.072 17.0818 105.929 17.1592L104.531 17.9203C104.487 17.9446 104.439 17.9557 104.391 17.9557H104.39Z" fill="white"/>
<path d="M90.5345 25.3485C90.5064 25.3485 90.4784 25.3446 90.451 25.3361C90.3766 25.3138 90.3133 25.2626 90.2768 25.1937C90.1118 24.8873 89.8384 24.6642 89.507 24.5652C89.1749 24.4661 88.8246 24.5022 88.5206 24.6682C88.4521 24.7056 88.3719 24.7141 88.2969 24.6918C88.2225 24.6695 88.1592 24.6183 88.1227 24.5494L87.3659 23.1434C87.2889 22.9997 87.3418 22.8206 87.4846 22.7432C87.6269 22.6658 87.8056 22.7189 87.8826 22.8626L88.5102 24.0285C88.8833 23.8953 89.2878 23.8835 89.6747 23.9996C90.0615 24.1157 90.3942 24.3473 90.6337 24.6642L92.0232 23.9078C92.1661 23.8303 92.3442 23.8835 92.4212 24.0272C92.4981 24.1708 92.4453 24.35 92.3024 24.4274L90.6748 25.3138C90.6317 25.3374 90.5834 25.3492 90.5351 25.3492L90.5345 25.3485Z" fill="white"/>
<path d="M86.5229 19.3781C86.2 19.4614 85.8445 19.4024 85.5568 19.1865L82.4599 16.8653C81.9544 16.4861 81.85 15.767 82.2271 15.2585C82.6041 14.7501 83.3191 14.6451 83.8247 15.0243L86.0056 16.6593L87.6796 14.4004C88.0567 13.8919 88.7717 13.7869 89.2772 14.1661C89.7828 14.5454 89.8872 15.2644 89.5101 15.7729L87.1538 18.9523C86.9913 19.1714 86.7663 19.3151 86.5223 19.3781H86.5229Z" fill="#FF5C00"/>
<path d="M86.5205 19.3775C85.9451 19.5257 85.3456 19.2036 85.1557 18.6282C85.1199 18.5199 84.2874 15.9481 84.7767 13.0396C84.8817 12.4144 85.4715 11.9932 86.0932 12.0994C86.7149 12.2051 87.1337 12.7982 87.028 13.4234C86.636 15.7506 87.3164 17.8862 87.3236 17.9078C87.5186 18.5094 87.1937 19.1583 86.5962 19.3565C86.5714 19.365 86.5459 19.3722 86.5212 19.3788L86.5205 19.3775Z" fill="#FF5C00"/>
</g>
<defs>
<clipPath id="clip0_4315_113194">
<rect width="30" height="24.3396" fill="white" transform="translate(82.0007 2.87024)"/>
</clipPath>
</defs>
</svg>
