<svg id="Layer_1" data-name="Layer 1" xmlns="http://www.w3.org/2000/svg" viewBox="0 0 51 35"><defs><style>.cls-1{fill:#0079be;}.cls-2{fill:#fff;}.cls-3{fill:none;}</style></defs><title>Artboard 1</title><path class="cls-1" d="M27.13,27.2c5.3,0,10.1-4.3,10.1-9.6a9.88,9.88,0,0,0-10.1-9.8h-4.6a9.57,9.57,0,0,0-9.8,9.8,9.71,9.71,0,0,0,9.8,9.6Z"/><path class="cls-2" d="M22.63,8.6a8.9,8.9,0,1,0,8.9,8.9A8.92,8.92,0,0,0,22.63,8.6Zm-5.7,8.9h0a5.79,5.79,0,0,1,3.6-5.3V22.7A5.55,5.55,0,0,1,16.93,17.5Zm7.7,5.2h0V12.2a5.68,5.68,0,0,1,3.6,5.3A5.55,5.55,0,0,1,24.63,22.7Z"/><rect class="cls-3" x="0.2" y="0.2" width="50.67" height="34.61" rx="2.22"/></svg>