<svg width="36" height="34" viewBox="0 0 36 34" fill="none" xmlns="http://www.w3.org/2000/svg">
<g clip-path="url(#clip0_1281_70443)">
<path d="M26.1505 34.0001C31.2462 34.0001 35.3771 29.8692 35.3771 24.7735C35.3771 19.6778 31.2462 15.5469 26.1505 15.5469C21.0547 15.5469 16.9238 19.6778 16.9238 24.7735C16.9238 29.8692 21.0547 34.0001 26.1505 34.0001Z" fill="#FFB300"/>
<path d="M8.59261 28.8653C12.0555 30.8503 16.2081 31.4443 20.0853 30.4822C23.2729 29.6882 26.1707 27.8568 28.26 25.3241C30.3494 22.7915 31.636 19.5198 31.7896 16.1815C31.9432 12.8433 30.9724 9.40937 29.0367 6.63616C27.1009 3.86296 24.4465 1.89245 21.3459 0.83185C18.2452 -0.228748 14.5476 -0.272215 11.3281 0.83185C8.22749 1.89535 5.51514 3.94989 3.63736 6.63616C1.65815 9.46443 0.690283 12.936 0.890232 16.3786C1.01484 18.4998 1.57701 20.5833 2.53909 22.4785C2.56517 22.5306 2.69267 22.7248 2.68687 22.6755C2.68687 22.6987 2.66659 22.7277 2.66079 22.7509C2.64631 22.8552 2.59125 22.9653 2.55937 23.0638L2.18266 24.2201C1.50457 26.3036 0.82648 28.3871 0.151291 30.4706L0.0035025 30.9198C-0.0370668 31.0473 0.0962324 31.1864 0.226634 31.1429C1.97401 30.5634 3.72139 29.9838 5.46877 29.4072L6.23379 29.1521C6.45403 29.0797 6.3584 28.7291 6.13817 28.8015C4.39079 29.3811 2.64341 29.9606 0.896028 30.5373L0.131006 30.7923L0.354137 31.0154C0.878641 29.3985 1.40604 27.7844 1.93055 26.1674C2.23482 25.2285 2.54198 24.2896 2.84625 23.3507C2.90421 23.1711 3.01143 22.9595 3.03461 22.7712C3.06359 22.5307 2.81728 22.2322 2.71295 22.0177C2.47823 21.5309 2.26959 21.0325 2.08993 20.5254C0.838072 16.9929 0.948189 13.0345 2.40868 9.58324C3.66923 6.60719 5.89185 4.0745 8.67665 2.43434C11.5513 0.750712 14.9417 0.0668286 18.2452 0.478318C21.4995 0.884011 24.5769 2.38797 26.9184 4.68594C29.2598 6.9839 30.7898 9.98603 31.2796 13.2142C31.7693 16.4424 31.1434 19.9951 29.4858 22.9161C27.892 25.7211 25.4086 27.9727 22.4615 29.2854C19.0595 30.801 15.1214 30.9836 11.586 29.8157C10.6095 29.4941 9.6706 29.0652 8.77807 28.5552C8.57522 28.4393 8.39266 28.7522 8.59551 28.8682L8.59261 28.8653Z" fill="url(#paint0_radial_1281_70443)"/>
<path d="M22.7798 23.2318H6.6767L6.85637 23.4114V11.6173C6.85637 11.3855 6.49414 11.3826 6.49414 11.6173V23.4114C6.49414 23.51 6.57818 23.5911 6.67381 23.5911H22.7769C23.0088 23.5911 23.0117 23.2289 22.7769 23.2289L22.7798 23.2318Z" fill="url(#paint1_radial_1281_70443)"/>
<path d="M9.17105 11.7998H25.3872L25.2075 11.6201V23.4142C25.2075 23.646 25.5698 23.6489 25.5698 23.4142V11.6201C25.5698 11.5216 25.4857 11.4404 25.3901 11.4404H9.17105C8.93923 11.4404 8.93633 11.8027 9.17105 11.8027V11.7998Z" fill="url(#paint2_radial_1281_70443)"/>
<path d="M6.54883 11.7478C9.23221 13.9357 11.9156 16.1206 14.5989 18.3085C14.9757 18.6156 15.3553 18.9228 15.732 19.2329C15.816 19.2995 15.903 19.2995 15.987 19.2329C18.7718 17.045 21.5566 14.8572 24.3414 12.6693C24.7326 12.3621 25.1238 12.055 25.5121 11.7478C25.6947 11.6029 25.4368 11.3479 25.2571 11.4928C22.4723 13.6807 19.6875 15.8685 16.9027 18.0563C16.5115 18.3635 16.1203 18.6707 15.732 18.9778H15.987C13.3036 16.79 10.6203 14.6051 7.93688 12.4172C7.56017 12.11 7.18056 11.8029 6.80384 11.4928C6.62418 11.3479 6.36627 11.6029 6.54883 11.7478Z" fill="url(#paint3_radial_1281_70443)"/>
<path d="M6.8046 23.5418C8.31146 22.0349 9.81542 20.5309 11.3223 19.0241C11.5367 18.8096 11.7512 18.5952 11.9656 18.3808C12.1308 18.2156 11.8758 17.9606 11.7106 18.1258C10.2037 19.6326 8.69976 21.1366 7.1929 22.6434C6.97847 22.8579 6.76403 23.0723 6.54959 23.2868C6.38442 23.4519 6.63942 23.7069 6.8046 23.5418Z" fill="url(#paint4_radial_1281_70443)"/>
<path d="M19.9285 18.3808C21.4354 19.8876 22.9393 21.3916 24.4462 22.8985C24.6606 23.1129 24.8751 23.3273 25.0895 23.5418C25.2547 23.7069 25.5097 23.4519 25.3445 23.2868C23.8376 21.7799 22.3337 20.2759 20.8268 18.7691C20.6124 18.5546 20.3979 18.3402 20.1835 18.1258C20.0183 17.9606 19.7633 18.2156 19.9285 18.3808Z" fill="url(#paint5_radial_1281_70443)"/>
<path d="M16.015 5.4596C16.4407 5.4596 16.7858 5.1145 16.7858 4.68879C16.7858 4.26308 16.4407 3.91797 16.015 3.91797C15.5892 3.91797 15.2441 4.26308 15.2441 4.68879C15.2441 5.1145 15.5892 5.4596 16.015 5.4596Z" fill="url(#paint6_radial_1281_70443)"/>
<path d="M13.5423 8.99183C13.968 8.99183 14.3131 8.64672 14.3131 8.22101C14.3131 7.7953 13.968 7.4502 13.5423 7.4502C13.1166 7.4502 12.7715 7.7953 12.7715 8.22101C12.7715 8.64672 13.1166 8.99183 13.5423 8.99183Z" fill="url(#paint7_radial_1281_70443)"/>
<path d="M18.4857 8.99183C18.9114 8.99183 19.2565 8.64672 19.2565 8.22101C19.2565 7.7953 18.9114 7.4502 18.4857 7.4502C18.06 7.4502 17.7148 7.7953 17.7148 8.22101C17.7148 8.64672 18.06 8.99183 18.4857 8.99183Z" fill="url(#paint8_radial_1281_70443)"/>
</g>
<defs>
<radialGradient id="paint0_radial_1281_70443" cx="0" cy="0" r="1" gradientUnits="userSpaceOnUse" gradientTransform="translate(15.9038 15.5788) scale(15.6047 15.6047)">
<stop stop-color="#0F5BAD"/>
<stop offset="0.28" stop-color="#0B5097"/>
<stop offset="0.84" stop-color="#023560"/>
<stop offset="1" stop-color="#002D4F"/>
</radialGradient>
<radialGradient id="paint1_radial_1281_70443" cx="0" cy="0" r="1" gradientUnits="userSpaceOnUse" gradientTransform="translate(14.7239 17.5347) scale(7.06486)">
<stop stop-color="#0F5BAD"/>
<stop offset="0.28" stop-color="#0B5097"/>
<stop offset="0.84" stop-color="#023560"/>
<stop offset="1" stop-color="#002D4F"/>
</radialGradient>
<radialGradient id="paint2_radial_1281_70443" cx="0" cy="0" r="1" gradientUnits="userSpaceOnUse" gradientTransform="translate(17.282 17.4969) scale(7.11412)">
<stop stop-color="#0F5BAD"/>
<stop offset="0.28" stop-color="#0B5097"/>
<stop offset="0.84" stop-color="#023560"/>
<stop offset="1" stop-color="#002D4F"/>
</radialGradient>
<radialGradient id="paint3_radial_1281_70443" cx="0" cy="0" r="1" gradientUnits="userSpaceOnUse" gradientTransform="translate(16.0334 15.3643) scale(7.1489)">
<stop stop-color="#0F5BAD"/>
<stop offset="0.28" stop-color="#0B5097"/>
<stop offset="0.84" stop-color="#023560"/>
<stop offset="1" stop-color="#002D4F"/>
</radialGradient>
<radialGradient id="paint4_radial_1281_70443" cx="0" cy="0" r="1" gradientUnits="userSpaceOnUse" gradientTransform="translate(9.25614 20.8323) scale(2.60513)">
<stop stop-color="#0F5BAD"/>
<stop offset="0.28" stop-color="#0B5097"/>
<stop offset="0.84" stop-color="#023560"/>
<stop offset="1" stop-color="#002D4F"/>
</radialGradient>
<radialGradient id="paint5_radial_1281_70443" cx="0" cy="0" r="1" gradientUnits="userSpaceOnUse" gradientTransform="translate(22.6379 20.8323) scale(2.60513)">
<stop stop-color="#0F5BAD"/>
<stop offset="0.28" stop-color="#0B5097"/>
<stop offset="0.84" stop-color="#023560"/>
<stop offset="1" stop-color="#002D4F"/>
</radialGradient>
<radialGradient id="paint6_radial_1281_70443" cx="0" cy="0" r="1" gradientUnits="userSpaceOnUse" gradientTransform="translate(16.0151 4.69187) rotate(143.72) scale(0.770817)">
<stop stop-color="#0F5BAD"/>
<stop offset="0.28" stop-color="#0B5097"/>
<stop offset="0.84" stop-color="#023560"/>
<stop offset="1" stop-color="#002D4F"/>
</radialGradient>
<radialGradient id="paint7_radial_1281_70443" cx="0" cy="0" r="1" gradientUnits="userSpaceOnUse" gradientTransform="translate(13.5425 8.22434) rotate(143.72) scale(0.770817)">
<stop stop-color="#0F5BAD"/>
<stop offset="0.28" stop-color="#0B5097"/>
<stop offset="0.84" stop-color="#023560"/>
<stop offset="1" stop-color="#002D4F"/>
</radialGradient>
<radialGradient id="paint8_radial_1281_70443" cx="0" cy="0" r="1" gradientUnits="userSpaceOnUse" gradientTransform="translate(18.4884 8.22426) rotate(143.72) scale(0.770817)">
<stop stop-color="#0F5BAD"/>
<stop offset="0.28" stop-color="#0B5097"/>
<stop offset="0.84" stop-color="#023560"/>
<stop offset="1" stop-color="#002D4F"/>
</radialGradient>
<clipPath id="clip0_1281_70443">
<rect width="35.3765" height="34" fill="white"/>
</clipPath>
</defs>
</svg>
