<svg width="148" height="124" viewBox="0 0 148 124" fill="none" xmlns="http://www.w3.org/2000/svg">
<path d="M0.698757 77.6743H0V116.857H0.698757V77.6743Z" fill="black"/>
<path d="M11.8472 77.4385H11.1484V116.617H11.8472V77.4385Z" fill="black"/>
<path d="M5.81454 83.0777C6.29283 83.0777 6.62913 82.988 6.83838 82.8199C7.04764 82.648 7.14853 82.4088 7.14853 82.1099C7.14853 81.7998 7.04764 81.5643 6.84212 81.3999C6.64408 81.2318 6.27415 81.1421 5.74728 81.1421C5.30635 81.1421 4.98126 81.228 4.77574 81.4074C4.57022 81.5868 4.46933 81.8222 4.46933 82.1211C4.46933 82.4088 4.57396 82.6368 4.78322 82.8087C4.98873 82.988 5.33251 83.0777 5.81454 83.0777ZM5.80706 84.5088C5.03731 84.5088 4.43571 84.2921 4.01346 83.8736C3.58375 83.4588 3.36702 82.8722 3.36702 82.1211C3.36702 81.3514 3.58001 80.7647 4.00225 80.3462C4.41702 79.9352 5.01115 79.7222 5.76596 79.7222C6.31899 79.7222 6.77112 79.8081 7.12237 79.9949C7.47362 80.178 7.75013 80.4359 7.94444 80.7759C8.14248 81.1197 8.23963 81.5457 8.23963 82.0651C8.23963 82.5807 8.15743 83.0142 7.98928 83.358C7.81739 83.7017 7.54835 83.9745 7.18589 84.1912C6.8197 84.4005 6.35635 84.5088 5.80706 84.5088ZM4.51418 87.9017H7.09248V87.5505C7.09248 87.2553 7.05885 87.0348 6.99159 86.9153C6.92433 86.7882 6.80475 86.6873 6.6366 86.6163C6.46845 86.5491 6.19941 86.5117 5.82201 86.5117C5.3213 86.5117 4.97752 86.5902 4.79443 86.7508C4.60759 86.9153 4.51791 87.1806 4.51791 87.5505V87.9017H4.51418ZM3.44549 89.3254V87.2067C3.44549 86.792 3.50154 86.4519 3.61737 86.1978C3.73695 85.9362 3.90136 85.727 4.11435 85.5588C4.33482 85.387 4.58517 85.2711 4.86916 85.1964C5.15688 85.1254 5.46329 85.0843 5.78838 85.0843C6.28909 85.0843 6.68144 85.1366 6.95796 85.2524C7.23821 85.3608 7.46614 85.5215 7.65298 85.7195C7.84355 85.9176 7.96686 86.1306 8.03038 86.3622C8.11259 86.6761 8.15743 86.9601 8.15743 87.2142V89.3329H3.44549V89.3254ZM6.36383 91.8215L4.66738 92.3297L6.36383 92.8379V91.8215ZM7.38394 91.5263V93.148L8.15743 93.376V94.8295L3.44549 93.0994V91.5412L8.15743 89.8074V91.3021L7.38394 91.5263ZM3.44549 98.6708V97.2397H6.99906V95.0126H8.15743V98.6708H3.44549ZM3.44549 101.126V99.6947H8.15743V101.126H3.44549ZM6.44977 104.231H5.47076V102.026H7.48483C7.77629 102.452 7.97807 102.826 8.08643 103.147C8.18732 103.476 8.23963 103.857 8.23963 104.302C8.23963 104.848 8.14622 105.3 7.95565 105.64C7.76881 105.987 7.48109 106.26 7.10369 106.451C6.72628 106.637 6.3003 106.731 5.80706 106.731C5.2914 106.731 4.83926 106.63 4.46186 106.417C4.08072 106.211 3.793 105.905 3.59495 105.505C3.44175 105.191 3.36328 104.769 3.36328 104.242C3.36328 103.73 3.41559 103.349 3.50901 103.099C3.59869 102.845 3.74816 102.635 3.9462 102.467C4.14051 102.307 4.3946 102.176 4.70101 102.094L4.95137 103.469C4.77574 103.536 4.63375 103.626 4.54407 103.76C4.44692 103.895 4.40207 104.074 4.40207 104.28C4.40207 104.593 4.51418 104.844 4.73464 105.023C4.9551 105.214 5.31009 105.307 5.79212 105.307C6.3003 105.307 6.6665 105.214 6.88322 105.023C7.09621 104.84 7.20831 104.575 7.20831 104.235C7.20831 104.078 7.18589 103.925 7.13732 103.779C7.09248 103.637 7.01027 103.465 6.89817 103.282H6.45351V104.231H6.44977ZM3.44549 109.01V107.583H8.15743V109.01H3.44549ZM3.44549 114.544V113.046L6.83838 112.011L3.44549 110.987V109.537L8.15743 111.248V112.799L3.44549 114.544Z" fill="black"/>
<path d="M2.47382 2.1299V1.0089L1.50602 1.35641C1.20709 1.46104 0.967943 1.53951 0.78111 1.58808C1.00157 1.62545 1.22577 1.68897 1.44624 1.76371L2.47382 2.1299ZM3.91244 3.07528L0.41118 1.81228V1.34146L3.91244 0V0.493241L2.85122 0.870644V2.24948L3.91244 2.6082V3.07528ZM1.95442 5.58632V4.65215C1.95442 4.45411 1.932 4.29717 1.88716 4.18881C1.84232 4.06923 1.77133 3.9945 1.67417 3.93098C1.58076 3.87119 1.47613 3.8413 1.36029 3.8413C1.19588 3.8413 1.06136 3.90108 0.952997 4.00945C0.84837 4.12528 0.79232 4.30464 0.79232 4.55126V5.58632H1.95442ZM3.91244 6.02725H0.41118V4.56995C0.41118 4.27101 0.441073 4.04681 0.504596 3.90108C0.564383 3.74788 0.676483 3.62831 0.83716 3.53489C0.997836 3.44521 1.1772 3.40037 1.36403 3.40037C1.61812 3.40037 1.82738 3.47137 1.99553 3.62457C2.16368 3.77404 2.27578 4.00945 2.31688 4.31959C2.37667 4.20375 2.43646 4.12528 2.4925 4.0655C2.61581 3.93471 2.77275 3.81514 2.95585 3.6993L3.9087 3.12386V3.67688L3.18005 4.11034C2.96706 4.24112 2.80265 4.34201 2.69428 4.42795C2.58218 4.50642 2.50371 4.58116 2.45887 4.64842C2.41777 4.71194 2.38414 4.77546 2.36172 4.84272C2.35051 4.8913 2.34677 4.96603 2.34677 5.08187V5.58632H3.90123V6.02725H3.91244ZM3.91244 9.08758H0.41118V6.71106H0.818477V8.65039H1.8909V6.83437H2.30567V8.65039H3.49767V6.63632H3.91244V9.08758ZM3.91244 10.2983H0.41118V9.86481H3.91244V10.2983ZM2.67934 11.3408L2.79891 10.9111C3.18379 11.0045 3.47151 11.1652 3.66955 11.4006C3.87507 11.636 3.96849 11.9274 3.96849 12.2712C3.96849 12.6262 3.89376 12.9102 3.74055 13.1381C3.58361 13.3586 3.35941 13.5267 3.07542 13.6388C2.78023 13.7509 2.46635 13.8145 2.13378 13.8145C1.76759 13.8145 1.44997 13.7472 1.18093 13.6164C0.908156 13.4856 0.70264 13.2988 0.560646 13.0597C0.418653 12.813 0.351393 12.5515 0.351393 12.26C0.351393 11.9349 0.441073 11.6584 0.616696 11.4342C0.796056 11.21 1.04641 11.0531 1.37524 10.9634L1.47987 11.3894C1.22577 11.4678 1.04268 11.5799 0.923104 11.7257C0.807267 11.8677 0.751217 12.0508 0.751217 12.2712C0.751217 12.5216 0.81474 12.7346 0.945523 12.9065C1.07257 13.0746 1.24446 13.1942 1.46492 13.2652C1.68165 13.3324 1.90585 13.3661 2.13378 13.3661C2.43272 13.3661 2.69428 13.325 2.91101 13.2428C3.13147 13.1643 3.30336 13.0335 3.41173 12.8616C3.52009 12.6897 3.57614 12.5029 3.57614 12.3049C3.57614 12.062 3.50141 11.8602 3.35194 11.6846C3.19874 11.5127 2.97827 11.4081 2.67934 11.3408ZM3.91244 17.0168H0.41118V16.5684L3.16137 14.8421H0.41118V14.4235H3.91244V14.8682L1.15851 16.5945H3.91244V17.0168ZM2.47382 19.4867V18.3695L1.50602 18.717C1.20709 18.8179 0.967943 18.8963 0.78111 18.9486C1.00157 18.9935 1.22577 19.0533 1.44624 19.1243L2.47382 19.4867ZM3.91244 20.4358L0.41118 19.1729V18.702L3.91244 17.3568V17.8575L2.85122 18.2424V19.6138L3.91244 19.9762V20.4358ZM3.91244 23.399H0.41118V22.9544L3.16137 21.228H0.41118V20.8095H3.91244V21.2542L1.15851 22.9805H3.91244V23.399ZM3.91244 24.5948H0.41118V24.1613H3.91244V24.5948ZM3.91244 27.4533H0.41118V25.2375H0.818477V27.0161H1.90585V25.4729H2.32062V27.0161H3.91244V27.4533ZM2.47382 30.9732V29.856L1.50602 30.1998C1.20709 30.3081 0.967943 30.3829 0.78111 30.4277C1.00157 30.4763 1.22577 30.5361 1.44624 30.6183L2.47382 30.9732ZM3.91244 31.9261L0.41118 30.6594V30.1886L3.91244 28.8471V29.3441L2.85122 29.7252V31.1003L3.91244 31.459V31.9261ZM3.91244 32.7669H0.41118V32.3334H3.91244V32.7669ZM2.67934 33.8094L2.79891 33.3759C3.18379 33.4693 3.47151 33.6375 3.66955 33.8729C3.87507 34.1046 3.96849 34.3923 3.96849 34.7323C3.96849 35.0911 3.89376 35.3788 3.74055 35.603C3.58361 35.8234 3.35941 35.9953 3.07542 36.1112C2.78023 36.2307 2.46635 36.2868 2.13378 36.2868C1.76759 36.2868 1.44997 36.2233 1.18093 36.0925C0.908156 35.958 0.70264 35.7749 0.560646 35.5357C0.418653 35.2891 0.351393 35.0313 0.351393 34.7361C0.351393 34.4072 0.441073 34.127 0.616696 33.9065C0.796056 33.6749 1.04641 33.5254 1.37524 33.4357L1.47987 33.8654C1.22577 33.9364 1.04268 34.0485 0.923104 34.1905C0.807267 34.3363 0.751217 34.5156 0.751217 34.7435C0.751217 34.9976 0.81474 35.2106 0.945523 35.375C1.07257 35.5432 1.24446 35.6665 1.46492 35.7338C1.68165 35.8048 1.90585 35.8384 2.13378 35.8384C2.43272 35.8384 2.69428 35.801 2.91101 35.7151C3.13147 35.6404 3.30336 35.5133 3.41173 35.3414C3.52009 35.1658 3.57614 34.979 3.57614 34.7772C3.57614 34.538 3.50141 34.3363 3.35194 34.1569C3.19874 33.9813 2.97827 33.8766 2.67934 33.8094ZM3.91244 39.4816H0.41118V39.037L3.16137 37.3032H0.41118V36.8847H3.91244V37.3368L1.15851 39.0631H3.91244V39.4816ZM3.91244 42.5308H0.41118V40.1542H0.818477V42.0973H1.8909V40.2776H2.30567V42.0973H3.49767V40.0795H3.91244V42.5308ZM3.49767 45.423V44.7242C3.49767 44.5037 3.47525 44.3318 3.43414 44.2123C3.3893 44.0852 3.32952 43.9843 3.25105 43.9133C3.14268 43.8162 2.99695 43.734 2.81012 43.6742C2.62702 43.6181 2.40282 43.5845 2.13752 43.5845C1.77133 43.5845 1.49108 43.6406 1.29303 43.7527C1.09499 43.8648 0.967943 44.0068 0.896946 44.1637C0.852106 44.2833 0.822213 44.4701 0.822213 44.7317V45.4192H3.49767V45.423ZM3.91244 45.8564H0.41118V44.7279C0.41118 44.4664 0.429863 44.2758 0.459756 44.1375C0.508333 43.9544 0.590539 43.7938 0.710113 43.6592C0.867053 43.4836 1.0651 43.3566 1.30424 43.2669C1.54713 43.1772 1.82738 43.1398 2.13752 43.1398C2.40282 43.1398 2.63823 43.1697 2.84375 43.2258C3.04927 43.2856 3.21742 43.3566 3.35567 43.45C3.49393 43.5397 3.59856 43.6406 3.67329 43.7489C3.74803 43.8573 3.81155 43.9918 3.84891 44.1375C3.89002 44.2945 3.9087 44.4701 3.9087 44.6681V45.8564H3.91244ZM3.91244 49.182H0.41118V48.7336L3.16137 47.0036H0.41118V46.5925H3.91244V47.0335L1.15851 48.7673H3.91244V49.182ZM3.91244 52.2349H0.41118V49.8546H0.818477V51.7977H1.8909V49.9854H2.30567V51.7977H3.49767V49.7762H3.91244V52.2349ZM3.91244 54.2079H0.818477V55.2952H0.41118V52.6833H0.818477V53.7744H3.91244V54.2079ZM3.91244 58.3705H0.41118V57.9221L3.16137 56.1995H0.41118V55.7773H3.91244V56.2219L1.15851 57.9557H3.91244V58.3705ZM3.91244 59.5662H0.41118V59.1328H3.91244V59.5662ZM1.95442 62.5182V61.5803C1.95442 61.3785 1.932 61.2253 1.88716 61.117C1.84232 61.0011 1.77133 60.9189 1.67417 60.8554C1.58076 60.8031 1.47613 60.7732 1.36029 60.7732C1.19588 60.7732 1.06136 60.8255 0.952997 60.9376C0.84837 61.0534 0.79232 61.2328 0.79232 61.4757V62.5182H1.95442ZM3.91244 62.9554H0.41118V61.5018C0.41118 61.2104 0.441073 60.9824 0.504596 60.8292C0.564383 60.6723 0.676483 60.5527 0.83716 60.463C0.997836 60.3734 1.1772 60.3248 1.36403 60.3248C1.61812 60.3248 1.82738 60.3958 1.99553 60.5527C2.16368 60.7022 2.27578 60.9376 2.31688 61.2552C2.37667 61.1431 2.43646 61.0572 2.4925 60.9899C2.61581 60.8666 2.77275 60.7433 2.95585 60.6312L3.9087 60.0595V60.6088L3.18005 61.0422C2.96706 61.173 2.80265 61.2739 2.69428 61.3636C2.58218 61.4458 2.50371 61.5168 2.45887 61.584C2.41777 61.6513 2.38414 61.7074 2.36172 61.7821C2.35051 61.8344 2.34677 61.9129 2.34677 62.0287V62.5332H3.90123V62.9554H3.91244ZM3.91244 66.0157H0.41118V63.6392H0.818477V65.5823H1.8909V63.7663H2.30567V65.5823H3.49767V63.5682H3.91244V66.0157ZM2.074 68.6538V67.8056C2.074 67.5216 2.02168 67.3236 1.90585 67.2077C1.79375 67.0882 1.63681 67.0284 1.43503 67.0284C1.2893 67.0284 1.16225 67.0583 1.05762 67.1255C0.956733 67.1965 0.885737 67.2937 0.852107 67.4058C0.833423 67.4768 0.818477 67.6188 0.818477 67.8093V68.6538H2.074ZM3.91244 69.0873H0.41118V67.8467C0.41118 67.6262 0.418653 67.4618 0.441073 67.346C0.470966 67.189 0.52328 67.0508 0.605487 66.9424C0.687693 66.8303 0.799793 66.7406 0.941787 66.6809C1.08752 66.6136 1.24819 66.5725 1.42008 66.5725C1.71901 66.5725 1.97311 66.6659 2.1861 66.8415C2.38788 67.0246 2.48503 67.3423 2.48503 67.8093V68.6538H3.91244V69.0873ZM0.41118 70.2494V69.8122H2.43272C2.78397 69.8122 3.06048 69.8458 3.26973 69.928C3.47525 70.0028 3.6434 70.1335 3.77418 70.3316C3.90497 70.5259 3.96849 70.7837 3.96849 71.1013C3.96849 71.4115 3.91618 71.6618 3.80034 71.8561C3.68824 72.0542 3.52383 72.1924 3.3071 72.2747C3.09037 72.3569 2.80265 72.4017 2.43272 72.4017H0.41118V71.9682H2.42898C2.73539 71.9682 2.95959 71.9421 3.09784 71.886C3.24731 71.8337 3.35567 71.7478 3.43041 71.6133C3.51261 71.4825 3.55372 71.3255 3.55372 71.1387C3.55372 70.8211 3.47151 70.5931 3.31831 70.4549C3.16511 70.3166 2.86617 70.2494 2.42524 70.2494H0.41118ZM2.7877 75.619L2.75033 75.2117C2.92222 75.193 3.06795 75.1444 3.18005 75.0734C3.29589 74.9987 3.38557 74.8903 3.45283 74.7446C3.52009 74.5914 3.55372 74.427 3.55372 74.2401C3.55372 74.0683 3.52756 73.9225 3.47151 73.7992C3.4192 73.6722 3.3482 73.5788 3.25852 73.5152C3.16511 73.4554 3.06795 73.4218 2.95959 73.4218C2.84749 73.4218 2.75407 73.4517 2.67186 73.5152C2.58966 73.5788 2.51866 73.6759 2.46261 73.8104C2.42524 73.8964 2.36546 74.0907 2.29446 74.3896C2.21599 74.696 2.14499 74.909 2.074 75.0248C1.98432 75.1818 1.87969 75.3014 1.74891 75.3798C1.61812 75.4546 1.46866 75.4957 1.30798 75.4957C1.13236 75.4957 0.97168 75.4508 0.818477 75.3537C0.665273 75.264 0.549436 75.122 0.46723 74.9426C0.388759 74.7595 0.347656 74.5615 0.347656 74.3373C0.347656 74.0907 0.38876 73.8777 0.470966 73.6908C0.55691 73.5078 0.68022 73.362 0.83716 73.2611C1.00157 73.164 1.18467 73.1079 1.39019 73.0967L1.42755 73.5115C1.20335 73.5376 1.03894 73.6161 0.923104 73.7432C0.807267 73.8739 0.751217 74.0645 0.751217 74.3149C0.751217 74.5802 0.799793 74.7708 0.90442 74.8978C1.00531 75.0136 1.13609 75.0734 1.27435 75.0734C1.4014 75.0734 1.50602 75.0323 1.58449 74.9464C1.6667 74.8642 1.74891 74.6474 1.83485 74.2924C1.91706 73.9412 1.99553 73.6983 2.05905 73.5601C2.1562 73.3695 2.27204 73.2238 2.41777 73.1416C2.55976 73.0444 2.73165 73.007 2.91475 73.007C3.10532 73.007 3.27721 73.0519 3.44536 73.1528C3.60603 73.2574 3.73682 73.3919 3.8265 73.5862C3.91991 73.7731 3.96475 73.986 3.96475 74.2215C3.96475 74.5167 3.91991 74.7707 3.8265 74.9688C3.73308 75.1706 3.59482 75.3275 3.40799 75.4433C3.22863 75.5517 3.01937 75.6152 2.7877 75.619Z" fill="black"/>
<path d="M7.7802 26.8707V25.7273L6.83109 26.0785C6.53589 26.1831 6.30048 26.2691 6.11739 26.3177C6.34159 26.3625 6.55831 26.4223 6.77504 26.497L7.7802 26.8707ZM9.1964 27.8422L5.75493 26.5456V26.0636L9.1964 24.6885V25.1967L8.15014 25.5853V26.994L9.1964 27.3677V27.8422ZM9.1964 28.7054H5.75493V28.2607H9.1964V28.7054ZM8.78537 31.493V30.6485C8.78537 30.5065 8.78163 30.4056 8.77042 30.3495C8.748 30.2449 8.71811 30.159 8.67327 30.0842C8.63216 30.017 8.56864 29.9647 8.4827 29.9161C8.40049 29.8712 8.30334 29.8488 8.19124 29.8488C8.06793 29.8488 7.95209 29.8787 7.85867 29.946C7.76526 30.0058 7.698 30.1029 7.6569 30.215C7.62327 30.3234 7.60084 30.4915 7.60084 30.7083V31.4892H8.78537V31.493ZM7.19728 31.493V30.7606C7.19728 30.5663 7.18234 30.4243 7.15992 30.3346C7.12255 30.2262 7.0665 30.1365 6.98803 30.0805C6.90582 30.0207 6.80867 29.9908 6.6891 29.9908C6.56952 29.9908 6.47237 30.017 6.38643 30.0693C6.29675 30.1179 6.23696 30.2001 6.20707 30.301C6.17344 30.3981 6.15849 30.57 6.15849 30.8091V31.4892H7.19728V31.493ZM9.1964 31.9376H5.75493V30.6746C5.75493 30.4168 5.7923 30.2038 5.85956 30.0581C5.93055 29.8974 6.03518 29.7778 6.18091 29.6844C6.3229 29.5985 6.47984 29.5536 6.63678 29.5536C6.78625 29.5536 6.92451 29.591 7.05155 29.6769C7.1786 29.7479 7.27949 29.8712 7.3617 30.0282C7.42522 29.8227 7.52985 29.662 7.67558 29.5574C7.82505 29.4453 7.99693 29.3892 8.19498 29.3892C8.35939 29.3892 8.50885 29.4228 8.64711 29.4901C8.78537 29.5611 8.89 29.6396 8.96847 29.7367C9.0432 29.8339 9.10299 29.9609 9.14035 30.1066C9.17772 30.2561 9.20014 30.428 9.20014 30.6485V31.9376H9.1964ZM9.1964 35.8499H5.75493V35.1773L8.19124 34.3814C8.41918 34.3104 8.58733 34.2581 8.70316 34.2207C8.57612 34.1834 8.39302 34.1198 8.15014 34.0414L5.75493 33.2305V32.6326H9.1964V33.0624H6.31543L9.1964 34.0414V34.4374L6.26312 35.4165H9.1964V35.8499ZM7.52611 39.1718C7.93714 39.1718 8.26971 39.0634 8.50512 38.843C8.74427 38.6188 8.8601 38.3497 8.8601 38.0246C8.8601 37.6846 8.74053 37.4118 8.49765 37.1951C8.2585 36.9784 7.91846 36.8663 7.47006 36.8663C7.19355 36.8663 6.95066 36.9111 6.73767 37.0083C6.52842 37.098 6.36774 37.2362 6.25191 37.4118C6.13981 37.5912 6.08002 37.7892 6.08002 38.0134C6.08002 38.3273 6.19212 38.6001 6.41258 38.828C6.64052 39.0634 7.00671 39.1718 7.52611 39.1718ZM7.51864 39.6277C6.94693 39.6277 6.50226 39.4819 6.17717 39.1793C5.85956 38.8841 5.69141 38.4917 5.69141 38.0172C5.69141 37.7033 5.76614 37.4305 5.91934 37.1764C6.07255 36.9261 6.2818 36.7355 6.55458 36.601C6.82362 36.4702 7.13376 36.4067 7.47754 36.4067C7.82505 36.4067 8.14266 36.4739 8.4117 36.6122C8.68822 36.7504 8.89373 36.9522 9.03946 37.1988C9.17772 37.4529 9.25245 37.722 9.25245 38.0172C9.25245 38.3348 9.17398 38.6188 9.01704 38.8691C8.8601 39.1195 8.64711 39.3063 8.37434 39.4371C8.10529 39.5679 7.82131 39.6277 7.51864 39.6277ZM9.1964 42.1313H5.75493V41.6828H8.78911V40.0275H9.1964V42.1313ZM7.52611 45.4494C7.93714 45.4494 8.26971 45.341 8.50512 45.1168C8.74427 44.9001 8.8601 44.6236 8.8601 44.2985C8.8601 43.9622 8.74053 43.6894 8.49765 43.4727C8.2585 43.256 7.91846 43.1402 7.47006 43.1402C7.19355 43.1402 6.95066 43.1887 6.73767 43.2859C6.52842 43.3793 6.36774 43.5063 6.25191 43.6894C6.13981 43.8651 6.08002 44.0668 6.08002 44.291C6.08002 44.6049 6.19212 44.8814 6.41258 45.1056C6.64052 45.3373 7.00671 45.4494 7.52611 45.4494ZM7.51864 45.909C6.94693 45.909 6.50226 45.7596 6.17717 45.4569C5.85956 45.1617 5.69141 44.7731 5.69141 44.2985C5.69141 43.9884 5.76614 43.7081 5.91934 43.4615C6.07255 43.2037 6.2818 43.0131 6.55458 42.8823C6.82362 42.7553 7.13376 42.6918 7.47754 42.6918C7.82505 42.6918 8.14266 42.7553 8.4117 42.8973C8.68822 43.0318 8.89373 43.2298 9.03946 43.4839C9.17772 43.738 9.25245 44.0108 9.25245 44.306C9.25245 44.6199 9.17398 44.9001 9.01704 45.1505C8.8601 45.4046 8.64711 45.5877 8.37434 45.7185C8.10529 45.8455 7.82131 45.909 7.51864 45.909ZM7.98572 46.7685L8.10529 46.3201C8.47896 46.4135 8.76295 46.5854 8.96473 46.8245C9.15156 47.0674 9.25245 47.3663 9.25245 47.7176C9.25245 48.0838 9.17772 48.3752 9.02452 48.5994C8.87131 48.8311 8.65832 49.003 8.3706 49.1188C8.08661 49.2384 7.77273 49.2944 7.44391 49.2944C7.08892 49.2944 6.77504 49.2347 6.50974 49.1001C6.24443 48.9656 6.03892 48.7788 5.89692 48.5247C5.7624 48.2781 5.69514 48.0016 5.69514 47.7101C5.69514 47.3701 5.78109 47.0861 5.95297 46.8581C6.1286 46.6265 6.37522 46.4695 6.69283 46.3761L6.8012 46.817C6.55084 46.8955 6.36774 47.0076 6.25191 47.1571C6.13607 47.3065 6.08002 47.4934 6.08002 47.7176C6.08002 47.9754 6.14354 48.1959 6.27059 48.3678C6.39764 48.5434 6.56952 48.6629 6.78251 48.7339C6.9955 48.8012 7.21597 48.8386 7.44391 48.8386C7.73537 48.8386 7.98946 48.7975 8.21366 48.7115C8.43038 48.6331 8.59106 48.5023 8.70316 48.3304C8.81153 48.151 8.86384 47.9567 8.86384 47.7512C8.86384 47.5083 8.78911 47.2953 8.64711 47.1234C8.49391 46.9441 8.27718 46.832 7.98572 46.7685ZM9.1964 53.6066H5.75493V51.1703H6.16223V53.1619H7.21223V51.3048H7.61579V53.1619H8.78537V51.0918H9.19267V53.6066H9.1964ZM8.78537 56.566V55.8486C8.78537 55.6281 8.76669 55.4525 8.72185 55.3254C8.68074 55.2021 8.62096 55.0975 8.54249 55.0228C8.43412 54.9144 8.29213 54.8397 8.10903 54.7761C7.92594 54.7164 7.70547 54.6865 7.44391 54.6865C7.08518 54.6865 6.80493 54.7462 6.61436 54.8658C6.42006 54.9779 6.29675 55.1162 6.22575 55.2881C6.18091 55.4076 6.15849 55.6019 6.15849 55.8635V56.5697H8.78537V56.566ZM9.1964 57.0144H5.75493V55.856C5.75493 55.5945 5.77361 55.3927 5.79977 55.2507C5.84835 55.0676 5.93055 54.8957 6.04639 54.7612C6.20333 54.5893 6.39764 54.4548 6.64052 54.3651C6.87593 54.2792 7.14871 54.2343 7.45511 54.2343C7.71294 54.2343 7.94462 54.2605 8.15014 54.324C8.34818 54.3838 8.51633 54.4548 8.65085 54.5482C8.78163 54.6416 8.88626 54.7462 8.96099 54.8546C9.03573 54.963 9.09551 55.1012 9.13288 55.2582C9.17025 55.4151 9.19267 55.5982 9.19267 55.8V57.0144H9.1964Z" fill="black"/>
<path d="M47.3281 123.94V123.455H47.8133V123.94H47.3281Z" fill="black"/>
<path d="M43.6484 123.94L44.981 120.47H45.4757L46.8959 123.94H46.3728L45.968 122.889H44.5171L44.136 123.94H43.6484ZM44.6496 122.515H45.826L45.4639 121.554C45.3534 121.262 45.2714 121.022 45.2177 120.835C45.1735 121.057 45.1112 121.278 45.0307 121.497L44.6496 122.515Z" fill="black"/>
<path d="M42.7461 123.94V123.455H43.2313V123.94H42.7461Z" fill="black"/>
<path d="M39.2891 122.825L39.7222 122.788C39.7427 122.961 39.7901 123.104 39.8642 123.216C39.94 123.326 40.0567 123.416 40.2145 123.486C40.3723 123.554 40.5498 123.588 40.7471 123.588C40.9222 123.588 41.0769 123.562 41.211 123.509C41.3451 123.457 41.4445 123.386 41.5092 123.296C41.5755 123.205 41.6087 123.105 41.6087 122.998C41.6087 122.889 41.5771 122.795 41.514 122.714C41.4509 122.632 41.3467 122.563 41.2015 122.508C41.1084 122.472 40.9025 122.416 40.5838 122.34C40.265 122.263 40.0417 122.19 39.9139 122.122C39.7482 122.036 39.6244 121.928 39.5423 121.801C39.4618 121.671 39.4216 121.527 39.4216 121.367C39.4216 121.192 39.4713 121.029 39.5707 120.877C39.6701 120.724 39.8153 120.608 40.0062 120.529C40.1972 120.451 40.4094 120.411 40.6429 120.411C40.9002 120.411 41.1266 120.453 41.3223 120.537C41.5195 120.619 41.671 120.74 41.7767 120.901C41.8824 121.062 41.9392 121.244 41.9471 121.448L41.5069 121.481C41.4832 121.262 41.4027 121.096 41.2654 120.984C41.1297 120.872 40.9286 120.816 40.6619 120.816C40.3842 120.816 40.1814 120.867 40.0536 120.97C39.9273 121.071 39.8642 121.193 39.8642 121.337C39.8642 121.461 39.9092 121.564 39.9991 121.644C40.0875 121.725 40.3179 121.808 40.6903 121.893C41.0643 121.976 41.3207 122.05 41.4595 122.113C41.6615 122.206 41.8106 122.324 41.9069 122.468C42.0031 122.61 42.0513 122.774 42.0513 122.96C42.0513 123.145 41.9984 123.319 41.8927 123.483C41.787 123.646 41.6347 123.773 41.4359 123.864C41.2386 123.954 41.0161 123.999 40.7684 123.999C40.4544 123.999 40.1909 123.954 39.9778 123.862C39.7664 123.771 39.5999 123.633 39.4784 123.45C39.3585 123.266 39.2954 123.057 39.2891 122.825Z" fill="black"/>
<path d="M34.7539 123.94L36.0865 120.47H36.5812L38.0013 123.94H37.4782L37.0735 122.889H35.6226L35.2415 123.94H34.7539ZM35.7551 122.515H36.9315L36.5693 121.554C36.4589 121.262 36.3768 121.022 36.3232 120.835C36.279 121.057 36.2167 121.278 36.1362 121.497L35.7551 122.515Z" fill="black"/>
<path d="M33.8633 123.94V120.47H34.3225V123.94H33.8633Z" fill="black"/>
<path d="M30.5312 123.94V120.47H31.8331C32.0982 120.47 32.3104 120.506 32.4698 120.577C32.6307 120.646 32.7562 120.754 32.8461 120.901C32.9376 121.046 32.9834 121.198 32.9834 121.358C32.9834 121.506 32.9431 121.646 32.8627 121.777C32.7822 121.908 32.6607 122.013 32.4982 122.094C32.708 122.155 32.869 122.26 32.981 122.409C33.0946 122.557 33.1514 122.732 33.1514 122.934C33.1514 123.097 33.1167 123.248 33.0473 123.389C32.9794 123.527 32.895 123.635 32.794 123.711C32.693 123.786 32.566 123.844 32.413 123.883C32.2615 123.921 32.0753 123.94 31.8544 123.94H30.5312ZM30.9904 121.928H31.7407C31.9443 121.928 32.0903 121.915 32.1786 121.888C32.2954 121.853 32.383 121.796 32.4414 121.715C32.5013 121.635 32.5313 121.534 32.5313 121.412C32.5313 121.297 32.5037 121.196 32.4485 121.109C32.3932 121.021 32.3143 120.961 32.2118 120.929C32.1092 120.896 31.9333 120.88 31.6839 120.88H30.9904V121.928ZM30.9904 123.531H31.8544C32.0027 123.531 32.1068 123.525 32.1668 123.514C32.2725 123.495 32.3609 123.464 32.4319 123.419C32.5029 123.375 32.5613 123.311 32.607 123.228C32.6528 123.142 32.6757 123.045 32.6757 122.934C32.6757 122.805 32.6425 122.693 32.5763 122.598C32.51 122.502 32.4177 122.435 32.2993 122.397C32.1826 122.357 32.0137 122.338 31.7928 122.338H30.9904V123.531Z" fill="black"/>
<path d="M26.5 123.94V120.47H27.1911L28.0125 122.927C28.0882 123.156 28.1434 123.327 28.1782 123.441C28.2176 123.314 28.2791 123.129 28.3628 122.884L29.1936 120.47H29.8113V123.94H29.3687V121.036L28.3604 123.94H27.9462L26.9426 120.986V123.94H26.5Z" fill="black"/>
<path d="M22.6016 122.251C22.6016 121.675 22.7562 121.224 23.0655 120.899C23.3748 120.572 23.774 120.409 24.2631 120.409C24.5835 120.409 24.8722 120.486 25.1294 120.639C25.3866 120.792 25.5823 121.006 25.7164 121.28C25.8521 121.553 25.92 121.863 25.92 122.21C25.92 122.562 25.849 122.877 25.707 123.155C25.565 123.433 25.3638 123.643 25.1034 123.787C24.843 123.929 24.5622 124 24.2608 124C23.9341 124 23.6422 123.921 23.385 123.763C23.1278 123.605 22.9329 123.39 22.8004 123.117C22.6678 122.844 22.6016 122.555 22.6016 122.251ZM23.0749 122.258C23.0749 122.676 23.187 123.006 23.4111 123.247C23.6367 123.487 23.9192 123.607 24.2584 123.607C24.604 123.607 24.888 123.485 25.1105 123.242C25.3346 122.999 25.4466 122.655 25.4466 122.208C25.4466 121.926 25.3985 121.679 25.3022 121.47C25.2075 121.258 25.0679 121.095 24.8833 120.98C24.7002 120.863 24.4943 120.804 24.2655 120.804C23.9405 120.804 23.6604 120.916 23.4253 121.141C23.1917 121.363 23.0749 121.735 23.0749 122.258Z" fill="black"/>
<path d="M20.0234 123.94V120.47H20.4826V123.531H22.1915V123.94H20.0234Z" fill="black"/>
<path d="M16.1289 122.251C16.1289 121.675 16.2835 121.224 16.5928 120.899C16.9021 120.572 17.3013 120.409 17.7905 120.409C18.1108 120.409 18.3996 120.486 18.6568 120.639C18.914 120.792 19.1097 121.006 19.2438 121.28C19.3795 121.553 19.4473 121.863 19.4473 122.21C19.4473 122.562 19.3763 122.877 19.2343 123.155C19.0923 123.433 18.8911 123.643 18.6307 123.787C18.3704 123.929 18.0895 124 17.7881 124C17.4615 124 17.1696 123.921 16.9124 123.763C16.6552 123.605 16.4603 123.39 16.3277 123.117C16.1952 122.844 16.1289 122.555 16.1289 122.251ZM16.6023 122.258C16.6023 122.676 16.7143 123.006 16.9384 123.247C17.164 123.487 17.4465 123.607 17.7858 123.607C18.1313 123.607 18.4154 123.485 18.6379 123.242C18.8619 122.999 18.974 122.655 18.974 122.208C18.974 121.926 18.9258 121.679 18.8296 121.47C18.7349 121.258 18.5952 121.095 18.4106 120.98C18.2276 120.863 18.0217 120.804 17.7929 120.804C17.4678 120.804 17.1877 120.916 16.9526 121.141C16.7191 121.363 16.6023 121.735 16.6023 122.258Z" fill="black"/>
<path d="M15.2412 122.724L15.7004 122.84C15.6041 123.217 15.4305 123.505 15.1796 123.704C14.9303 123.901 14.625 123.999 14.2636 123.999C13.8897 123.999 13.5851 123.924 13.35 123.772C13.1165 123.619 12.9381 123.398 12.8151 123.109C12.6936 122.821 12.6328 122.511 12.6328 122.179C12.6328 121.818 12.7015 121.503 12.8387 121.235C12.9776 120.965 13.1741 120.761 13.4281 120.622C13.6837 120.481 13.9646 120.411 14.2707 120.411C14.6179 120.411 14.9098 120.499 15.1465 120.676C15.3832 120.853 15.5481 121.101 15.6412 121.422L15.1891 121.528C15.1086 121.276 14.9919 121.092 14.8388 120.977C14.6857 120.862 14.4932 120.804 14.2613 120.804C13.9946 120.804 13.7713 120.868 13.5914 120.996C13.4131 121.124 13.2877 121.296 13.2151 121.512C13.1425 121.726 13.1062 121.948 13.1062 122.177C13.1062 122.472 13.1488 122.73 13.234 122.951C13.3208 123.17 13.4549 123.334 13.6364 123.443C13.8179 123.552 14.0143 123.606 14.2258 123.606C14.483 123.606 14.7007 123.532 14.879 123.384C15.0573 123.236 15.178 123.016 15.2412 122.724Z" fill="black"/>
<path d="M7.92969 123.94V120.47H8.38887V121.895H10.1925V120.47H10.6517V123.94H10.1925V122.305H8.38887V123.94H7.92969Z" fill="black"/>
<path d="M6.8857 122.724L7.34488 122.84C7.24863 123.217 7.07505 123.505 6.82416 123.704C6.57484 123.901 6.26951 123.999 5.90816 123.999C5.53418 123.999 5.22964 123.924 4.99452 123.772C4.76099 123.619 4.58268 123.398 4.4596 123.109C4.3381 122.821 4.27734 122.511 4.27734 122.179C4.27734 121.818 4.34598 121.503 4.48327 121.235C4.62213 120.965 4.81858 120.761 5.07263 120.622C5.32826 120.481 5.60914 120.411 5.91526 120.411C6.26241 120.411 6.55433 120.499 6.79102 120.676C7.02771 120.853 7.19261 121.101 7.28571 121.422L6.83363 121.528C6.75315 121.276 6.63638 121.092 6.48332 120.977C6.33026 120.862 6.13775 120.804 5.90579 120.804C5.63912 120.804 5.41584 120.868 5.23595 120.996C5.05764 121.124 4.93219 121.296 4.85961 121.512C4.78702 121.726 4.75073 121.948 4.75073 122.177C4.75073 122.472 4.79333 122.73 4.87854 122.951C4.96533 123.17 5.09946 123.334 5.28092 123.443C5.46239 123.552 5.65884 123.606 5.87029 123.606C6.12749 123.606 6.34525 123.532 6.52356 123.384C6.70187 123.236 6.82258 123.016 6.8857 122.724Z" fill="black"/>
<path d="M0.796875 123.94L2.12946 120.47H2.62414L4.0443 123.94H3.52121L3.11646 122.889H1.66554L1.28446 123.94H0.796875ZM1.79809 122.515H2.97445L2.61231 121.554C2.50185 121.262 2.4198 121.022 2.36615 120.835C2.32197 121.057 2.25964 121.278 2.17916 121.497L1.79809 122.515Z" fill="black"/>
<path d="M92.7994 73.7883C89.196 73.7883 86.7526 70.8376 87.3739 67.2227C88.037 63.6079 91.4741 60.6572 95.0775 60.6572H104.354L104.851 57.9564C105.265 55.5884 103.65 53.6345 101.29 53.6345H92.1781C91.5986 53.6345 91.1844 53.1355 91.3089 52.5121C91.3915 51.8887 91.971 51.4316 92.5515 51.4316H101.663C105.266 51.4316 107.668 54.3405 107.047 57.9554L104.437 72.666C104.354 73.2894 103.816 73.7883 103.194 73.7883H92.7994ZM94.7051 62.8589C92.3025 62.8589 90.0254 64.8118 89.5694 67.2217C89.1552 69.5908 90.7702 71.5437 93.1728 71.5437H102.45L103.982 62.8589H94.7051Z" fill="#055EA5"/>
<path fill-rule="evenodd" clip-rule="evenodd" d="M92.5521 51.5887C92.045 51.5887 91.5366 51.9926 91.465 52.5329L91.4643 52.538L91.4633 52.543C91.3571 53.075 91.7039 53.4777 92.1787 53.4777H101.29C103.751 53.4777 105.437 55.5225 105.006 57.9836L105.006 57.985L104.486 60.8142H95.0781C91.5541 60.8142 88.1795 63.707 87.529 67.2504C86.9242 70.772 89.2972 73.6316 92.8 73.6316H103.195C103.732 73.6316 104.209 73.1962 104.282 72.6456L104.282 72.6421L106.893 57.929C106.893 57.9288 106.893 57.9286 106.893 57.9284C107.196 56.1624 106.76 54.5788 105.819 53.438C104.877 52.2972 103.421 51.5887 101.664 51.5887H92.5521ZM91.1546 52.4866C91.2507 51.7828 91.8997 51.2749 92.5521 51.2749H101.664C103.509 51.2749 105.056 52.0208 106.061 53.2382C107.065 54.4554 107.52 56.1334 107.202 57.9821L107.202 57.983L104.593 72.6903C104.499 73.3848 103.899 73.9454 103.195 73.9454H92.8C89.0963 73.9454 86.5826 70.9041 87.2199 67.1963L87.22 67.1955L87.2202 67.1946C87.8964 63.5085 91.3957 60.5004 95.0781 60.5004H104.224L104.697 57.9296C104.697 57.9293 104.697 57.9291 104.697 57.9289C105.095 55.6542 103.55 53.7915 101.29 53.7915H92.1787C91.4962 53.7915 91.0151 53.1992 91.1546 52.4866ZM89.4159 67.1927C89.8852 64.7124 92.224 62.7022 94.7058 62.7022H104.17L102.582 71.7007H93.1734C90.6717 71.7007 88.9848 69.6583 89.4155 67.1948L89.4157 67.1938L89.4159 67.1927ZM89.7244 67.25C89.3274 69.5242 90.8703 71.3869 93.1734 71.3869H102.319L103.796 63.016H94.7058C92.3826 63.016 90.1676 64.9109 89.7244 67.25Z" fill="#055EA5"/>
<path d="M124.111 72.7077C123.987 73.3311 123.407 73.83 122.786 73.83L112.805 73.7881C111.107 73.7881 109.533 73.0821 108.58 71.8761C107.545 70.6293 107.173 68.9672 107.462 67.2633L109.119 57.996C109.409 56.2921 110.362 54.63 111.811 53.3832C113.219 52.1783 115.001 51.4712 116.698 51.4712H126.721C127.342 51.4712 127.756 51.9283 127.674 52.5517C127.549 53.1751 126.97 53.674 126.348 53.674H116.409C114.007 53.674 111.729 55.6269 111.315 57.996L109.658 67.2633C109.244 69.6325 110.859 71.5853 113.261 71.5853H123.201C123.821 71.5853 124.236 72.0842 124.111 72.7077Z" fill="#055EA5"/>
<path fill-rule="evenodd" clip-rule="evenodd" d="M116.699 51.6282C115.043 51.6282 113.297 52.3189 111.914 53.5025C110.49 54.7272 109.558 56.3572 109.274 58.0225L109.274 58.0238L109.274 58.0238L107.618 67.2898C107.618 67.29 107.617 67.2903 107.617 67.2905C107.334 68.9558 107.7 70.5696 108.702 71.776L108.703 71.7775L108.704 71.779C109.623 72.9426 111.15 73.6314 112.806 73.6314H112.806L122.786 73.6733C122.787 73.6733 122.787 73.6733 122.787 73.6733C123.328 73.6731 123.847 73.232 123.958 72.6771C124.012 72.4074 123.948 72.1754 123.814 72.0121C123.681 71.8487 123.468 71.7424 123.202 71.7424H113.262C110.76 71.7424 109.073 69.7 109.504 67.2365L109.504 67.2359L111.161 57.9691C111.161 57.969 111.161 57.9689 111.161 57.9688C111.588 55.5264 113.93 53.5173 116.409 53.5173H126.349C126.889 53.5173 127.406 53.0787 127.519 52.5262C127.554 52.2569 127.481 52.0356 127.345 51.8821C127.207 51.7273 126.993 51.6282 126.721 51.6282H116.699ZM111.71 53.2642C113.143 52.0379 114.959 51.3145 116.699 51.3145H126.721C127.071 51.3145 127.375 51.444 127.579 51.6736C127.784 51.9035 127.876 52.2206 127.83 52.5725L127.829 52.5775L127.828 52.5826C127.69 53.2744 127.05 53.8311 126.349 53.8311H116.409C114.086 53.8311 111.871 55.7274 111.47 58.0232L111.47 58.0238L109.813 67.2905C109.813 67.2906 109.813 67.2907 109.813 67.2909C109.415 69.5655 110.958 71.4286 113.262 71.4286H123.202C123.555 71.4286 123.86 71.5717 124.057 71.8136C124.255 72.0556 124.336 72.3848 124.266 72.7385C124.127 73.4304 123.487 73.987 122.786 73.987H122.786L112.806 73.9452C112.806 73.9452 112.806 73.9452 112.805 73.9452C111.067 73.9451 109.446 73.2225 108.459 71.975C107.391 70.6882 107.012 68.9787 107.308 67.2372L107.308 67.2359H107.308L108.965 57.9699C108.965 57.9696 108.965 57.9694 108.965 57.9692C109.262 56.2269 110.235 54.5332 111.71 53.2644L111.71 53.2642Z" fill="#055EA5"/>
<path d="M146.85 57.9553L144.24 72.624C144.158 73.2474 143.577 73.7872 142.915 73.7872C142.294 73.7872 141.839 73.2464 141.921 72.624L144.531 57.9553C144.945 55.628 143.371 53.7578 141.094 53.7578H135.793C133.473 53.7578 131.319 55.628 130.906 57.9553L128.298 72.624C128.215 73.2474 127.594 73.7872 126.972 73.7872C126.351 73.7872 125.895 73.2464 125.979 72.624L131.197 42.9947C131.322 42.3713 131.943 41.8315 132.564 41.8315C133.185 41.8315 133.64 42.3713 133.517 42.9947L131.774 52.9681C133.059 52.012 134.632 51.4305 136.206 51.4305H141.507C145.07 51.4305 147.471 54.3393 146.85 57.9553Z" fill="#055EA5"/>
<path fill-rule="evenodd" clip-rule="evenodd" d="M131.352 43.0239C131.352 43.0244 131.352 43.025 131.352 43.0255L126.134 72.6482C126.065 73.1794 126.452 73.6304 126.973 73.6304C127.239 73.6304 127.514 73.5139 127.734 73.3215C127.954 73.129 128.107 72.8711 128.143 72.6036L128.143 72.6001L130.752 57.928C130.752 57.928 130.752 57.928 130.752 57.928C131.178 55.5296 133.394 53.601 135.794 53.601H141.095C143.472 53.601 145.117 55.5617 144.686 57.9829L142.077 72.6481C142.008 73.1797 142.395 73.6304 142.916 73.6304C143.496 73.6304 144.013 73.1517 144.085 72.6036L144.086 72.6001L146.696 57.9289C146.696 57.9287 146.696 57.9286 146.696 57.9284C147 56.1618 146.564 54.5777 145.627 53.4366C144.69 52.2956 143.245 51.5875 141.508 51.5875H136.207C134.671 51.5875 133.13 52.1556 131.869 53.0941L131.553 53.3293L133.363 42.9661L133.364 42.9644C133.468 42.439 133.088 41.9886 132.565 41.9886C132.299 41.9886 132.023 42.105 131.797 42.2987C131.571 42.4918 131.407 42.7522 131.352 43.0239ZM131.593 42.0603C131.864 41.8283 132.209 41.6748 132.565 41.6748C133.283 41.6748 133.813 42.3028 133.672 43.0235L131.995 52.6199C133.242 51.7789 134.721 51.2737 136.207 51.2737H141.508C143.334 51.2737 144.87 52.02 145.87 53.2375C146.869 54.4547 147.323 56.1328 147.005 57.982L147.005 57.9829L144.396 72.6483C144.302 73.3455 143.658 73.9442 142.916 73.9442C142.195 73.9442 141.672 73.3153 141.767 72.6036L141.767 72.6001L144.377 57.9279C144.775 55.6945 143.272 53.9148 141.095 53.9148H135.794C133.554 53.9148 131.462 55.7267 131.061 57.9829L128.453 72.6484C128.405 73.0029 128.207 73.3251 127.941 73.5576C127.674 73.7909 127.328 73.9442 126.973 73.9442C126.252 73.9442 125.728 73.3155 125.824 72.6033L125.824 72.6001L131.043 42.9659L131.044 42.9641C131.114 42.613 131.322 42.2925 131.593 42.0603Z" fill="#055EA5"/>
<path d="M61.6827 56.7463H69.8486L73.6863 61.7942H56.7227V63.0556H77.9121L75.2082 68.7343H70.2879V69.9957H76.0439L79.5961 63.0556H88.1919C88.1919 63.0556 88.8551 62.109 89.5768 61.7942H75.3892L70.6697 55.4849H61.9567L61.6827 56.7463Z" fill="#055EA5"/>
<path d="M55.4384 64.743C56.6729 64.743 57.6736 63.7389 57.6736 62.5004C57.6736 61.2618 56.6729 60.2578 55.4384 60.2578C54.2039 60.2578 53.2031 61.2618 53.2031 62.5004C53.2031 63.7389 54.2039 64.743 55.4384 64.743Z" fill="#055EA5"/>
<path d="M59.8564 58.0955C61.0908 58.0955 62.0916 57.0915 62.0916 55.8529C62.0916 54.6144 61.0908 53.6104 59.8564 53.6104C58.6219 53.6104 57.6211 54.6144 57.6211 55.8529C57.6211 57.0915 58.6219 58.0955 59.8564 58.0955Z" fill="#055EA5"/>
<path d="M59.855 44.038C60.8429 44.038 61.6436 43.2344 61.6436 42.2431C61.6436 41.2518 60.8429 40.4482 59.855 40.4482C58.8672 40.4482 58.0664 41.2518 58.0664 42.2431C58.0664 43.2344 58.8672 44.038 59.855 44.038Z" fill="#055EA5"/>
<path d="M59.855 71.2578C60.8429 71.2578 61.6436 70.4542 61.6436 69.4629C61.6436 68.4716 60.8429 67.668 59.855 67.668C58.8672 67.668 58.0664 68.4716 58.0664 69.4629C58.0664 70.4542 58.8672 71.2578 59.855 71.2578Z" fill="#055EA5"/>
<path d="M59.855 84.5522C60.8429 84.5522 61.6436 83.7486 61.6436 82.7573C61.6436 81.766 60.8429 80.9624 59.855 80.9624C58.8672 80.9624 58.0664 81.766 58.0664 82.7573C58.0664 83.7486 58.8672 84.5522 59.855 84.5522Z" fill="#055EA5"/>
<path d="M64.2704 51.1326C65.5049 51.1326 66.5057 50.1286 66.5057 48.89C66.5057 47.6515 65.5049 46.6475 64.2704 46.6475C63.0359 46.6475 62.0352 47.6515 62.0352 48.89C62.0352 50.1286 63.0359 51.1326 64.2704 51.1326Z" fill="#055EA5"/>
<path d="M64.273 77.5893C65.2608 77.5893 66.0616 76.7857 66.0616 75.7944C66.0616 74.8031 65.2608 73.9995 64.273 73.9995C63.2852 73.9995 62.4844 74.8031 62.4844 75.7944C62.4844 76.7857 63.2852 77.5893 64.273 77.5893Z" fill="#055EA5"/>
<path d="M68.6884 44.4851C69.9229 44.4851 70.9236 43.4811 70.9236 42.2426C70.9236 41.004 69.9229 40 68.6884 40C67.4539 40 66.4531 41.004 66.4531 42.2426C66.4531 43.4811 67.4539 44.4851 68.6884 44.4851Z" fill="#055EA5"/>
<path d="M68.6884 71.7059C69.9229 71.7059 70.9236 70.7018 70.9236 69.4633C70.9236 68.2247 69.9229 67.2207 68.6884 67.2207C67.4539 67.2207 66.4531 68.2247 66.4531 69.4633C66.4531 70.7018 67.4539 71.7059 68.6884 71.7059Z" fill="#055EA5"/>
<path d="M68.6884 84.9998C69.9229 84.9998 70.9236 83.9958 70.9236 82.7572C70.9236 81.5187 69.9229 80.5146 68.6884 80.5146C67.4539 80.5146 66.4531 81.5187 66.4531 82.7572C66.4531 83.9958 67.4539 84.9998 68.6884 84.9998Z" fill="#055EA5"/>
<path d="M73.1063 51.1326C74.3408 51.1326 75.3416 50.1286 75.3416 48.89C75.3416 47.6515 74.3408 46.6475 73.1063 46.6475C71.8718 46.6475 70.8711 47.6515 70.8711 48.89C70.8711 50.1286 71.8718 51.1326 73.1063 51.1326Z" fill="#055EA5"/>
<path d="M73.1063 78.0369C74.3408 78.0369 75.3416 77.0329 75.3416 75.7943C75.3416 74.5558 74.3408 73.5518 73.1063 73.5518C71.8718 73.5518 70.8711 74.5558 70.8711 75.7943C70.8711 77.0329 71.8718 78.0369 73.1063 78.0369Z" fill="#055EA5"/>
<path d="M51.023 57.6479C52.0108 57.6479 52.8116 56.8443 52.8116 55.853C52.8116 54.8617 52.0108 54.0581 51.023 54.0581C50.0352 54.0581 49.2344 54.8617 49.2344 55.853C49.2344 56.8443 50.0352 57.6479 51.023 57.6479Z" fill="#055EA5"/>
<path d="M51.0206 43.5888C51.7612 43.5888 52.3616 42.9861 52.3616 42.2427C52.3616 41.4992 51.7612 40.8965 51.0206 40.8965C50.28 40.8965 49.6797 41.4992 49.6797 42.2427C49.6797 42.9861 50.28 43.5888 51.0206 43.5888Z" fill="#055EA5"/>
<path d="M51.0206 83.7866C51.7612 83.7866 52.3616 83.1839 52.3616 82.4404C52.3616 81.6969 51.7612 81.0942 51.0206 81.0942C50.28 81.0942 49.6797 81.6969 49.6797 82.4404C49.6797 83.1839 50.28 83.7866 51.0206 83.7866Z" fill="#055EA5"/>
<path d="M51.023 71.2578C52.0108 71.2578 52.8116 70.4542 52.8116 69.4629C52.8116 68.4716 52.0108 67.668 51.023 67.668C50.0352 67.668 49.2344 68.4716 49.2344 69.4629C49.2344 70.4542 50.0352 71.2578 51.023 71.2578Z" fill="#055EA5"/>
<path d="M55.4371 50.685C56.4249 50.685 57.2257 49.8814 57.2257 48.8901C57.2257 47.8988 56.4249 47.0952 55.4371 47.0952C54.4492 47.0952 53.6484 47.8988 53.6484 48.8901C53.6484 49.8814 54.4492 50.685 55.4371 50.685Z" fill="#055EA5"/>
<path d="M42.1886 57.1992C42.9292 57.1992 43.5295 56.5965 43.5295 55.853C43.5295 55.1095 42.9292 54.5068 42.1886 54.5068C41.448 54.5068 40.8477 55.1095 40.8477 55.853C40.8477 56.5965 41.448 57.1992 42.1886 57.1992Z" fill="#055EA5"/>
<path d="M46.6066 50.2363C47.3471 50.2363 47.9475 49.6336 47.9475 48.8901C47.9475 48.1466 47.3471 47.5439 46.6066 47.5439C45.866 47.5439 45.2656 48.1466 45.2656 48.8901C45.2656 49.6336 45.866 50.2363 46.6066 50.2363Z" fill="#055EA5"/>
<path d="M42.1886 70.8095C42.9292 70.8095 43.5295 70.2068 43.5295 69.4634C43.5295 68.7199 42.9292 68.1172 42.1886 68.1172C41.448 68.1172 40.8477 68.7199 40.8477 69.4634C40.8477 70.2068 41.448 70.8095 42.1886 70.8095Z" fill="#055EA5"/>
<path d="M46.6044 76.8704C47.1971 76.8704 47.6776 76.3885 47.6776 75.7941C47.6776 75.1997 47.1971 74.7178 46.6044 74.7178C46.0117 74.7178 45.5312 75.1997 45.5312 75.7941C45.5312 76.3885 46.0117 76.8704 46.6044 76.8704Z" fill="#055EA5"/>
<path d="M55.4386 77.1406C56.1792 77.1406 56.7795 76.5379 56.7795 75.7944C56.7795 75.0509 56.1792 74.4482 55.4386 74.4482C54.698 74.4482 54.0977 75.0509 54.0977 75.7944C54.0977 76.5379 54.698 77.1406 55.4386 77.1406Z" fill="#055EA5"/>
<path d="M46.605 64.2954C47.5929 64.2954 48.3936 63.4918 48.3936 62.5005C48.3936 61.5092 47.5929 60.7056 46.605 60.7056C45.6172 60.7056 44.8164 61.5092 44.8164 62.5005C44.8164 63.4918 45.6172 64.2954 46.605 64.2954Z" fill="#055EA5"/>
<path d="M35.5631 56.5703C35.9582 56.5703 36.2786 56.2491 36.2786 55.8528C36.2786 55.4565 35.9582 55.1353 35.5631 55.1353C35.168 55.1353 34.8477 55.4565 34.8477 55.8528C34.8477 56.2491 35.168 56.5703 35.5631 56.5703Z" fill="#055EA5"/>
<path d="M35.5631 70.1807C35.9582 70.1807 36.2786 69.8594 36.2786 69.4631C36.2786 69.0669 35.9582 68.7456 35.5631 68.7456C35.168 68.7456 34.8477 69.0669 34.8477 69.4631C34.8477 69.8594 35.168 70.1807 35.5631 70.1807Z" fill="#055EA5"/>
<path d="M39.9811 49.6074C40.3762 49.6074 40.6965 49.2862 40.6965 48.8899C40.6965 48.4936 40.3762 48.1724 39.9811 48.1724C39.5859 48.1724 39.2656 48.4936 39.2656 48.8899C39.2656 49.2862 39.5859 49.6074 39.9811 49.6074Z" fill="#055EA5"/>
<path d="M39.9816 63.8466C40.7221 63.8466 41.3225 63.2439 41.3225 62.5005C41.3225 61.757 40.7221 61.1543 39.9816 61.1543C39.241 61.1543 38.6406 61.757 38.6406 62.5005C38.6406 63.2439 39.241 63.8466 39.9816 63.8466Z" fill="#055EA5"/>
<path d="M33.3561 63.2178C33.7512 63.2178 34.0715 62.8965 34.0715 62.5003C34.0715 62.104 33.7512 61.7827 33.3561 61.7827C32.9609 61.7827 32.6406 62.104 32.6406 62.5003C32.6406 62.8965 32.9609 63.2178 33.3561 63.2178Z" fill="#055EA5"/>
<path d="M39.9811 76.5117C40.3762 76.5117 40.6965 76.1905 40.6965 75.7942C40.6965 75.3979 40.3762 75.0767 39.9811 75.0767C39.5859 75.0767 39.2656 75.3979 39.2656 75.7942C39.2656 76.1905 39.5859 76.5117 39.9811 76.5117Z" fill="#055EA5"/>
<path d="M85.5926 83.0656C85.2966 83.0656 85.0414 82.9495 84.8709 82.7371C84.6952 82.53 84.6303 82.2466 84.6805 81.9485L84.9713 80.2958C85.0268 79.9977 85.1868 79.7195 85.4368 79.5071C85.6774 79.2948 85.9775 79.1787 86.2736 79.1787H87.7463C87.9063 79.1787 88.012 79.3095 87.9816 79.4664C87.9513 79.6285 87.8059 79.754 87.6459 79.754H86.1731C85.8771 79.754 85.5968 79.9967 85.5414 80.2948L85.2516 81.9474C85.2014 82.2455 85.4012 82.4882 85.6972 82.4882H87.17C87.33 82.4882 87.4304 82.6147 87.4053 82.7758C87.375 82.9327 87.2296 83.0635 87.0696 83.0635H85.5926V83.0656Z" fill="#055EA5"/>
<path d="M87.071 83.1654H85.593C85.2677 83.1654 84.9843 83.0357 84.795 82.8003C84.6035 82.5744 84.5282 82.2658 84.5847 81.9332L84.8744 80.2816C84.9341 79.9563 85.1119 79.6572 85.3744 79.4354C85.6307 79.2095 85.9518 79.084 86.275 79.084H87.7467C87.8513 79.084 87.9475 79.1279 88.0103 79.2032C88.0731 79.2806 88.0982 79.3842 88.0783 79.4877C88.0396 79.698 87.8534 79.8559 87.6463 79.8559H86.1736C85.9257 79.8559 85.6861 80.062 85.6391 80.3151L85.3493 81.9667C85.3295 82.0838 85.3556 82.1926 85.4236 82.2721C85.4884 82.3495 85.5868 82.3914 85.6976 82.3914H87.1704C87.2739 82.3914 87.366 82.4311 87.4287 82.5043C87.4936 82.5807 87.5208 82.6832 87.504 82.793C87.4632 83.0033 87.2739 83.1654 87.071 83.1654ZM86.274 79.2796C85.9989 79.2796 85.7248 79.3873 85.5031 79.5829C85.274 79.7775 85.1203 80.0369 85.069 80.3151L84.7793 81.9667C84.7332 82.2407 84.7929 82.4928 84.9477 82.6748C85.1004 82.8652 85.3295 82.9677 85.5941 82.9677H87.072C87.1819 82.9677 87.2886 82.8746 87.3116 82.7595C87.3189 82.7114 87.3084 82.6644 87.2812 82.633C87.2561 82.6037 87.2185 82.5891 87.1725 82.5891H85.6997C85.5292 82.5891 85.3786 82.5211 85.2751 82.3987C85.1694 82.2742 85.1276 82.1079 85.1579 81.9322L85.4476 80.2806C85.5125 79.9302 85.8326 79.6572 86.1756 79.6572H87.6484C87.7603 79.6572 87.8659 79.5662 87.8869 79.4501C87.8963 79.402 87.8869 79.3591 87.8597 79.3267C87.8346 79.2953 87.7948 79.2785 87.7488 79.2785H86.274V79.2796Z" fill="#055EA5"/>
<path d="M93.421 83.0656C93.1261 83.0656 92.8646 82.9495 92.6951 82.7371C92.5194 82.53 92.4545 82.2466 92.5048 81.9485L92.7955 80.2958C92.851 79.9977 93.011 79.7195 93.262 79.5071C93.5026 79.2948 93.7976 79.1787 94.0936 79.1787H95.0402C95.3352 79.1787 95.5914 79.2948 95.7661 79.5071C95.9314 79.7195 96.0015 79.9967 95.946 80.2958L95.6563 81.9485C95.6061 82.2466 95.4408 82.53 95.2002 82.7371C94.9544 82.9495 94.6542 83.0656 94.3582 83.0656H93.421ZM93.9974 79.7561C93.7024 79.7561 93.421 79.9988 93.3666 80.2969L93.0759 81.9495C93.0257 82.2476 93.2265 82.4903 93.5214 82.4903H94.4576C94.7536 82.4903 95.0339 82.2476 95.0841 81.9495L95.3739 80.2969C95.4293 79.9988 95.2285 79.7561 94.9335 79.7561H93.9974Z" fill="#055EA5"/>
<path d="M94.3591 83.1655H93.423C93.0935 83.1655 92.808 83.0358 92.6197 82.8004C92.4283 82.5755 92.353 82.2659 92.4084 81.9333L92.6992 80.2807C92.7588 79.9554 92.9366 79.6562 93.1992 79.4345C93.4554 79.2085 93.7744 79.083 94.0935 79.083H95.0411C95.3643 79.083 95.6488 79.2127 95.8434 79.447C96.0327 79.6886 96.1038 79.9972 96.0442 80.3152L95.7545 81.9668C95.7001 82.2879 95.5265 82.5891 95.265 82.813C95.0014 83.0389 94.6803 83.1655 94.3591 83.1655ZM94.0924 79.2797C93.8205 79.2797 93.5485 79.3874 93.3268 79.583C93.0977 79.7775 92.9439 80.0369 92.8927 80.3152L92.6019 81.9668C92.5559 82.2408 92.6165 82.4929 92.7713 82.6749C92.9241 82.8653 93.1542 82.9678 93.4219 82.9678H94.3581C94.6321 82.9678 94.9083 82.86 95.1353 82.6634C95.3581 82.472 95.5129 82.2052 95.5589 81.9322L95.8486 80.2807C95.8967 80.0171 95.8402 79.766 95.6875 79.5704C95.5327 79.3832 95.3026 79.2797 95.039 79.2797H94.0924ZM94.4585 82.5891H93.5224C93.3519 82.5891 93.2012 82.5222 93.0987 82.3998C92.992 82.2753 92.9502 82.109 92.9795 81.9333L93.2703 80.2807C93.3351 79.9303 93.6552 79.6572 93.9983 79.6572H94.9344C95.106 79.6572 95.2576 79.7252 95.3601 79.8487C95.4647 79.9742 95.5045 80.1405 95.4721 80.3141L95.1823 81.9657C95.1248 82.3088 94.7995 82.5891 94.4585 82.5891ZM93.9983 79.8549C93.7504 79.8549 93.5109 80.061 93.4638 80.3141L93.173 81.9657C93.1542 82.0829 93.1803 82.1916 93.2483 82.2722C93.3132 82.3496 93.4104 82.3914 93.5224 82.3914H94.4585C94.7074 82.3914 94.9449 82.1854 94.9878 81.9322L95.2775 80.2807C95.2995 80.1635 95.2744 80.0558 95.2085 79.9763C95.1436 79.8989 95.0463 79.856 94.9344 79.856H93.9983V79.8549Z" fill="#055EA5"/>
<path d="M100.912 83.0654C100.756 83.0654 100.646 82.9389 100.672 82.783L101.252 79.4683C101.282 79.3114 101.432 79.1807 101.588 79.1807C101.748 79.1807 101.854 79.3114 101.823 79.4683L101.297 82.4901H103.116C103.276 82.4901 103.376 82.6167 103.351 82.7778C103.321 82.9347 103.176 83.0654 103.016 83.0654H100.912Z" fill="#055EA5"/>
<path d="M103.013 83.1655H100.909C100.806 83.1655 100.709 83.1226 100.646 83.0473C100.581 82.9709 100.555 82.8726 100.571 82.768L101.153 79.4522C101.193 79.2441 101.383 79.083 101.586 79.083C101.691 79.083 101.788 79.1269 101.851 79.2023C101.913 79.2797 101.938 79.3832 101.919 79.4868L101.412 82.3914H103.114C103.218 82.3914 103.31 82.4312 103.372 82.5044C103.437 82.5808 103.465 82.6833 103.447 82.7931C103.406 83.0033 103.216 83.1655 103.013 83.1655ZM101.585 79.2797C101.479 79.2797 101.367 79.3769 101.345 79.4868L100.765 82.8004C100.758 82.8454 100.768 82.8883 100.795 82.9196C100.822 82.951 100.862 82.9678 100.908 82.9678H103.012C103.121 82.9678 103.228 82.8747 103.251 82.7596C103.258 82.7115 103.248 82.6644 103.221 82.6331C103.196 82.6038 103.158 82.5891 103.112 82.5891H101.176L101.722 79.4512C101.731 79.4031 101.722 79.3591 101.696 79.3278C101.672 79.2964 101.632 79.2797 101.585 79.2797Z" fill="#055EA5"/>
<path d="M109.242 83.0656C108.946 83.0656 108.686 82.9495 108.515 82.7371C108.34 82.53 108.275 82.2466 108.325 81.9485L108.616 80.2958C108.671 79.9977 108.831 79.7195 109.082 79.5071C109.323 79.2948 109.619 79.1787 109.914 79.1787H110.861C111.155 79.1787 111.412 79.2948 111.586 79.5071C111.752 79.7195 111.822 79.9967 111.767 80.2958L111.477 81.9485C111.426 82.2466 111.261 82.53 111.021 82.7371C110.775 82.9495 110.475 83.0656 110.179 83.0656H109.242ZM109.819 79.7561C109.523 79.7561 109.242 79.9988 109.187 80.2969L108.896 81.9495C108.846 82.2476 109.047 82.4903 109.342 82.4903H110.278C110.573 82.4903 110.854 82.2476 110.904 81.9495L111.195 80.2969C111.251 79.9988 111.05 79.7561 110.755 79.7561H109.819Z" fill="#055EA5"/>
<path d="M110.176 83.1654H109.24C108.91 83.1654 108.626 83.0357 108.436 82.8003C108.244 82.5744 108.169 82.2658 108.225 81.9332L108.516 80.2816C108.577 79.9563 108.754 79.6561 109.016 79.4354C109.272 79.2095 109.591 79.084 109.911 79.084H110.858C111.181 79.084 111.466 79.2137 111.66 79.448C111.85 79.6906 111.921 79.9982 111.862 80.3161L111.572 81.9677C111.518 82.2889 111.345 82.5901 111.084 82.8139C110.819 83.0388 110.497 83.1654 110.176 83.1654ZM109.911 79.2796C109.64 79.2796 109.368 79.3873 109.145 79.5829C108.913 79.7796 108.763 80.0316 108.711 80.3151L108.42 81.9667C108.374 82.2407 108.433 82.4928 108.588 82.6748C108.741 82.8652 108.972 82.9677 109.24 82.9677H110.176C110.45 82.9677 110.726 82.86 110.953 82.6633C111.176 82.4709 111.331 82.2041 111.377 81.9322L111.667 80.2806C111.715 80.018 111.658 79.766 111.506 79.5704C111.352 79.3831 111.121 79.2796 110.857 79.2796H109.911ZM110.278 82.5891H109.34C109.17 82.5891 109.019 82.5211 108.916 82.3997C108.81 82.2742 108.767 82.1079 108.797 81.9322L109.088 80.2806C109.153 79.9302 109.473 79.6572 109.816 79.6572H110.752C110.924 79.6572 111.076 79.7252 111.178 79.8486C111.283 79.9741 111.322 80.1404 111.29 80.3141L110.999 81.9656C110.943 82.3087 110.619 82.5891 110.278 82.5891ZM109.816 79.8549C109.568 79.8549 109.329 80.0609 109.282 80.3141L108.991 81.9656C108.971 82.0828 108.997 82.1916 109.065 82.2711C109.13 82.3485 109.228 82.3903 109.339 82.3903H110.277C110.526 82.3903 110.763 82.1853 110.806 81.9322L111.097 80.2795C111.119 80.1624 111.093 80.0547 111.028 79.9752C110.963 79.8978 110.865 79.8549 110.753 79.8549H109.816Z" fill="#055EA5"/>
<path d="M119.55 82.7778L119.95 80.4589L118.673 82.0351C118.612 82.1157 118.513 82.1659 118.413 82.1659C118.312 82.1659 118.233 82.1157 118.193 82.0351L117.466 80.4589L117.064 82.7778C117.034 82.9347 116.889 83.0654 116.729 83.0654C116.574 83.0654 116.463 82.9347 116.493 82.7778L117.07 79.4683C117.1 79.3114 117.251 79.1807 117.405 79.1807C117.506 79.1807 117.586 79.2309 117.626 79.3114L118.558 81.3427L120.201 79.3114C120.262 79.2309 120.361 79.1807 120.462 79.1807C120.622 79.1807 120.727 79.3114 120.697 79.4683L120.121 82.7778C120.09 82.9347 119.945 83.0654 119.785 83.0654C119.625 83.0654 119.519 82.9347 119.55 82.7778Z" fill="#055EA5"/>
<path d="M119.784 83.1654C119.677 83.1654 119.584 83.1225 119.521 83.0461C119.457 82.9698 119.432 82.8662 119.452 82.7616L119.788 80.8161L118.749 82.0985C118.673 82.201 118.543 82.2669 118.412 82.2669C118.276 82.2669 118.161 82.1979 118.103 82.0797L117.508 80.7889L117.162 82.7962C117.122 83.0043 116.933 83.1664 116.729 83.1664C116.625 83.1664 116.529 83.1225 116.466 83.0451C116.403 82.9677 116.377 82.8641 116.397 82.7616L116.973 79.4532C117.012 79.2493 117.206 79.084 117.406 79.084C117.542 79.084 117.657 79.153 117.714 79.2712L118.581 81.1592L120.124 79.2524C120.26 79.0683 120.584 79.0327 120.726 79.2043C120.788 79.2817 120.813 79.3852 120.794 79.4888L120.218 82.7972C120.177 83.0033 119.987 83.1654 119.784 83.1654ZM120.112 80.1028L119.646 82.7962C119.637 82.8443 119.646 82.8872 119.673 82.9196C119.698 82.951 119.738 82.9677 119.785 82.9677C119.895 82.9677 120.002 82.8746 120.025 82.7595L120.6 79.4511C120.609 79.403 120.6 79.3591 120.574 79.3277C120.51 79.2524 120.35 79.2796 120.28 79.3716L118.534 81.5295L117.536 79.3538C117.513 79.3068 117.466 79.2806 117.406 79.2806C117.3 79.2806 117.188 79.3779 117.166 79.4877L116.591 82.7962C116.581 82.8443 116.592 82.8872 116.618 82.9196C116.644 82.951 116.684 82.9687 116.729 82.9687C116.839 82.9687 116.946 82.8757 116.967 82.7606L117.422 80.13L118.282 81.9949C118.331 82.0943 118.517 82.0807 118.594 81.9772L120.112 80.1028Z" fill="#055EA5"/>
<path d="M125.513 83.0659C125.358 83.0659 125.252 82.9352 125.283 82.7783L125.859 79.4688C125.889 79.3119 126.04 79.1812 126.195 79.1812H127.858C128.153 79.1812 128.414 79.2973 128.589 79.5096C128.754 79.7219 128.824 79.9991 128.77 80.2983C128.739 80.4604 128.685 80.611 128.594 80.7585C128.504 80.8945 128.399 81.021 128.264 81.1225V81.1277C128.364 81.2334 128.424 81.3547 128.464 81.4969C128.504 81.6382 128.509 81.795 128.479 81.9519C128.429 82.25 128.264 82.5335 128.023 82.7406C127.777 82.9529 127.482 83.0691 127.186 83.0691H125.513V83.0659ZM127.281 82.4896C127.576 82.4896 127.858 82.2469 127.908 81.9488C127.963 81.6559 127.763 81.4133 127.468 81.4133H126.09L125.905 82.4896H127.281ZM127.567 80.8328C127.862 80.8328 128.147 80.5953 128.198 80.2972C128.253 79.9991 128.052 79.7564 127.757 79.7564H126.38L126.189 80.8328H127.567Z" fill="#055EA5"/>
<path d="M127.183 83.165H125.51C125.407 83.165 125.313 83.1211 125.251 83.0458C125.188 82.9684 125.163 82.8638 125.182 82.7592L125.758 79.4508C125.797 79.2468 125.991 79.0815 126.19 79.0815H127.853C128.179 79.0815 128.466 79.2112 128.66 79.4455C128.85 79.6882 128.921 79.9957 128.862 80.3137C128.829 80.4957 128.767 80.6568 128.674 80.8074C128.586 80.9402 128.495 81.048 128.397 81.1348C128.466 81.2289 128.517 81.3356 128.555 81.4664C128.599 81.6212 128.605 81.7938 128.571 81.9663C128.518 82.2854 128.344 82.5866 128.083 82.8115C127.821 83.0385 127.5 83.165 127.183 83.165ZM126.191 79.2792C126.085 79.2792 125.973 79.3765 125.952 79.4863L125.377 82.7948C125.368 82.8439 125.377 82.8889 125.404 82.9203C125.429 82.9506 125.467 82.9673 125.511 82.9673H127.184C127.455 82.9673 127.729 82.8596 127.956 82.663C128.18 82.4705 128.334 82.2048 128.38 81.9329C128.407 81.7885 128.403 81.6463 128.367 81.5208C128.329 81.3848 128.272 81.2791 128.191 81.1934L128.163 81.1651V81.0762L128.203 81.0417C128.315 80.957 128.413 80.8492 128.51 80.7018C128.588 80.5742 128.641 80.435 128.671 80.2781C128.719 80.0166 128.662 79.7646 128.51 79.57C128.356 79.3828 128.123 79.2792 127.856 79.2792H126.191ZM127.278 82.5887H125.783L126.001 81.3147H127.463C127.635 81.3147 127.787 81.3837 127.889 81.5072C127.992 81.6306 128.032 81.7979 128 81.9663C127.944 82.3084 127.62 82.5887 127.278 82.5887ZM126.018 82.391H127.279C127.528 82.391 127.765 82.185 127.808 81.9318C127.829 81.8178 127.805 81.7122 127.739 81.6337C127.674 81.5553 127.577 81.5124 127.464 81.5124H126.169L126.018 82.391ZM127.564 80.9319H126.068L126.293 79.6579H127.754C127.926 79.6579 128.077 79.7259 128.18 79.8493C128.285 79.9748 128.325 80.1411 128.293 80.3148C128.235 80.6547 127.908 80.9319 127.564 80.9319ZM126.304 80.7342H127.564C127.812 80.7342 128.057 80.526 128.098 80.2802C128.118 80.1631 128.094 80.0554 128.027 79.9748C127.963 79.8974 127.865 79.8556 127.753 79.8556H126.459L126.304 80.7342Z" fill="#055EA5"/>
<path d="M133.497 82.7783L134.073 79.4688C134.104 79.3119 134.254 79.1812 134.409 79.1812C134.569 79.1812 134.675 79.3119 134.644 79.4688L134.068 82.7783C134.038 82.9352 133.892 83.0659 133.732 83.0659C133.577 83.0659 133.468 82.9352 133.497 82.7783Z" fill="#055EA5"/>
<path d="M133.73 83.165C133.626 83.165 133.53 83.1211 133.466 83.0437C133.403 82.9663 133.377 82.8638 133.397 82.7602L133.974 79.4508C134.013 79.2468 134.207 79.0815 134.407 79.0815C134.511 79.0815 134.609 79.1255 134.671 79.2018C134.734 79.2782 134.759 79.3817 134.739 79.4853L134.164 82.7937C134.122 83.0029 133.933 83.165 133.73 83.165ZM134.406 79.2792C134.3 79.2792 134.188 79.3765 134.166 79.4863L133.59 82.7969C133.581 82.8429 133.591 82.8868 133.617 82.9182C133.643 82.9496 133.683 82.9673 133.728 82.9673C133.838 82.9673 133.944 82.8743 133.967 82.7592L134.543 79.4508C134.552 79.4027 134.543 79.3587 134.516 79.3274C134.492 79.296 134.453 79.2792 134.406 79.2792Z" fill="#055EA5"/>
<path d="M141.667 82.7783L141.878 81.5504H140.06L139.85 82.7783C139.819 82.9352 139.674 83.066 139.514 83.066C139.359 83.066 139.248 82.9352 139.278 82.7783L139.709 80.2973C139.765 79.9992 139.925 79.7209 140.175 79.5086C140.415 79.2963 140.716 79.1802 141.012 79.1802H141.758C142.054 79.1802 142.315 79.2963 142.49 79.5086C142.655 79.7209 142.725 79.9981 142.67 80.2973L142.239 82.7783C142.208 82.9352 142.063 83.066 141.903 83.066C141.748 83.066 141.637 82.9352 141.667 82.7783ZM141.983 80.9688L142.098 80.2973C142.154 79.9992 141.953 79.7565 141.658 79.7565H140.911C140.616 79.7565 140.335 79.9992 140.28 80.2973L140.165 80.9688H141.983Z" fill="#055EA5"/>
<path d="M141.903 83.1654C141.799 83.1654 141.703 83.1215 141.64 83.0441C141.577 82.9677 141.552 82.8641 141.571 82.7606L141.762 81.6498H140.144L139.947 82.7951C139.907 83.0033 139.717 83.1654 139.514 83.1654C139.41 83.1654 139.314 83.1215 139.251 83.0441C139.188 82.9666 139.163 82.8631 139.182 82.7606L139.612 80.2816C139.672 79.9574 139.85 79.6572 140.111 79.4354C140.369 79.2095 140.689 79.084 141.012 79.084H141.759C142.085 79.084 142.372 79.2137 142.566 79.448C142.755 79.6906 142.827 79.9982 142.768 80.3161L142.337 82.7962C142.296 83.0033 142.106 83.1654 141.903 83.1654ZM139.976 81.4521H141.995L141.765 82.7972C141.757 82.8432 141.766 82.8872 141.792 82.9185C141.818 82.9499 141.858 82.9677 141.903 82.9677C142.013 82.9677 142.12 82.8746 142.143 82.7595L142.572 80.2806C142.621 80.018 142.564 79.766 142.411 79.5704C142.257 79.3831 142.024 79.2796 141.758 79.2796H141.011C140.736 79.2796 140.462 79.3873 140.239 79.5829C140.01 79.7775 139.857 80.0369 139.805 80.3151L139.374 82.7951C139.364 82.8432 139.375 82.8861 139.401 82.9185C139.427 82.951 139.467 82.9677 139.512 82.9677C139.622 82.9677 139.728 82.8746 139.751 82.7595L139.976 81.4521ZM142.066 81.0682H140.047L140.182 80.2806C140.247 79.9302 140.567 79.6572 140.91 79.6572H141.656C141.828 79.6572 141.979 79.7252 142.082 79.8486C142.186 79.9741 142.226 80.1404 142.194 80.3141L142.066 81.0682ZM140.282 80.8705H141.9L142 80.2806C142.022 80.1634 141.997 80.0557 141.931 79.9762C141.866 79.8988 141.769 79.8559 141.657 79.8559H140.911C140.664 79.8559 140.424 80.062 140.377 80.3151L140.282 80.8705Z" fill="#055EA5"/>
</svg>
