<?xml version="1.0" encoding="UTF-8"?><svg id="Capa_1" xmlns="http://www.w3.org/2000/svg" viewBox="0 0 50 50"><defs><style>.cls-1{fill:#b7b6b6;}.cls-2{fill:#1b1b1b;}.cls-3{fill:#818181;}.cls-4{fill:#eaeaea;}.cls-5{fill:#bebebe;}.cls-6{fill:#353535;}.cls-7{fill:#ccc;}.cls-8{fill:#545454;}</style></defs><g><path class="cls-1" d="M45.71,15.58l-8.32-1.87c-.38-.09-.76,.15-.85,.54l-7.06,31.35,10.28,.03,6.49-29.2c.09-.38-.15-.76-.54-.85Z"/><g><rect class="cls-7" x="37.51" y="15.75" width="2.9" height="3.21" rx=".63" ry=".63" transform="translate(4.76 -8.13) rotate(12.69)"/><rect class="cls-7" x="41.28" y="16.59" width="2.9" height="3.21" rx=".63" ry=".63" transform="translate(5.04 -8.94) rotate(12.69)"/></g><g><rect class="cls-7" x="36.51" y="20.18" width="2.9" height="3.21" rx=".63" ry=".63" transform="translate(5.71 -7.8) rotate(12.69)"/><rect class="cls-7" x="40.28" y="21.03" width="2.9" height="3.21" rx=".63" ry=".63" transform="translate(5.99 -8.61) rotate(12.69)"/></g><path class="cls-2" d="M36.19,45.63h-3.33l.45-2.29c.06-.28,.34-.45,.62-.39l2.39,.54c.28,.06,.45,.34,.39,.62l-.51,1.53Z"/><path class="cls-7" d="M39.5,13.05h4.44c.3,0,.54,.24,.54,.54v1.06h-5.53v-1.06c0-.3,.24-.54,.54-.54Z" transform="translate(4.06 -8.82) rotate(12.69)"/><g><rect class="cls-7" x="35.48" y="24.76" width="2.9" height="3.21" rx=".63" ry=".63" transform="translate(6.69 -7.47) rotate(12.69)"/><rect class="cls-7" x="39.25" y="25.61" width="2.9" height="3.21" rx=".63" ry=".63" transform="translate(6.97 -8.27) rotate(12.69)"/></g><g><rect class="cls-7" x="34.45" y="29.34" width="2.9" height="3.21" rx=".63" ry=".63" transform="translate(7.67 -7.13) rotate(12.69)"/><rect class="cls-7" x="38.22" y="30.19" width="2.9" height="3.21" rx=".63" ry=".63" transform="translate(7.95 -7.94) rotate(12.69)"/></g><g><rect class="cls-7" x="33.42" y="33.91" width="2.9" height="3.21" rx=".63" ry=".63" transform="translate(8.65 -6.79) rotate(12.69)"/><rect class="cls-7" x="37.19" y="34.76" width="2.9" height="3.21" rx=".63" ry=".63" transform="translate(8.93 -7.6) rotate(12.69)"/></g><g><rect class="cls-7" x="32.39" y="38.49" width="2.9" height="3.21" rx=".63" ry=".63" transform="translate(9.63 -6.45) rotate(12.69)"/><rect class="cls-7" x="36.16" y="39.34" width="2.9" height="3.21" rx=".63" ry=".63" transform="translate(9.91 -7.26) rotate(12.69)"/></g></g><path class="cls-5" d="M12,31.98c2.26-6.66,3.38-13.64,4-20.79-.14-.02-.27-.02-.4-.05-.29-.07-.49-.4-.49-.77,0-.53,0-1.06,0-1.59,0-.65,.14-.85,.66-.97,0-.25,0-.51,0-.77,0-.47,.29-.85,.66-.86,.25,0,.49,0,.76,0l.36-2.07c.05-.28,.36-.27,.4,0l.31,2.06,.07,.06c.99-.19,1.35,0,1.35,.94,0,.21,0,.42,0,.64,.08,.02,.15,.04,.22,.07,.26,.1,.44,.42,.44,.76,0,.52,0,1.05,0,1.57,.01,.57-.24,1.05-.74,.96-.04,0-.09,0-.15,.02,.63,7.15,1.75,14.13,4,20.79,.13,.39-.09,.82-.42,.82-.73,0-1.86,0-2.5,0-.15,0-.22-.06-.26-.25-.47-2.06-.95-4.11-1.43-6.17-.06-.25-.14-.29-.44-.23-.46,.09-.94,.08-1.4,0-.27-.05-.34-.01-.39,.2-.47,2.06-.96,4.13-1.43,6.19-.04,.18-.1,.25-.25,.25-.65,0-1.77,0-2.51,0-.33,0-.55-.43-.42-.82Z"/><path class="cls-5" d="M26.24,46.1c-1.1,0-2.1-.89-2.43-2.23-.04-.17-.09-.35-.14-.52-.4-1.43-1.02-2.71-1.92-3.73-1-1.13-2.19-1.71-3.52-1.81-1.16-.09-2.29,.1-3.34,.78-1.31,.84-2.19,2.19-2.82,3.85-.18,.48-.34,.97-.46,1.47-.34,1.32-1.33,2.19-2.42,2.19h-2.83c-.16,0-.25-.21-.18-.39,.71-1.6,3.47-7.77,4.91-11.01,.07-.16,.2-.25,.34-.25,4.17,0,8.34,0,12.51,0,.18,0,.35,.13,.45,.33,1.43,3.22,4.17,9.34,4.88,10.94,.08,.17-.02,.39-.18,.39h-2.85Z"/><rect class="cls-6" x="10.35" y="31.35" width="14.73" height="2.13" rx=".94" ry=".94"/><rect class="cls-6" x="12.29" y="24.73" width="10.87" height="1.57" rx=".69" ry=".69"/><rect class="cls-8" x="15.65" y="6.03" width="4.15" height="3.94" rx=".94" ry=".94"/><rect class="cls-3" x="14.53" y="7.46" width="6.39" height="3.94" rx="1.17" ry="1.17"/><path class="cls-6" d="M5.71,43.96H44.29c1.18,0,2.14,.96,2.14,2.14H3.57c0-1.18,.96-2.14,2.14-2.14Z"/><path class="cls-4" d="M37.15,10.6h-4.8c-.27-1.38-1.73-2.43-3.5-2.43s-3.24,1.05-3.5,2.43h-1.33c-.39,0-.71,.32-.71,.71s.32,.71,.71,.71h13.13c.39,0,.71-.32,.71-.71s-.32-.71-.71-.71h0Z"/></svg>