<?xml version="1.0" encoding="UTF-8"?><svg id="Capa_1" xmlns="http://www.w3.org/2000/svg" viewBox="0 0 50 50"><defs><style>.cls-1{fill:#b7b6b6;}.cls-2{fill:#ff2802;}.cls-3{fill:#1b1c1c;}.cls-4{fill:#818181;}.cls-5{fill:#eaeaea;}.cls-6{fill:#d3d2d2;}.cls-7{fill:#be0d0d;}</style></defs><path class="cls-4" d="M11.79,21.49c-.49,0-.8-.53-.56-.96,1.12-2.04,3.27-3.35,5.66-3.35h3.47v-1.87h-3.99c-3.32,0-6.25,2.15-7.26,5.31l-.28,.88h-.11l3.6,9h8.04v-9H11.79Z"/><path class="cls-1" d="M36.04,21.08l-7.05-4.17c-1.79-1.06-3.82-1.61-5.9-1.61h-2.73v1.87h2.23c1.76,0,3.49,.47,5,1.37l3.02,1.79c.54,.32,.32,1.16-.32,1.16h-9.94v9h15.74v-9.4h-.06Z"/><path class="cls-1" d="M47.54,26.27h-3.33c-.83,0-1.57-.5-1.88-1.27l-.21-.54c-.19-.48,.16-1,.68-1h3.53c-1.12-1.44-2.87-2.37-4.83-2.37h-5.4v9.4h9.45c1.15,0,2.08-.93,2.08-2.08v-1.19c0-.32-.03-.64-.08-.95Z"/><rect class="cls-3" x="21.46" y="23.01" width="3.89" height="1.46" rx=".73" ry=".73"/><rect class="cls-3" x="14.99" y="23.01" width="3.89" height="1.46" rx=".73" ry=".73"/><circle class="cls-3" cx="36.66" cy="30.76" r="3.94"/><path class="cls-6" d="M11.23,20.53c-.24,.43,.07,.96,.56,.96h8.57v-4.31h-3.47c-2.39,0-4.54,1.31-5.66,3.35Z"/><path class="cls-5" d="M30.29,21.49c.63,0,.86-.83,.32-1.16l-3.02-1.79c-1.52-.9-3.24-1.37-5-1.37h-2.23v4.31h9.94Z"/><g><path class="cls-2" d="M44.41,24.58c0-.31,.25-.56,.56-.56h1.74c-.12-.19-.24-.38-.38-.56h-3.53c-.52,0-.87,.52-.68,1l.21,.54c.31,.77,1.05,1.27,1.88,1.27h3.33c-.06-.39-.17-.76-.3-1.12h-2.27c-.31,0-.56-.25-.56-.56Z"/><path class="cls-7" d="M44.97,24.02c-.31,0-.56,.25-.56,.56s.25,.56,.56,.56h2.27c-.14-.39-.32-.77-.53-1.12h-1.74Z"/></g><g><path class="cls-4" d="M8.72,21.49h-3.64c-1.24,0-2.27,.83-2.59,1.97h3.32c.52,0,.87,.52,.68,1l-.21,.54c-.31,.77-1.05,1.27-1.88,1.27H2.38v1.38c0,1.57,1.27,2.84,2.84,2.84h7.1l-3.6-9Z"/><path class="cls-2" d="M6.28,24.99l.21-.54c.19-.48-.16-1-.68-1H2.49c-.05,.18-.08,.37-.1,.56h1.25c.31,0,.56,.25,.56,.56s-.25,.56-.56,.56h-1.27v1.12h2.02c.83,0,1.57-.5,1.88-1.27Z"/><path class="cls-7" d="M2.38,25.14h1.27c.31,0,.56-.25,.56-.56s-.25-.56-.56-.56h-1.25c0,.06-.02,.11-.02,.17v.95Z"/></g><circle class="cls-3" cx="11.36" cy="30.76" r="3.94"/></svg>