<?xml version="1.0" encoding="UTF-8"?><svg id="Capa_1" xmlns="http://www.w3.org/2000/svg" viewBox="0 0 50 50"><defs><style>.cls-1{fill:#b7b6b6;}.cls-2{fill:#1b1b1b;}.cls-3{fill:#ccc;}.cls-4{fill:#bbb;}.cls-5{fill:red;}</style></defs><path class="cls-4" d="M7.82,44.59H42.18c.83,0,1.5,.67,1.5,1.5H6.31c0-.83,.67-1.5,1.5-1.5Z"/><path class="cls-1" d="M17.02,16.56h15.67c.72,0,1.31,.59,1.31,1.31v26.72H15.71V17.87c0-.72,.59-1.31,1.31-1.31Z"/><g><rect class="cls-3" x="18.65" y="19.51" width="5.32" height="5.9" rx="1.16" ry="1.16"/><rect class="cls-3" x="25.74" y="19.51" width="5.32" height="5.9" rx="1.16" ry="1.16"/></g><g><rect class="cls-3" x="18.65" y="27.87" width="5.32" height="5.9" rx="1.16" ry="1.16"/><rect class="cls-3" x="25.74" y="27.87" width="5.32" height="5.9" rx="1.16" ry="1.16"/></g><path class="cls-2" d="M22.76,35.74h4.19c.61,0,1.1,.49,1.1,1.1v7.75h-6.39v-7.75c0-.61,.49-1.1,1.1-1.1Z"/><path class="cls-3" d="M19.04,13.61h11.63c.65,0,1.17,.53,1.17,1.17v1.78h-13.98v-1.78c0-.65,.53-1.17,1.17-1.17Z"/><g><path class="cls-5" d="M12.88,10.38l-.97,.51c-.21,.11-.45-.07-.41-.29l.19-1.07c.02-.09-.01-.18-.08-.25l-.79-.76c-.17-.16-.07-.44,.15-.47l1.09-.16c.09-.01,.17-.07,.21-.15l.49-.98c.1-.21,.4-.21,.5,0l.49,.98c.04,.08,.12,.14,.21,.15l1.09,.16c.23,.03,.32,.31,.15,.47l-.79,.76c-.07,.06-.1,.16-.08,.25l.19,1.07c.04,.23-.2,.4-.41,.29l-.97-.51c-.08-.04-.18-.04-.26,0h0Z"/><path class="cls-5" d="M18.8,8.76l-.97,.51c-.21,.11-.45-.07-.41-.29l.19-1.07c.02-.09-.01-.18-.08-.25l-.79-.76c-.17-.16-.07-.44,.15-.47l1.09-.16c.09-.01,.17-.07,.21-.15l.49-.98c.1-.21,.4-.21,.5,0l.49,.98c.04,.08,.12,.14,.21,.15l1.09,.16c.23,.03,.32,.31,.15,.47l-.79,.76c-.07,.06-.1,.16-.08,.25l.19,1.07c.04,.23-.2,.4-.41,.29l-.97-.51c-.08-.04-.18-.04-.26,0h0Z"/><path class="cls-5" d="M24.73,7.68l-.97,.51c-.21,.11-.45-.07-.41-.29l.19-1.07c.02-.09-.01-.18-.08-.25l-.79-.76c-.17-.16-.07-.44,.15-.47l1.09-.16c.09-.01,.17-.07,.21-.15l.49-.98c.1-.21,.4-.21,.5,0l.49,.98c.04,.08,.12,.14,.21,.15l1.09,.16c.23,.03,.32,.31,.15,.47l-.79,.76c-.07,.06-.1,.16-.08,.25l.19,1.07c.04,.23-.2,.4-.41,.29l-.97-.51c-.08-.04-.18-.04-.26,0h0Z"/><path class="cls-5" d="M30.65,8.76l-.97,.51c-.21,.11-.45-.07-.41-.29l.19-1.07c.02-.09-.01-.18-.08-.25l-.79-.76c-.17-.16-.07-.44,.15-.47l1.09-.16c.09-.01,.17-.07,.21-.15l.49-.98c.1-.21,.4-.21,.5,0l.49,.98c.04,.08,.12,.14,.21,.15l1.09,.16c.23,.03,.32,.31,.15,.47l-.79,.76c-.07,.06-.1,.16-.08,.25l.19,1.07c.04,.23-.2,.4-.41,.29l-.97-.51c-.08-.04-.18-.04-.26,0h0Z"/><path class="cls-5" d="M36.58,10.38l-.97,.51c-.21,.11-.45-.07-.41-.29l.19-1.07c.02-.09-.01-.18-.08-.25l-.79-.76c-.17-.16-.07-.44,.15-.47l1.09-.16c.09-.01,.17-.07,.21-.15l.49-.98c.1-.21,.4-.21,.5,0l.49,.98c.04,.08,.12,.14,.21,.15l1.09,.16c.23,.03,.32,.31,.15,.47l-.79,.76c-.07,.06-.1,.16-.08,.25l.19,1.07c.04,.23-.2,.4-.41,.29l-.97-.51c-.08-.04-.18-.04-.26,0h0Z"/></g></svg>