<svg width="30" height="25" viewBox="0 0 30 25" fill="none" xmlns="http://www.w3.org/2000/svg">
<path d="M21.769 15.0926C25.9367 15.0926 29.3153 11.714 29.3153 7.5463C29.3153 3.37859 25.9367 0 21.769 0C17.6013 0 14.2227 3.37859 14.2227 7.5463C14.2227 11.714 17.6013 15.0926 21.769 15.0926Z" fill="#FDB813"/>
<path fill-rule="evenodd" clip-rule="evenodd" d="M16.8867 8.56543H24.2915V24.1983H16.8867V8.56543ZM17.1869 8.86557V23.8981H23.9914V8.86557H17.1869Z" fill="#616166"/>
<path fill-rule="evenodd" clip-rule="evenodd" d="M1.73828 8.56543H9.14309V24.1983H1.73828V8.56543ZM2.03842 8.86557V23.8981H8.84295V8.86557H2.03842Z" fill="#616166"/>
<path fill-rule="evenodd" clip-rule="evenodd" d="M8.85938 2.86279H17.1817V24.1982H8.85938V2.86279ZM9.15951 3.16293V23.8981H16.8816V3.16293H9.15951Z" fill="#616166"/>
<path fill-rule="evenodd" clip-rule="evenodd" d="M10.4743 4.15771C10.5572 4.15771 10.6244 4.2249 10.6244 4.30778V5.11815C10.6244 5.20103 10.5572 5.26822 10.4743 5.26822C10.3914 5.26822 10.3242 5.20103 10.3242 5.11815V4.30778C10.3242 4.2249 10.3914 4.15771 10.4743 4.15771Z" fill="#616166"/>
<path fill-rule="evenodd" clip-rule="evenodd" d="M10.4743 6.44287C10.5572 6.44287 10.6244 6.51006 10.6244 6.59294V20.6093C10.6244 20.6922 10.5572 20.7594 10.4743 20.7594C10.3914 20.7594 10.3242 20.6922 10.3242 20.6093V6.59294C10.3242 6.51006 10.3914 6.44287 10.4743 6.44287Z" fill="#616166"/>
<path fill-rule="evenodd" clip-rule="evenodd" d="M10.4743 21.1973C10.5572 21.1973 10.6244 21.2645 10.6244 21.3473V22.1577C10.6244 22.2406 10.5572 22.3078 10.4743 22.3078C10.3914 22.3078 10.3242 22.2406 10.3242 22.1577V21.3473C10.3242 21.2645 10.3914 21.1973 10.4743 21.1973Z" fill="#616166"/>
<path fill-rule="evenodd" clip-rule="evenodd" d="M12.1774 4.15771C12.2603 4.15771 12.3275 4.2249 12.3275 4.30778V5.11815C12.3275 5.20103 12.2603 5.26822 12.1774 5.26822C12.0945 5.26822 12.0273 5.20103 12.0273 5.11815V4.30778C12.0273 4.2249 12.0945 4.15771 12.1774 4.15771Z" fill="#616166"/>
<path fill-rule="evenodd" clip-rule="evenodd" d="M12.1774 6.44287C12.2603 6.44287 12.3275 6.51006 12.3275 6.59294V20.6093C12.3275 20.6922 12.2603 20.7594 12.1774 20.7594C12.0945 20.7594 12.0273 20.6922 12.0273 20.6093V6.59294C12.0273 6.51006 12.0945 6.44287 12.1774 6.44287Z" fill="#616166"/>
<path fill-rule="evenodd" clip-rule="evenodd" d="M12.1774 21.1973C12.2603 21.1973 12.3275 21.2645 12.3275 21.3473V22.1577C12.3275 22.2406 12.2603 22.3078 12.1774 22.3078C12.0945 22.3078 12.0273 22.2406 12.0273 22.1577V21.3473C12.0273 21.2645 12.0945 21.1973 12.1774 21.1973Z" fill="#616166"/>
<path fill-rule="evenodd" clip-rule="evenodd" d="M13.8727 4.15771C13.9556 4.15771 14.0228 4.2249 14.0228 4.30778V5.11815C14.0228 5.20103 13.9556 5.26822 13.8727 5.26822C13.7898 5.26822 13.7227 5.20103 13.7227 5.11815V4.30778C13.7227 4.2249 13.7898 4.15771 13.8727 4.15771Z" fill="#616166"/>
<path fill-rule="evenodd" clip-rule="evenodd" d="M13.8727 6.44287C13.9556 6.44287 14.0228 6.51006 14.0228 6.59294V20.6093C14.0228 20.6922 13.9556 20.7594 13.8727 20.7594C13.7898 20.7594 13.7227 20.6922 13.7227 20.6093V6.59294C13.7227 6.51006 13.7898 6.44287 13.8727 6.44287Z" fill="#616166"/>
<path fill-rule="evenodd" clip-rule="evenodd" d="M13.8727 21.1973C13.9556 21.1973 14.0228 21.2645 14.0228 21.3473V22.1577C14.0228 22.2406 13.9556 22.3078 13.8727 22.3078C13.7898 22.3078 13.7227 22.2406 13.7227 22.1577V21.3473C13.7227 21.2645 13.7898 21.1973 13.8727 21.1973Z" fill="#616166"/>
<path fill-rule="evenodd" clip-rule="evenodd" d="M15.5758 4.15771C15.6587 4.15771 15.7259 4.2249 15.7259 4.30778V5.11815C15.7259 5.20103 15.6587 5.26822 15.5758 5.26822C15.493 5.26822 15.4258 5.20103 15.4258 5.11815V4.30778C15.4258 4.2249 15.493 4.15771 15.5758 4.15771Z" fill="#616166"/>
<path fill-rule="evenodd" clip-rule="evenodd" d="M15.5758 6.44287C15.6587 6.44287 15.7259 6.51006 15.7259 6.59294V20.6093C15.7259 20.6922 15.6587 20.7594 15.5758 20.7594C15.493 20.7594 15.4258 20.6922 15.4258 20.6093V6.59294C15.4258 6.51006 15.493 6.44287 15.5758 6.44287Z" fill="#616166"/>
<path fill-rule="evenodd" clip-rule="evenodd" d="M15.5758 21.1973C15.6587 21.1973 15.7259 21.2645 15.7259 21.3473V22.1577C15.7259 22.2406 15.6587 22.3078 15.5758 22.3078C15.493 22.3078 15.4258 22.2406 15.4258 22.1577V21.3473C15.4258 21.2645 15.493 21.1973 15.5758 21.1973Z" fill="#616166"/>
<path fill-rule="evenodd" clip-rule="evenodd" d="M18.0625 11.6188C18.0625 11.5359 18.1297 11.4688 18.2126 11.4688H19.0229C19.1058 11.4688 19.173 11.5359 19.173 11.6188C19.173 11.7017 19.1058 11.7689 19.0229 11.7689H18.2126C18.1297 11.7689 18.0625 11.7017 18.0625 11.6188Z" fill="#616166"/>
<path fill-rule="evenodd" clip-rule="evenodd" d="M19.8906 11.6188C19.8906 11.5359 19.9578 11.4688 20.0407 11.4688H21.5628C21.6457 11.4688 21.7129 11.5359 21.7129 11.6188C21.7129 11.7017 21.6457 11.7689 21.5628 11.7689H20.0407C19.9578 11.7689 19.8906 11.7017 19.8906 11.6188Z" fill="#616166"/>
<path fill-rule="evenodd" clip-rule="evenodd" d="M21.918 11.6188C21.918 11.5359 21.9852 11.4688 22.068 11.4688H22.8784C22.9613 11.4688 23.0285 11.5359 23.0285 11.6188C23.0285 11.7017 22.9613 11.7689 22.8784 11.7689H22.068C21.9852 11.7689 21.918 11.7017 21.918 11.6188Z" fill="#616166"/>
<path fill-rule="evenodd" clip-rule="evenodd" d="M18.0625 14.0026C18.0625 13.9197 18.1297 13.8525 18.2126 13.8525H19.0229C19.1058 13.8525 19.173 13.9197 19.173 14.0026C19.173 14.0855 19.1058 14.1527 19.0229 14.1527H18.2126C18.1297 14.1527 18.0625 14.0855 18.0625 14.0026Z" fill="#616166"/>
<path fill-rule="evenodd" clip-rule="evenodd" d="M19.8906 14.0026C19.8906 13.9197 19.9578 13.8525 20.0407 13.8525H21.5628C21.6457 13.8525 21.7129 13.9197 21.7129 14.0026C21.7129 14.0855 21.6457 14.1527 21.5628 14.1527H20.0407C19.9578 14.1527 19.8906 14.0855 19.8906 14.0026Z" fill="#616166"/>
<path fill-rule="evenodd" clip-rule="evenodd" d="M21.918 14.0026C21.918 13.9197 21.9852 13.8525 22.068 13.8525H22.8784C22.9613 13.8525 23.0285 13.9197 23.0285 14.0026C23.0285 14.0855 22.9613 14.1527 22.8784 14.1527H22.068C21.9852 14.1527 21.918 14.0855 21.918 14.0026Z" fill="#616166"/>
<path fill-rule="evenodd" clip-rule="evenodd" d="M18.0625 16.3864C18.0625 16.3035 18.1297 16.2363 18.2126 16.2363H19.0229C19.1058 16.2363 19.173 16.3035 19.173 16.3864C19.173 16.4693 19.1058 16.5365 19.0229 16.5365H18.2126C18.1297 16.5365 18.0625 16.4693 18.0625 16.3864Z" fill="#616166"/>
<path fill-rule="evenodd" clip-rule="evenodd" d="M19.8906 16.3864C19.8906 16.3035 19.9578 16.2363 20.0407 16.2363H21.5628C21.6457 16.2363 21.7129 16.3035 21.7129 16.3864C21.7129 16.4693 21.6457 16.5365 21.5628 16.5365H20.0407C19.9578 16.5365 19.8906 16.4693 19.8906 16.3864Z" fill="#616166"/>
<path fill-rule="evenodd" clip-rule="evenodd" d="M21.918 16.3864C21.918 16.3035 21.9852 16.2363 22.068 16.2363H22.8784C22.9613 16.2363 23.0285 16.3035 23.0285 16.3864C23.0285 16.4693 22.9613 16.5365 22.8784 16.5365H22.068C21.9852 16.5365 21.918 16.4693 21.918 16.3864Z" fill="#616166"/>
<path fill-rule="evenodd" clip-rule="evenodd" d="M18.0625 18.7658C18.0625 18.6829 18.1297 18.6157 18.2126 18.6157H19.0229C19.1058 18.6157 19.173 18.6829 19.173 18.7658C19.173 18.8487 19.1058 18.9159 19.0229 18.9159H18.2126C18.1297 18.9159 18.0625 18.8487 18.0625 18.7658Z" fill="#616166"/>
<path fill-rule="evenodd" clip-rule="evenodd" d="M19.8906 18.7658C19.8906 18.6829 19.9578 18.6157 20.0407 18.6157H21.5628C21.6457 18.6157 21.7129 18.6829 21.7129 18.7658C21.7129 18.8487 21.6457 18.9159 21.5628 18.9159H20.0407C19.9578 18.9159 19.8906 18.8487 19.8906 18.7658Z" fill="#616166"/>
<path fill-rule="evenodd" clip-rule="evenodd" d="M21.918 18.7658C21.918 18.6829 21.9852 18.6157 22.068 18.6157H22.8784C22.9613 18.6157 23.0285 18.6829 23.0285 18.7658C23.0285 18.8487 22.9613 18.9159 22.8784 18.9159H22.068C21.9852 18.9159 21.918 18.8487 21.918 18.7658Z" fill="#616166"/>
<path fill-rule="evenodd" clip-rule="evenodd" d="M2.85547 19.2629C2.85547 19.18 2.92266 19.1128 3.00554 19.1128H3.81591C3.89879 19.1128 3.96597 19.18 3.96597 19.2629C3.96597 19.3457 3.89879 19.4129 3.81591 19.4129H3.00554C2.92266 19.4129 2.85547 19.3457 2.85547 19.2629Z" fill="#616166"/>
<path fill-rule="evenodd" clip-rule="evenodd" d="M4.8125 19.2629C4.8125 19.18 4.87969 19.1128 4.96257 19.1128H6.48469C6.56757 19.1128 6.63476 19.18 6.63476 19.2629C6.63476 19.3457 6.56757 19.4129 6.48469 19.4129H4.96257C4.87969 19.4129 4.8125 19.3457 4.8125 19.2629Z" fill="#616166"/>
<path fill-rule="evenodd" clip-rule="evenodd" d="M6.83984 19.2629C6.83984 19.18 6.90703 19.1128 6.98991 19.1128H7.80028C7.88316 19.1128 7.95035 19.18 7.95035 19.2629C7.95035 19.3457 7.88316 19.4129 7.80028 19.4129H6.98991C6.90703 19.4129 6.83984 19.3457 6.83984 19.2629Z" fill="#616166"/>
<path fill-rule="evenodd" clip-rule="evenodd" d="M18.0625 21.1496C18.0625 21.0667 18.1297 20.9995 18.2126 20.9995H19.0229C19.1058 20.9995 19.173 21.0667 19.173 21.1496C19.173 21.2325 19.1058 21.2996 19.0229 21.2996H18.2126C18.1297 21.2996 18.0625 21.2325 18.0625 21.1496Z" fill="#616166"/>
<path fill-rule="evenodd" clip-rule="evenodd" d="M19.8906 21.1496C19.8906 21.0667 19.9578 20.9995 20.0407 20.9995H21.5628C21.6457 20.9995 21.7129 21.0667 21.7129 21.1496C21.7129 21.2325 21.6457 21.2996 21.5628 21.2996H20.0407C19.9578 21.2996 19.8906 21.2325 19.8906 21.1496Z" fill="#616166"/>
<path fill-rule="evenodd" clip-rule="evenodd" d="M21.918 21.1496C21.918 21.0667 21.9852 20.9995 22.068 20.9995H22.8784C22.9613 20.9995 23.0285 21.0667 23.0285 21.1496C23.0285 21.2325 22.9613 21.2996 22.8784 21.2996H22.068C21.9852 21.2996 21.918 21.2325 21.918 21.1496Z" fill="#616166"/>
<path fill-rule="evenodd" clip-rule="evenodd" d="M10.2422 1.71826H15.8033V3.12033H10.2422V1.71826ZM10.5423 2.0184V2.82019H15.5032V2.0184H10.5423Z" fill="#616166"/>
<path fill-rule="evenodd" clip-rule="evenodd" d="M18.1055 7.61816H23.0663V8.81442H18.1055V7.61816ZM18.4056 7.9183V8.51429H22.7662V7.9183H18.4056Z" fill="#616166"/>
<path fill-rule="evenodd" clip-rule="evenodd" d="M2.9375 11.6188C2.9375 11.5359 3.00469 11.4688 3.08757 11.4688H3.89794C3.98082 11.4688 4.04801 11.5359 4.04801 11.6188C4.04801 11.7017 3.98082 11.7689 3.89794 11.7689H3.08757C3.00469 11.7689 2.9375 11.7017 2.9375 11.6188Z" fill="#616166"/>
<path fill-rule="evenodd" clip-rule="evenodd" d="M4.76562 11.6188C4.76562 11.5359 4.83281 11.4688 4.91569 11.4688H6.43782C6.5207 11.4688 6.58789 11.5359 6.58789 11.6188C6.58789 11.7017 6.5207 11.7689 6.43782 11.7689H4.91569C4.83281 11.7689 4.76562 11.7017 4.76562 11.6188Z" fill="#616166"/>
<path fill-rule="evenodd" clip-rule="evenodd" d="M6.79297 11.6188C6.79297 11.5359 6.86016 11.4688 6.94304 11.4688H7.75341C7.83629 11.4688 7.90348 11.5359 7.90348 11.6188C7.90348 11.7017 7.83629 11.7689 7.75341 11.7689H6.94304C6.86016 11.7689 6.79297 11.7017 6.79297 11.6188Z" fill="#616166"/>
<path fill-rule="evenodd" clip-rule="evenodd" d="M2.9375 13.5217C2.9375 13.4388 3.00469 13.3716 3.08757 13.3716H3.89794C3.98082 13.3716 4.04801 13.4388 4.04801 13.5217C4.04801 13.6045 3.98082 13.6717 3.89794 13.6717H3.08757C3.00469 13.6717 2.9375 13.6045 2.9375 13.5217Z" fill="#616166"/>
<path fill-rule="evenodd" clip-rule="evenodd" d="M4.76562 13.5217C4.76562 13.4388 4.83281 13.3716 4.91569 13.3716H6.43782C6.5207 13.3716 6.58789 13.4388 6.58789 13.5217C6.58789 13.6045 6.5207 13.6717 6.43782 13.6717H4.91569C4.83281 13.6717 4.76562 13.6045 4.76562 13.5217Z" fill="#616166"/>
<path fill-rule="evenodd" clip-rule="evenodd" d="M6.79297 13.5217C6.79297 13.4388 6.86016 13.3716 6.94304 13.3716H7.75341C7.83629 13.3716 7.90348 13.4388 7.90348 13.5217C7.90348 13.6045 7.83629 13.6717 7.75341 13.6717H6.94304C6.86016 13.6717 6.79297 13.6045 6.79297 13.5217Z" fill="#616166"/>
<path fill-rule="evenodd" clip-rule="evenodd" d="M2.83594 17.3337C2.83594 17.2508 2.90313 17.1836 2.98601 17.1836H4.50813C4.59101 17.1836 4.6582 17.2508 4.6582 17.3337C4.6582 17.4165 4.59101 17.4837 4.50813 17.4837H2.98601C2.90313 17.4837 2.83594 17.4165 2.83594 17.3337Z" fill="#616166"/>
<path fill-rule="evenodd" clip-rule="evenodd" d="M4.86328 17.3337C4.86328 17.2508 4.93047 17.1836 5.01335 17.1836H5.82372C5.9066 17.1836 5.97379 17.2508 5.97379 17.3337C5.97379 17.4165 5.9066 17.4837 5.82372 17.4837H5.01335C4.93047 17.4837 4.86328 17.4165 4.86328 17.3337Z" fill="#616166"/>
<path fill-rule="evenodd" clip-rule="evenodd" d="M4.84375 15.4299C4.84375 15.347 4.91094 15.2798 4.99382 15.2798H5.80419C5.88707 15.2798 5.95426 15.347 5.95426 15.4299C5.95426 15.5127 5.88707 15.5799 5.80419 15.5799H4.99382C4.91094 15.5799 4.84375 15.5127 4.84375 15.4299Z" fill="#616166"/>
<path fill-rule="evenodd" clip-rule="evenodd" d="M6.78906 15.4299C6.78906 15.347 6.85625 15.2798 6.93913 15.2798H7.7495C7.83238 15.2798 7.89957 15.347 7.89957 15.4299C7.89957 15.5127 7.83238 15.5799 7.7495 15.5799H6.93913C6.85625 15.5799 6.78906 15.5127 6.78906 15.4299Z" fill="#616166"/>
<path fill-rule="evenodd" clip-rule="evenodd" d="M2.85547 21.1496C2.85547 21.0667 2.92266 20.9995 3.00554 20.9995H3.81591C3.89879 20.9995 3.96598 21.0667 3.96598 21.1496C3.96598 21.2325 3.89879 21.2996 3.81591 21.2996H3.00554C2.92266 21.2996 2.85547 21.2325 2.85547 21.1496Z" fill="#616166"/>
<path fill-rule="evenodd" clip-rule="evenodd" d="M4.80078 21.1496C4.80078 21.0667 4.86797 20.9995 4.95085 20.9995H5.76122C5.8441 20.9995 5.91129 21.0667 5.91129 21.1496C5.91129 21.2325 5.8441 21.2996 5.76122 21.2996H4.95085C4.86797 21.2996 4.80078 21.2325 4.80078 21.1496Z" fill="#616166"/>
<path fill-rule="evenodd" clip-rule="evenodd" d="M2.98047 7.61816H7.94559V8.81442H2.98047V7.61816ZM3.28061 7.9183V8.51429H7.64546V7.9183H3.28061Z" fill="#616166"/>
<path fill-rule="evenodd" clip-rule="evenodd" d="M5.28216 23.8979H26.2189V24.9999H4.61328V24.6997H25.9187V24.1981H5.28216V23.8979Z" fill="#616166"/>
<path fill-rule="evenodd" clip-rule="evenodd" d="M20.4444 23.8979H-0.00190163V24.9999H21.1133V24.6997H0.298235V24.1981H20.4444V23.8979Z" fill="#616166"/>
<path fill-rule="evenodd" clip-rule="evenodd" d="M6.87109 17.3376C6.87109 17.2547 6.93828 17.1875 7.02116 17.1875H7.20446C7.28734 17.1875 7.35453 17.2547 7.35453 17.3376C7.35453 17.4204 7.28734 17.4876 7.20446 17.4876H7.02116C6.93828 17.4876 6.87109 17.4204 6.87109 17.3376ZM7.42099 17.3376C7.42099 17.2547 7.48818 17.1875 7.57106 17.1875H7.75435C7.83723 17.1875 7.90442 17.2547 7.90442 17.3376C7.90442 17.4204 7.83723 17.4876 7.75435 17.4876H7.57106C7.48818 17.4876 7.42099 17.4204 7.42099 17.3376Z" fill="#616166"/>
<path fill-rule="evenodd" clip-rule="evenodd" d="M2.94141 15.4469C2.94141 15.3641 3.00859 15.2969 3.09147 15.2969H3.27477C3.35765 15.2969 3.42484 15.3641 3.42484 15.4469C3.42484 15.5298 3.35765 15.597 3.27477 15.597H3.09147C3.00859 15.597 2.94141 15.5298 2.94141 15.4469ZM3.4913 15.4469C3.4913 15.3641 3.55849 15.2969 3.64137 15.2969H3.82467C3.90755 15.2969 3.97474 15.3641 3.97474 15.4469C3.97474 15.5298 3.90755 15.597 3.82467 15.597H3.64137C3.55849 15.597 3.4913 15.5298 3.4913 15.4469Z" fill="#616166"/>
<path fill-rule="evenodd" clip-rule="evenodd" d="M6.87109 19.2458C6.87109 19.1629 6.93828 19.0957 7.02116 19.0957H7.20446C7.28734 19.0957 7.35453 19.1629 7.35453 19.2458C7.35453 19.3287 7.28734 19.3958 7.20446 19.3958H7.02116C6.93828 19.3958 6.87109 19.3287 6.87109 19.2458ZM7.42099 19.2458C7.42099 19.1629 7.48818 19.0957 7.57106 19.0957H7.75435C7.83723 19.0957 7.90442 19.1629 7.90442 19.2458C7.90442 19.3287 7.83723 19.3958 7.75435 19.3958H7.57106C7.48818 19.3958 7.42099 19.3287 7.42099 19.2458Z" fill="#616166"/>
<path fill-rule="evenodd" clip-rule="evenodd" d="M6.62891 21.1496C6.62891 21.0667 6.69609 20.9995 6.77897 20.9995H7.0223C7.10518 20.9995 7.17237 21.0667 7.17237 21.1496C7.17237 21.2325 7.10518 21.2996 7.0223 21.2996H6.77897C6.69609 21.2996 6.62891 21.2325 6.62891 21.1496ZM7.35888 21.1496C7.35888 21.0667 7.42607 20.9995 7.50895 20.9995H7.75228C7.83516 20.9995 7.90235 21.0667 7.90235 21.1496C7.90235 21.2325 7.83516 21.2996 7.75228 21.2996H7.50895C7.42607 21.2996 7.35888 21.2325 7.35888 21.1496Z" fill="#616166"/>
<path d="M22.474 5.96763C22.7631 5.963 22.9936 5.72152 22.9889 5.42827C22.9842 5.13502 22.7461 4.90105 22.457 4.90568C22.1679 4.91031 21.9374 5.15179 21.9421 5.44504C21.9468 5.73829 22.1849 5.97226 22.474 5.96763Z" fill="#616166"/>
<path d="M25.4896 7.70835C25.7787 7.70372 26.0092 7.46224 26.0045 7.16899C25.9998 6.87575 25.7617 6.64177 25.4726 6.6464C25.1835 6.65103 24.953 6.89251 24.9577 7.18576C24.9624 7.47901 25.2006 7.71298 25.4896 7.70835Z" fill="#616166"/>
<path d="M25.4076 4.29429C25.6967 4.28966 25.9272 4.04818 25.9225 3.75493C25.9178 3.46168 25.6796 3.22771 25.3906 3.23234C25.1015 3.23697 24.871 3.47845 24.8757 3.7717C24.8804 4.06495 25.1185 4.29892 25.4076 4.29429Z" fill="#616166"/>
</svg>
