<?xml version="1.0" encoding="UTF-8"?>
<svg width="40px" height="28px" viewBox="0 0 40 28" version="1.1" xmlns="http://www.w3.org/2000/svg" xmlns:xlink="http://www.w3.org/1999/xlink">
    <title>white/Mastercard </title>
    <g id="BF_payment" stroke="none" stroke-width="1" fill="none" fill-rule="evenodd">
        <g id="bf_Payment-Prepaid-Copy-7" transform="translate(-663.000000, -296.000000)">
            <g id="Mastercard-" transform="translate(663.000000, 296.000000)">
                <g id="mc_symbol" transform="translate(7.878788, 6.086957)">
                    <g id="Group" opacity="0" fill="#FFFFFF">
                        <rect id="Rectangle" x="0" y="0" width="24.1303949" height="15.8078961"></rect>
                    </g>
                    <rect id="Rectangle" fill="#FF5F00" x="8.88337925" y="2.75410295" width="6.36547291" height="10.2978711"></rect>
                    <path d="M9.53902663,7.90394803 C9.53742834,5.89476289 10.468615,3.99642871 12.0642792,2.75592204 C9.35349685,0.645786531 5.46070474,0.953146015 3.12165251,3.46199651 C0.78260027,5.970847 0.78260027,9.83886814 3.12165251,12.3477186 C5.46070474,14.8565691 9.35349685,15.1639286 12.0642792,13.0537931 C10.4681072,11.8128925 9.53686366,9.91377152 9.53902663,7.90394803 Z" id="Path" fill="#EB001B"></path>
                    <path d="M22.2336731,12.556151 L22.2336731,11.8531207 L22.4003398,11.8531207 L22.4003398,11.7076662 L22.0036731,11.7076662 L22.0036731,11.8531207 L22.1603398,11.8531207 L22.1603398,12.556151 L22.2336731,12.556151 Z M23.0036731,12.556151 L23.0036731,11.7076662 L22.8836731,11.7076662 L22.7436731,12.3137268 L22.6036731,11.7076662 L22.4836731,11.7076662 L22.4836731,12.556151 L22.5703398,12.556151 L22.5703398,11.9137268 L22.7003398,12.4652419 L22.7903398,12.4652419 L22.9203398,11.9137268 L22.9203398,12.556151 L23.0036731,12.556151 Z" id="Shape" fill="#F79E1B" fill-rule="nonzero"></path>
                    <path d="M22.7621671,7.90394803 C22.7621671,10.4112696 21.3166981,12.6984611 19.0398081,13.7941436 C16.7629182,14.8898261 14.0542865,14.601638 12.0642792,13.051974 C13.6592471,11.8104142 14.5905038,9.9123324 14.5905038,7.90303848 C14.5905038,5.89374456 13.6592471,3.99566278 12.0642792,2.75410295 C14.0542865,1.20443892 16.7629182,0.916250864 19.0398081,2.01193335 C21.3166981,3.10761583 22.7621671,5.39480737 22.7621671,7.90212894 L22.7621671,7.90394803 Z" id="Path" fill="#F79E1B"></path>
                </g>
            </g>
        </g>
    </g>
</svg>