<svg width="45" height="45" viewBox="0 0 45 45" fill="none" xmlns="http://www.w3.org/2000/svg">
<circle cx="22.5" cy="22.5" r="21.5" fill="#0F0F0F"/>
<circle cx="22.5" cy="22.5" r="21.5" fill="white"/>
<circle cx="22.5" cy="22.5" r="21.5" stroke="#FDB813" stroke-width="2"/>
<path d="M31.7222 34.0001C35.6807 34.0001 38.8897 30.7911 38.8897 26.8325C38.8897 22.874 35.6807 19.665 31.7222 19.665C27.7637 19.665 24.5547 22.874 24.5547 26.8325C24.5547 30.7911 27.7637 34.0001 31.7222 34.0001Z" fill="#FDB813"/>
<path d="M23.0614 24.2722C25.1362 24.2722 26.8182 22.2767 26.8182 19.8151C26.8182 17.3534 25.1362 15.3579 23.0614 15.3579C20.9866 15.3579 19.3047 17.3534 19.3047 19.8151C19.3047 22.2767 20.9866 24.2722 23.0614 24.2722Z" stroke="url(#paint0_radial_2396_58136)" stroke-width="0.312" stroke-linecap="round" stroke-linejoin="round"/>
<path d="M31.9558 23.1684C33.9486 23.1684 35.564 21.2489 35.564 18.8811C35.564 16.5133 33.9486 14.5938 31.9558 14.5938C29.9631 14.5938 28.3477 16.5133 28.3477 18.8811C28.3477 21.2489 29.9631 23.1684 31.9558 23.1684Z" stroke="url(#paint1_radial_2396_58136)" stroke-width="0.29969" stroke-linecap="round" stroke-linejoin="round"/>
<path d="M13.6802 23.1684C15.6846 23.1684 17.3096 21.2489 17.3096 18.8811C17.3096 16.5133 15.6846 14.5938 13.6802 14.5938C11.6757 14.5938 10.0508 16.5133 10.0508 18.8811C10.0508 21.2489 11.6757 23.1684 13.6802 23.1684Z" stroke="url(#paint2_radial_2396_58136)" stroke-width="0.29969" stroke-linecap="round" stroke-linejoin="round"/>
<path d="M20.3668 24.0008C20.3668 24.0008 18.7559 25.4106 17.0779 25.8805C15.4933 26.3241 15.2254 27.4261 15.3702 29.8074C15.3893 30.1211 15.5506 30.4094 15.8082 30.5894C16.5859 31.1323 18.6162 32.1226 23.0793 32.1226C27.5424 32.1226 29.6882 31.1467 30.5601 30.6012C30.8598 30.4136 31.0398 30.0834 31.0398 29.7298V27.6922C31.0398 27.6922 31.0398 26.3873 29.4288 25.8126C28.048 25.3202 25.982 24 25.982 24" stroke="url(#paint3_radial_2396_58136)" stroke-width="0.312" stroke-linecap="round" stroke-linejoin="round"/>
<path d="M16.1406 23.2144L19.0437 24.9641" stroke="url(#paint4_radial_2396_58136)" stroke-width="0.29969" stroke-linecap="round" stroke-linejoin="round"/>
<path d="M27.0898 24.6657L29.4016 23.2144" stroke="url(#paint5_radial_2396_58136)" stroke-width="0.29969" stroke-linecap="round" stroke-linejoin="round"/>
<path d="M34.3949 23.2144C34.3949 23.2144 36.1191 24.3927 36.9516 24.6657C37.784 24.9386 39.181 25.1466 39.3597 26.6926C39.538 28.2386 39.3597 28.9522 39.3597 28.9522C39.3597 28.9522 37.9376 31.2508 30.1016 30.8594" stroke="url(#paint6_radial_2396_58136)" stroke-width="0.29969" stroke-linecap="round" stroke-linejoin="round"/>
<path d="M11.0441 23.2144C11.0441 23.2144 9.31979 24.3927 8.48737 24.6657C7.65494 24.9386 6.25795 25.1466 6.07924 26.6926C5.90095 28.2386 6.07924 28.9522 6.07924 28.9522C6.07924 28.9522 8.13929 31.0903 15.9749 30.699" stroke="url(#paint7_radial_2396_58136)" stroke-width="0.29969" stroke-linecap="round" stroke-linejoin="round"/>
<path d="M21.6573 13.2156C21.9155 13.0651 22.001 12.7307 21.8483 12.4687C21.6956 12.2068 21.3625 12.1164 21.1043 12.267C20.846 12.4175 20.7605 12.7519 20.9132 13.0139C21.066 13.2758 21.3991 13.3661 21.6573 13.2156Z" fill="url(#paint8_radial_2396_58136)"/>
<path d="M25.2589 13.2576C25.5171 13.1071 25.6026 12.7727 25.4499 12.5107C25.2972 12.2488 24.964 12.1584 24.7058 12.309C24.4476 12.4595 24.3621 12.7939 24.5148 13.0559C24.6675 13.3178 25.0006 13.4081 25.2589 13.2576Z" fill="url(#paint9_radial_2396_58136)"/>
<path d="M23.4542 10.221C23.7124 10.0704 23.7979 9.73606 23.6452 9.4741C23.4925 9.21214 23.1594 9.12182 22.9011 9.27235C22.6429 9.42289 22.5574 9.75728 22.7101 10.0192C22.8628 10.2812 23.196 10.3715 23.4542 10.221Z" fill="url(#paint10_radial_2396_58136)"/>
<defs>
<radialGradient id="paint0_radial_2396_58136" cx="0" cy="0" r="1" gradientUnits="userSpaceOnUse" gradientTransform="translate(23.0424 19.0458) rotate(89.7909) scale(5.22643 4.40516)">
<stop stop-color="#065EA6"/>
<stop offset="1" stop-color="#092E4C"/>
</radialGradient>
<radialGradient id="paint1_radial_2396_58136" cx="0" cy="0" r="1" gradientUnits="userSpaceOnUse" gradientTransform="translate(31.9375 18.1411) rotate(89.7913) scale(5.02733 4.23094)">
<stop stop-color="#065EA6"/>
<stop offset="1" stop-color="#092E4C"/>
</radialGradient>
<radialGradient id="paint2_radial_2396_58136" cx="0" cy="0" r="1" gradientUnits="userSpaceOnUse" gradientTransform="translate(13.6617 18.1411) rotate(89.79) scale(5.02733 4.25583)">
<stop stop-color="#065EA6"/>
<stop offset="1" stop-color="#092E4C"/>
</radialGradient>
<radialGradient id="paint3_radial_2396_58136" cx="0" cy="0" r="1" gradientUnits="userSpaceOnUse" gradientTransform="translate(23.148 27.3604) rotate(89.5205) scale(4.76241 9.20693)">
<stop stop-color="#065EA6"/>
<stop offset="1" stop-color="#092E4C"/>
</radialGradient>
<radialGradient id="paint4_radial_2396_58136" cx="0" cy="0" r="1" gradientUnits="userSpaceOnUse" gradientTransform="translate(17.5848 23.9382) rotate(89.5885) scale(1.02589 1.70205)">
<stop stop-color="#065EA6"/>
<stop offset="1" stop-color="#092E4C"/>
</radialGradient>
<radialGradient id="paint5_radial_2396_58136" cx="0" cy="0" r="1" gradientUnits="userSpaceOnUse" gradientTransform="translate(28.2399 23.8148) rotate(89.6049) scale(0.850927 1.35537)">
<stop stop-color="#065EA6"/>
<stop offset="1" stop-color="#092E4C"/>
</radialGradient>
<radialGradient id="paint6_radial_2396_58136" cx="0" cy="0" r="1" gradientUnits="userSpaceOnUse" gradientTransform="translate(34.7465 26.3957) rotate(89.6988) scale(4.50862 5.47447)">
<stop stop-color="#065EA6"/>
<stop offset="1" stop-color="#092E4C"/>
</radialGradient>
<radialGradient id="paint7_radial_2396_58136" cx="0" cy="0" r="1" gradientUnits="userSpaceOnUse" gradientTransform="translate(10.9622 26.3306) rotate(89.6715) scale(4.41631 5.84827)">
<stop stop-color="#065EA6"/>
<stop offset="1" stop-color="#092E4C"/>
</radialGradient>
<radialGradient id="paint8_radial_2396_58136" cx="0" cy="0" r="1" gradientUnits="userSpaceOnUse" gradientTransform="translate(21.382 12.7397) rotate(26.1793) scale(0.546598 0.543603)">
<stop stop-color="#0F5BAD"/>
<stop offset="0.28" stop-color="#0B5097"/>
<stop offset="0.84" stop-color="#023560"/>
<stop offset="1" stop-color="#002D4F"/>
</radialGradient>
<radialGradient id="paint9_radial_2396_58136" cx="0" cy="0" r="1" gradientUnits="userSpaceOnUse" gradientTransform="translate(24.9853 12.7817) rotate(26.1793) scale(0.546599 0.543604)">
<stop stop-color="#0F5BAD"/>
<stop offset="0.28" stop-color="#0B5097"/>
<stop offset="0.84" stop-color="#023560"/>
<stop offset="1" stop-color="#002D4F"/>
</radialGradient>
<radialGradient id="paint10_radial_2396_58136" cx="0" cy="0" r="1" gradientUnits="userSpaceOnUse" gradientTransform="translate(23.1787 9.74565) rotate(26.1793) scale(0.546598 0.543604)">
<stop stop-color="#0F5BAD"/>
<stop offset="0.28" stop-color="#0B5097"/>
<stop offset="0.84" stop-color="#023560"/>
<stop offset="1" stop-color="#002D4F"/>
</radialGradient>
</defs>
</svg>
