<svg width="158" height="81" viewBox="0 0 158 81" fill="none" xmlns="http://www.w3.org/2000/svg">
<g opacity="0.1">
<path d="M86.3839 23.1485H110.666L122.084 38.1604H71.8318V41.9133H134.647L126.606 58.8017H112.176V62.5547H129.093L139.657 41.9133H157.109L158 38.1604H127.151L113.114 19.3955H87.2002L86.3839 23.1485Z" fill="#065EA6"/>
<path d="M67.8067 46.9713C71.4806 46.9713 74.4588 43.993 74.4588 40.3191C74.4588 36.6453 71.4806 33.667 67.8067 33.667C64.1328 33.667 61.1545 36.6453 61.1545 40.3191C61.1545 43.993 64.1328 46.9713 67.8067 46.9713Z" fill="#065EA6"/>
<path d="M80.9419 27.2672C84.6158 27.2672 87.5941 24.2889 87.5941 20.615C87.5941 16.9412 84.6158 13.9629 80.9419 13.9629C77.2681 13.9629 74.2898 16.9412 74.2898 20.615C74.2898 24.2889 77.2681 27.2672 80.9419 27.2672Z" fill="#065EA6"/>
<path d="M80.9419 66.2793C83.88 66.2793 86.2617 63.8975 86.2617 60.9595C86.2617 58.0214 83.88 55.6396 80.9419 55.6396C78.0038 55.6396 75.6221 58.0214 75.6221 60.9595C75.6221 63.8975 78.0038 66.2793 80.9419 66.2793Z" fill="#065EA6"/>
<path d="M94.0774 6.62655C97.7513 6.62655 100.73 3.64828 100.73 -0.0255923C100.73 -3.69947 97.7513 -6.67773 94.0774 -6.67773C90.4036 -6.67773 87.4253 -3.69947 87.4253 -0.0255923C87.4253 3.64828 90.4036 6.62655 94.0774 6.62655Z" fill="#065EA6"/>
<path d="M94.0772 85.045C97.0152 85.045 99.397 82.6632 99.397 79.7251C99.397 76.787 97.0152 74.4053 94.0772 74.4053C91.1391 74.4053 88.7573 76.787 88.7573 79.7251C88.7573 82.6632 91.1391 85.045 94.0772 85.045Z" fill="#065EA6"/>
<path d="M107.213 67.6129C110.887 67.6129 113.865 64.6346 113.865 60.9607C113.865 57.2869 110.887 54.3086 107.213 54.3086C103.539 54.3086 100.561 57.2869 100.561 60.9607C100.561 64.6346 103.539 67.6129 107.213 67.6129Z" fill="#065EA6"/>
<path d="M120.348 6.62655C124.022 6.62655 127 3.64828 127 -0.0255923C127 -3.69947 124.022 -6.67773 120.348 -6.67773C116.674 -6.67773 113.696 -3.69947 113.696 -0.0255923C113.696 3.64828 116.674 6.62655 120.348 6.62655Z" fill="#065EA6"/>
<path d="M120.348 86.3775C124.022 86.3775 127 83.3993 127 79.7254C127 76.0515 124.022 73.0732 120.348 73.0732C116.674 73.0732 113.696 76.0515 113.696 79.7254C113.696 83.3993 116.674 86.3775 120.348 86.3775Z" fill="#065EA6"/>
<path d="M54.6712 25.9356C57.6092 25.9356 59.991 23.5538 59.991 20.6157C59.991 17.6777 57.6092 15.2959 54.6712 15.2959C51.7331 15.2959 49.3513 17.6777 49.3513 20.6157C49.3513 23.5538 51.7331 25.9356 54.6712 25.9356Z" fill="#065EA6"/>
<path d="M54.6712 66.2793C57.6092 66.2793 59.991 63.8975 59.991 60.9595C59.991 58.0214 57.6092 55.6396 54.6712 55.6396C51.7331 55.6396 49.3513 58.0214 49.3513 60.9595C49.3513 63.8975 51.7331 66.2793 54.6712 66.2793Z" fill="#065EA6"/>
<path d="M67.8064 5.29397C70.7445 5.29397 73.1263 2.9122 73.1263 -0.0258656C73.1263 -2.96393 70.7445 -5.3457 67.8064 -5.3457C64.8683 -5.3457 62.4866 -2.96393 62.4866 -0.0258656C62.4866 2.9122 64.8683 5.29397 67.8064 5.29397Z" fill="#065EA6"/>
<path d="M28.4001 24.604C30.6024 24.604 32.3877 22.8187 32.3877 20.6164C32.3877 18.4142 30.6024 16.6289 28.4001 16.6289C26.1979 16.6289 24.4126 18.4142 24.4126 20.6164C24.4126 22.8187 26.1979 24.604 28.4001 24.604Z" fill="#065EA6"/>
<path d="M41.5356 3.96139C43.7379 3.96139 45.5232 2.17611 45.5232 -0.0261395C45.5232 -2.22839 43.7379 -4.01367 41.5356 -4.01367C39.3334 -4.01367 37.5481 -2.22839 37.5481 -0.0261395C37.5481 2.17611 39.3334 3.96139 41.5356 3.96139Z" fill="#065EA6"/>
<path d="M28.4001 64.9477C30.6024 64.9477 32.3877 63.1624 32.3877 60.9602C32.3877 58.7579 30.6024 56.9727 28.4001 56.9727C26.1979 56.9727 24.4126 58.7579 24.4126 60.9602C24.4126 63.1624 26.1979 64.9477 28.4001 64.9477Z" fill="#065EA6"/>
<path d="M41.536 82.9152C43.2978 82.9152 44.726 81.487 44.726 79.7252C44.726 77.9634 43.2978 76.5352 41.536 76.5352C39.7742 76.5352 38.3459 77.9634 38.3459 79.7252C38.3459 81.487 39.7742 82.9152 41.536 82.9152Z" fill="#065EA6"/>
<path d="M67.8064 83.7124C70.0086 83.7124 71.7939 81.9271 71.7939 79.7248C71.7939 77.5226 70.0086 75.7373 67.8064 75.7373C65.6041 75.7373 63.8188 77.5226 63.8188 79.7248C63.8188 81.9271 65.6041 83.7124 67.8064 83.7124Z" fill="#065EA6"/>
<path d="M41.5357 45.6387C44.4737 45.6387 46.8555 43.2569 46.8555 40.3189C46.8555 37.3808 44.4737 34.999 41.5357 34.999C38.5976 34.999 36.2158 37.3808 36.2158 40.3189C36.2158 43.2569 38.5976 45.6387 41.5357 45.6387Z" fill="#065EA6"/>
<path d="M8.69744 22.746C9.8737 22.746 10.8272 21.7924 10.8272 20.6161C10.8272 19.4399 9.8737 18.4863 8.69744 18.4863C7.52118 18.4863 6.56763 19.4399 6.56763 20.6161C6.56763 21.7924 7.52118 22.746 8.69744 22.746Z" fill="#065EA6"/>
<path d="M8.69744 63.0897C9.8737 63.0897 10.8272 62.1361 10.8272 60.9599C10.8272 59.7836 9.8737 58.8301 8.69744 58.8301C7.52118 58.8301 6.56763 59.7836 6.56763 60.9599C6.56763 62.1361 7.52118 63.0897 8.69744 63.0897Z" fill="#065EA6"/>
<path d="M21.8329 2.10435C23.0092 2.10435 23.9627 1.1508 23.9627 -0.0254619C23.9627 -1.20172 23.0092 -2.15527 21.8329 -2.15527C20.6567 -2.15527 19.7031 -1.20172 19.7031 -0.0254619C19.7031 1.1508 20.6567 2.10435 21.8329 2.10435Z" fill="#065EA6"/>
<path d="M21.8327 44.3061C24.035 44.3061 25.8203 42.5208 25.8203 40.3186C25.8203 38.1163 24.035 36.3311 21.8327 36.3311C19.6305 36.3311 17.8452 38.1163 17.8452 40.3186C17.8452 42.5208 19.6305 44.3061 21.8327 44.3061Z" fill="#065EA6"/>
<path d="M2.12957 42.4481C3.30583 42.4481 4.25938 41.4945 4.25938 40.3183C4.25938 39.142 3.30583 38.1885 2.12957 38.1885C0.953305 38.1885 -0.000244141 39.142 -0.000244141 40.3183C-0.000244141 41.4945 0.953305 42.4481 2.12957 42.4481Z" fill="#065EA6"/>
<path d="M21.8329 81.8553C23.0092 81.8553 23.9627 80.9018 23.9627 79.7255C23.9627 78.5492 23.0092 77.5957 21.8329 77.5957C20.6567 77.5957 19.7031 78.5492 19.7031 79.7255C19.7031 80.9018 20.6567 81.8553 21.8329 81.8553Z" fill="#065EA6"/>
</g>
</svg>
