<svg width="64" height="64" viewBox="0 0 64 64" fill="none" xmlns="http://www.w3.org/2000/svg">
<path d="M14.5771 43.8236C17.8941 35.0887 19.5379 25.934 20.4479 16.5564C20.2424 16.5301 20.0516 16.5301 19.8608 16.4908C19.4352 16.399 19.1417 15.9662 19.1417 15.4809C19.1417 14.7858 19.1417 14.0906 19.1417 13.3955C19.1417 12.543 19.3471 12.2807 20.1103 12.1233C20.1103 11.7954 20.1103 11.4544 20.1103 11.1134C20.1103 10.497 20.536 9.99857 21.079 9.98545C21.4459 9.98545 21.7982 9.98545 22.1945 9.98545L22.7228 7.27053C22.7962 6.9033 23.2512 6.91641 23.3099 7.27053L23.7649 9.97234L23.8676 10.051C25.3207 9.80184 25.849 10.051 25.849 11.2839C25.849 11.5593 25.849 11.8347 25.849 12.1233C25.9664 12.1495 26.0692 12.1758 26.1719 12.2151C26.5535 12.3463 26.8177 12.766 26.8177 13.2119C26.8177 13.8939 26.8177 14.589 26.8177 15.271C26.8324 16.0186 26.4655 16.6482 25.7316 16.5301C25.6729 16.5301 25.5995 16.5301 25.5115 16.5564C26.4361 25.934 28.0799 35.0887 31.3822 43.8236C31.573 44.3351 31.2501 44.8991 30.7658 44.8991C29.6944 44.8991 28.0359 44.8991 27.0966 44.8991C26.8764 44.8991 26.7737 44.8204 26.715 44.5712C26.0252 41.8694 25.3207 39.1807 24.6162 36.4789C24.5281 36.151 24.4107 36.0986 23.9704 36.1772C23.2952 36.2953 22.5908 36.2822 21.9156 36.1772C21.5193 36.1117 21.4166 36.1641 21.3432 36.4396C20.6534 39.1414 19.9342 41.8563 19.2444 44.5581C19.1857 44.7942 19.0976 44.886 18.8775 44.886C17.9235 44.886 16.2797 44.886 15.1936 44.886C14.7092 44.886 14.3863 44.322 14.5771 43.8105V43.8236Z" fill="#FF0000"/>
<path d="M35.4772 62.3563C33.8627 62.3563 32.395 61.189 31.9107 59.4315C31.852 59.2086 31.7786 58.9725 31.7052 58.7495C31.1181 56.874 30.2082 55.1952 28.8872 53.8574C27.4195 52.3753 25.673 51.6146 23.721 51.4835C22.0184 51.3654 20.3599 51.6146 18.8189 52.5065C16.8962 53.6082 15.6046 55.3788 14.68 57.556C14.4158 58.1855 14.1809 58.8282 14.0048 59.484C13.5058 61.2152 12.0528 62.3563 10.453 62.3563H6.29942C6.06459 62.3563 5.9325 62.0809 6.03524 61.8448C7.0773 59.7463 11.1281 51.654 13.2416 47.4045C13.3444 47.1947 13.5352 47.0767 13.7406 47.0767C19.8609 47.0767 25.9812 47.0767 32.1015 47.0767C32.3657 47.0767 32.6152 47.2472 32.762 47.5095C34.8608 51.7327 38.8822 59.7594 39.9243 61.8579C40.0417 62.0809 39.895 62.3694 39.6601 62.3694H35.4772V62.3563Z" fill="#FF0000"/>
<path d="M32.4128 43.0366H13.553C12.791 43.0366 12.1733 43.5886 12.1733 44.2695V44.5974C12.1733 45.2783 12.791 45.8302 13.553 45.8302H32.4128C33.1748 45.8302 33.7925 45.2783 33.7925 44.5974V44.2695C33.7925 43.5886 33.1748 43.0366 32.4128 43.0366Z" fill="#D90000"/>
<path d="M29.9455 34.3408H16.0171C15.4578 34.3408 15.0044 34.746 15.0044 35.2458V35.495C15.0044 35.9948 15.4578 36.4 16.0171 36.4H29.9455C30.5048 36.4 30.9582 35.9948 30.9582 35.495V35.2458C30.9582 34.746 30.5048 34.3408 29.9455 34.3408Z" fill="#D90000"/>
<path d="M24.6468 9.82922H21.3152C20.5532 9.82922 19.9355 10.3812 19.9355 11.0621V13.7639C19.9355 14.4448 20.5532 14.9968 21.3152 14.9968H24.6468C25.4088 14.9968 26.0265 14.4448 26.0265 13.7639V11.0621C26.0265 10.3812 25.4088 9.82922 24.6468 9.82922Z" fill="#D90000"/>
<path d="M25.9543 11.7035H20.0102C19.0618 11.7035 18.293 12.3905 18.293 13.238V15.3365C18.293 16.184 19.0618 16.871 20.0102 16.871H25.9543C26.9027 16.871 27.6715 16.184 27.6715 15.3365V13.238C27.6715 12.3905 26.9027 11.7035 25.9543 11.7035Z" fill="#E71E00"/>
<path d="M4.44849 62H60.5515C61.9063 62 63 62.8933 63 64H2C2 62.8933 3.09366 62 4.44849 62Z" fill="#969696"/>
<path d="M34.0002 19.4754H57.9265C59.0259 19.4754 59.9268 20.3704 59.9268 21.4627V61.9979H32V21.4475C32 20.3553 32.9009 19.4602 34.0002 19.4602V19.4754Z" fill="#D9D9D9"/>
<path d="M42.8411 23.9507H38.2604C37.2822 23.9507 36.4893 24.7386 36.4893 25.7104V31.1414C36.4893 32.1133 37.2822 32.9012 38.2604 32.9012H42.8411C43.8193 32.9012 44.6123 32.1133 44.6123 31.1414V25.7104C44.6123 24.7386 43.8193 23.9507 42.8411 23.9507Z" fill="#969696"/>
<path d="M53.6668 23.9507H49.0861C48.1079 23.9507 47.3149 24.7386 47.3149 25.7104V31.1414C47.3149 32.1133 48.1079 32.9012 49.0861 32.9012H53.6668C54.645 32.9012 55.438 32.1133 55.438 31.1414V25.7104C55.438 24.7386 54.645 23.9507 53.6668 23.9507Z" fill="#969696"/>
<path d="M42.8411 36.6331H38.2604C37.2822 36.6331 36.4893 37.4209 36.4893 38.3928V43.8238C36.4893 44.7957 37.2822 45.5836 38.2604 45.5836H42.8411C43.8193 45.5836 44.6123 44.7957 44.6123 43.8238V38.3928C44.6123 37.4209 43.8193 36.6331 42.8411 36.6331Z" fill="#969696"/>
<path d="M53.6668 36.6331H49.0861C48.1079 36.6331 47.3149 37.4209 47.3149 38.3928V43.8238C47.3149 44.7957 48.1079 45.5836 49.0861 45.5836H53.6668C54.645 45.5836 55.438 44.7957 55.438 43.8238V38.3928C55.438 37.4209 54.645 36.6331 53.6668 36.6331Z" fill="#969696"/>
<path d="M42.7645 48.572H49.1622C50.0936 48.572 50.8418 49.3154 50.8418 50.2408V61.9978H41.085V50.2408C41.085 49.3154 41.8331 48.572 42.7645 48.572Z" fill="#1B1B1B"/>
<path d="M37.0848 15H54.8425C55.835 15 56.629 15.804 56.629 16.7749V19.4753H35.2983V16.7749C35.2983 15.7889 36.1076 15 37.0848 15Z" fill="#969696"/>
<path d="M24.8275 54.7988C24.5243 54.7988 24.3326 54.473 24.481 54.2087C25.1739 52.9548 26.504 52.1496 27.9826 52.1496H30.1293V51.0002H27.6609C25.607 51.0002 23.7943 52.3217 23.1695 54.264L22.9963 54.8049H22.9282L25.1554 60.3368H30.1293V54.8049H24.8275V54.7988Z" fill="#D9D9D9"/>
<path d="M39.8292 54.5527L35.4677 51.9896C34.3603 51.3381 33.1045 51 31.8177 51H30.1287V52.1494H31.5083C32.5972 52.1494 33.6674 52.4383 34.6016 52.9915L36.4699 54.0917C36.804 54.2884 36.6679 54.8047 36.2719 54.8047H30.1226V60.3366H39.8601V54.5588H39.823L39.8292 54.5527Z" fill="#969696"/>
<path d="M46.9445 57.7366H44.8844C44.371 57.7366 43.9132 57.4293 43.7214 56.956L43.5915 56.6241C43.4739 56.3291 43.6904 56.0095 44.0121 56.0095H46.196C45.5031 55.1244 44.4205 54.5527 43.2079 54.5527H39.8672V60.3305H45.7134C46.4249 60.3305 47.0002 59.7588 47.0002 59.052V58.3206C47.0002 58.1239 46.9817 57.9272 46.9507 57.7366H46.9445Z" fill="#969696"/>
<path d="M32.765 55.7329H31.2617C31.0123 55.7329 30.8101 55.9338 30.8101 56.1816C30.8101 56.4294 31.0123 56.6303 31.2617 56.6303H32.765C33.0144 56.6303 33.2166 56.4294 33.2166 56.1816C33.2166 55.9338 33.0144 55.7329 32.765 55.7329Z" fill="#1B1B1B"/>
<path d="M28.7621 55.7329H27.2587C27.0093 55.7329 26.8071 55.9338 26.8071 56.1816C26.8071 56.4294 27.0093 56.6303 27.2587 56.6303H28.7621C29.0115 56.6303 29.2137 56.4294 29.2137 56.1816C29.2137 55.9338 29.0115 55.7329 28.7621 55.7329Z" fill="#1B1B1B"/>
<path d="M40.2134 62.9243C41.5595 62.9243 42.6508 61.84 42.6508 60.5025C42.6508 59.1651 41.5595 58.0808 40.2134 58.0808C38.8672 58.0808 37.7759 59.1651 37.7759 60.5025C37.7759 61.84 38.8672 62.9243 40.2134 62.9243Z" fill="#1B1B1B"/>
<path d="M24.4751 54.2087C24.3266 54.473 24.5184 54.7988 24.8215 54.7988H30.1234V52.1497H27.9767C26.4981 52.1497 25.168 52.9549 24.4751 54.2087Z" fill="#E9E9E9"/>
<path d="M36.2726 54.7986C36.6623 54.7986 36.8046 54.2884 36.4706 54.0856L34.6022 52.9854C33.6619 52.4322 32.5978 52.1433 31.509 52.1433H30.1294V54.7925H36.2788L36.2726 54.7986Z" fill="#E9E9E9"/>
<path d="M45.0082 56.6979C45.0082 56.5074 45.1628 56.3537 45.3546 56.3537H46.4311C46.3568 56.2369 46.2826 56.1202 46.196 56.0095H44.0122C43.6905 56.0095 43.4739 56.3291 43.5915 56.6242L43.7214 56.9561C43.9132 57.4294 44.371 57.7367 44.8845 57.7367H46.9446C46.9074 57.497 46.8394 57.2696 46.759 57.0483H45.3546C45.1628 57.0483 45.0082 56.8946 45.0082 56.7041V56.6979Z" fill="#FF0000"/>
<path d="M45.3547 56.3538C45.163 56.3538 45.0083 56.5074 45.0083 56.698C45.0083 56.8885 45.163 57.0422 45.3547 57.0422H46.7591C46.6725 56.8025 46.5611 56.5689 46.4312 56.3538H45.3547Z" fill="#D90000"/>
<path d="M22.9286 54.7986H20.6767C19.9096 54.7986 19.2724 55.3087 19.0744 56.0094H21.1283C21.45 56.0094 21.6665 56.3291 21.549 56.6241L21.4191 56.956C21.2273 57.4293 20.7695 57.7366 20.256 57.7366H19.0063V58.5848C19.0063 59.5498 19.792 60.3305 20.7633 60.3305H25.1557L22.9286 54.7986Z" fill="#D9D9D9"/>
<path d="M21.4189 56.9558L21.5488 56.6239C21.6664 56.3289 21.4499 56.0093 21.1282 56.0093H19.0742C19.0433 56.1199 19.0247 56.2367 19.0124 56.3535H19.7857C19.9775 56.3535 20.1321 56.5071 20.1321 56.6977C20.1321 56.8882 19.9775 57.0419 19.7857 57.0419H19V57.7303H20.2497C20.7632 57.7303 21.221 57.423 21.4127 56.9497L21.4189 56.9558Z" fill="#D9D9D9"/>
<path d="M19 57.0483H19.7857C19.9775 57.0483 20.1321 56.8946 20.1321 56.7041C20.1321 56.5135 19.9775 56.3599 19.7857 56.3599H19.0124C19.0124 56.3967 19 56.4275 19 56.4644V57.0483Z" fill="#D9D9D9"/>
<path d="M24.562 62.9243C25.9082 62.9243 26.9995 61.84 26.9995 60.5025C26.9995 59.1651 25.9082 58.0808 24.562 58.0808C23.2158 58.0808 22.1245 59.1651 22.1245 60.5025C22.1245 61.84 23.2158 62.9243 24.562 62.9243Z" fill="#1B1B1B"/>
</svg>
