<svg width="81" height="81" viewBox="0 0 81 81" fill="none" xmlns="http://www.w3.org/2000/svg">
<g clip-path="url(#clip0_654_2)">
<path d="M79.7579 21.5294L76.3906 29.6845C76.1265 30.3033 75.5103 30.6348 74.8721 30.5464C75.3783 30.9221 75.5983 31.6072 75.3342 32.226L64.5942 58.172C63.912 59.8074 62.0413 60.603 60.3906 59.9179L55.2627 57.7741L54.4704 55.8072L49.9587 53.9287L47.934 54.7022L43.1142 52.691C41.4855 52.0059 40.6932 50.1274 41.3755 48.4699L52.1155 22.546C52.3796 21.9272 52.9959 21.5957 53.6341 21.6841C53.1279 21.3084 52.9078 20.6233 53.1719 20.0045L56.5392 11.8494C57.2215 10.2139 59.0922 9.41833 60.7428 10.1034L78.0193 17.3303C79.6479 18.0154 80.4402 19.894 79.7579 21.5515V21.5294Z" fill="#FF684D"/>
<path d="M64.5942 58.172C63.912 59.8074 62.0413 60.603 60.3906 59.9179L55.2627 57.7741L54.4704 55.8072L49.9587 53.9287L47.934 54.7022L43.1142 52.691C41.4855 52.0059 40.6932 50.1274 41.3755 48.4699L42.1018 46.746L65.3205 56.4481L64.5942 58.172V58.172Z" fill="#FF0000"/>
<path d="M70.2503 38.7235L64.2201 53.2656L62.9436 52.7352L68.9739 38.1931L70.2503 38.7235V38.7235Z" fill="#C80D0D"/>
<path opacity="0.4" d="M70.3163 31.3199L61.6671 52.1827L60.3906 51.6523L69.0399 30.7895L70.3163 31.3199V31.3199Z" fill="white"/>
<path d="M72.8913 32.3807L70.9766 37.0218L69.7001 36.4914L71.6148 31.8503L72.8913 32.3807Z" fill="#C80D0D"/>
<path opacity="0.4" d="M65.3865 35.7842L59.0481 51.0998L57.7716 50.5694L64.11 35.2538L65.3865 35.7842Z" fill="white"/>
<path opacity="0.4" d="M67.6974 30.2149L66.0908 34.0824L64.8143 33.552L66.4209 29.6845L67.6974 30.2149Z" fill="white"/>
<path opacity="0.4" d="M59.9065 41.6408L56.4512 49.9948L55.1747 49.4644L58.63 41.1104L59.9065 41.6408V41.6408Z" fill="white"/>
<path opacity="0.4" d="M65.0784 29.1319L60.6548 39.7844L59.3783 39.254L63.802 28.6015L65.0784 29.1319Z" fill="white"/>
<path opacity="0.4" d="M58.0578 38.7014L53.8322 48.9119L52.5557 48.3814L56.7813 38.171L58.0578 38.7014V38.7014Z" fill="white"/>
<path opacity="0.4" d="M62.4594 28.049L58.74 36.9997L57.4635 36.4693L61.1829 27.5186L62.4594 28.049Z" fill="white"/>
<path d="M76.3907 23.8941L74.4759 28.5352L73.1995 28.0048L75.1142 23.3637L76.3907 23.8941V23.8941Z" fill="#C80D0D"/>
<path opacity="0.4" d="M75.5544 18.6563L71.901 27.4744L70.6245 26.944L74.2779 18.1259L75.5544 18.6563Z" fill="white"/>
<path opacity="0.4" d="M70.4484 23.5847L69.3039 26.3694L68.0275 25.839L69.1719 23.0543L70.4484 23.5847Z" fill="white"/>
<path opacity="0.4" d="M72.9573 17.5513L71.0426 22.1924L69.7661 21.662L71.6808 17.0209L72.9573 17.5513Z" fill="white"/>
<path opacity="0.4" d="M60.1706 12.2251L56.5172 21.0432L55.2407 20.5128L58.8941 11.6947L60.1706 12.2251V12.2251Z" fill="white"/>
<path d="M54.9326 24.8887L46.2834 45.7515L45.0069 45.2211L53.6561 24.3582L54.9326 24.8887V24.8887Z" fill="#C80D0D"/>
<path d="M76.8088 39.1435C77.6671 37.0218 76.6327 34.5908 74.4979 33.7067L50.9491 24.1151C48.8143 23.2532 46.3714 24.2698 45.513 26.3915L33.3425 56.5365L64.6382 69.2885L76.8088 39.1435V39.1435Z" fill="#CCCCCC"/>
<path d="M35.1912 63.1004L58.74 72.692C60.8748 73.5539 63.3177 72.5373 64.1761 70.4156L64.6162 69.2885L33.3205 56.5365L32.8803 57.6636C32.022 59.7853 33.0564 62.2163 35.1912 63.1004V63.1004Z" fill="#BBBBBB"/>
<path opacity="0.4" d="M71.3288 39.2761L50.2448 30.679L49.4305 32.7122L70.5145 41.3093L71.3288 39.2761Z" fill="white"/>
<g opacity="0.4">
<path d="M69.502 43.8066L48.4181 35.2096L47.6038 37.2428L68.6877 45.8399L69.502 43.8066V43.8066Z" fill="white"/>
</g>
<g opacity="0.4">
<path d="M67.6754 48.3593L46.5915 39.7623L45.7772 41.7955L66.8611 50.3926L67.6754 48.3593V48.3593Z" fill="white"/>
</g>
<path opacity="0.4" d="M58.2118 49.7738L44.7428 44.2929L43.9285 46.3261L57.3975 51.807L58.2118 49.7738Z" fill="white"/>
<path d="M6.6685 8.13651H37.326C41.0014 8.13651 43.9945 11.1422 43.9945 14.8329V65.7524C43.9945 69.4432 41.0014 72.4489 37.326 72.4489H6.6685C2.99312 72.4489 0 69.4432 0 65.7524V14.855C0 11.1422 2.99312 8.13651 6.6685 8.13651Z" fill="#C80D0D"/>
<path d="M9.0894 8.13651H39.7469C43.4223 8.13651 46.4154 11.1422 46.4154 14.8329V65.7524C46.4154 69.4432 43.4223 72.4489 39.7469 72.4489H9.0894C5.41402 72.4489 2.4209 69.4432 2.4209 65.7524V14.8329C2.4209 11.1422 5.41402 8.13651 9.0894 8.13651Z" fill="#FF0000"/>
<path d="M37.6781 40.0496C37.6781 33.994 32.088 29.0656 25.2434 29.0656C18.3989 29.0656 12.8088 33.994 12.8088 40.0496C12.8088 43.0773 14.1733 45.9062 16.6602 48.0057C18.9711 49.9506 21.9862 51.0114 25.1554 51.0335C25.1554 51.0335 25.1994 51.0335 25.2214 51.0335C25.2654 51.0335 25.2875 51.0335 25.3315 51.0335C32.154 50.9893 37.6781 46.083 37.6781 40.0496V40.0496ZM24.7372 35.6737V39.5413H19.7854C19.8294 37.8616 20.1155 36.2704 20.5777 34.856C21.9202 35.3422 23.3287 35.6295 24.7372 35.6737ZM24.7372 40.5579V44.4034C23.3287 44.4476 21.9202 44.7349 20.5557 45.2211C20.0935 43.8509 19.8294 42.2596 19.7634 40.5579H24.7152H24.7372ZM25.7496 44.4034V40.5579H30.7015C30.6575 42.2154 30.3714 43.8067 29.9092 45.2211C28.5667 44.7349 27.1582 44.4697 25.7496 44.4034ZM25.7496 39.5634V35.6958C27.1582 35.6516 28.5667 35.3864 29.9092 34.9002C30.3934 36.3146 30.6575 37.9058 30.7015 39.5634H25.7496ZM29.0289 32.9111C29.2049 33.2426 29.381 33.5962 29.5351 33.9498C28.3026 34.3919 27.0261 34.635 25.7496 34.6792V30.1265C26.3439 30.237 26.9381 30.5022 27.4883 30.9884C28.0605 31.4746 28.5667 32.1155 29.0069 32.9111H29.0289ZM24.7593 34.6792C23.4828 34.635 22.1843 34.3698 20.9518 33.9277C21.1059 33.5741 21.2599 33.2426 21.436 32.9111C22.3604 31.2978 23.5048 30.3033 24.7593 30.1044V34.6571V34.6792ZM30.4814 33.5741C30.3053 33.1763 30.1293 32.7785 29.9092 32.4028C29.469 31.6293 28.9628 30.9884 28.4346 30.4801C29.9312 30.8558 31.3177 31.5188 32.5282 32.4028C31.8679 32.8669 31.1857 33.2647 30.4594 33.5962L30.4814 33.5741ZM21.9642 30.5906C21.1939 31.3641 20.5557 32.3807 20.0495 33.552C19.3232 33.2205 18.641 32.8227 17.9807 32.3586C19.1692 31.4967 20.5557 30.8558 22.0743 30.4801C22.0302 30.5243 21.9862 30.5464 21.9642 30.5906ZM20.9298 46.1493C22.1623 45.7073 23.4608 45.4642 24.7593 45.3979V49.9727C23.2187 49.7075 21.8542 48.2709 20.9298 46.1272V46.1493ZM25.7496 45.3979C27.0261 45.4421 28.3246 45.7073 29.5571 46.1493C29.403 46.5029 29.2269 46.8565 29.0509 47.188C28.1485 48.8014 26.9821 49.7738 25.7496 49.9948V45.42V45.3979ZM31.7139 39.5413C31.6699 37.7511 31.3617 36.0273 30.8555 34.5024C31.7359 34.1045 32.5722 33.6183 33.3645 33.0216C35.3672 34.7897 36.5337 37.066 36.6657 39.5413H31.7139V39.5413ZM17.1664 32.9995C17.9587 33.5962 18.817 34.0824 19.6754 34.4803C19.1472 36.0052 18.861 37.729 18.795 39.5192H13.8432C13.9972 36.9776 15.2297 34.6792 17.1664 32.9774V32.9995ZM18.795 40.5358C18.839 42.348 19.1472 44.0498 19.6533 45.5526C18.773 45.9504 17.9147 46.4366 17.1224 47.0333C15.1417 45.2653 13.9972 42.9889 13.8432 40.5137H18.795V40.5358ZM20.0055 46.5029C20.5557 47.7626 21.2599 48.8235 22.0743 49.6191C20.5557 49.2434 19.1472 48.5804 17.9147 47.6963C18.5749 47.2322 19.2792 46.8344 19.9835 46.5029H20.0055ZM30.4814 46.5029C31.2077 46.8344 31.9119 47.2322 32.5722 47.7184C31.3617 48.6025 29.9532 49.2434 28.4126 49.6412C29.2269 48.8677 29.9312 47.7847 30.4814 46.525V46.5029ZM33.3865 47.0554C32.5722 46.4587 31.7359 45.9504 30.8555 45.5526C31.3617 44.0498 31.6699 42.348 31.7139 40.5358H36.6657C36.5337 43.0773 35.3012 45.3537 33.3865 47.0554Z" fill="white"/>
</g>
<defs>
<clipPath id="clip0_654_2">
<rect width="80.0033" height="80" fill="white" transform="translate(0 0.567566)"/>
</clipPath>
</defs>
</svg>
