<?xml version="1.0" encoding="UTF-8"?>
<svg width="41px" height="28px" viewBox="0 0 41 28" version="1.1" xmlns="http://www.w3.org/2000/svg" xmlns:xlink="http://www.w3.org/1999/xlink">
    <title>white/Visa</title>
    <g id="BF_payment" stroke="none" stroke-width="1" fill="none" fill-rule="evenodd">
        <g id="bf_Payment-Prepaid-Copy-7" transform="translate(-711.000000, -296.000000)">
            <g id="Visa-" transform="translate(711.000000, 296.000000)">
                <g id="Visa_Inc._logo" transform="translate(6.833333, 9.739130)" fill="#0742A6">
                    <polygon id="polygon9" points="11.8169106 8.36590807 9.61800953 8.36590807 10.9933598 0.250707433 13.1921407 0.250707433"></polygon>
                    <path d="M19.7881226,0.449100933 C19.3544027,0.284901339 18.666487,0.103604792 17.8158813,0.103604792 C15.6443958,0.103604792 14.1152535,1.20859577 14.1058745,2.78840012 C14.0878379,3.95397627 15.2006957,4.60136559 16.0330243,4.99000572 C16.8837502,5.38713695 17.1729369,5.64634512 17.1729369,6.00033236 C17.1642794,6.54399251 16.4855023,6.79459483 15.8524179,6.79459483 C14.9745168,6.79459483 14.5041225,6.66539235 13.7892722,6.36292546 L13.4997247,6.233264 L13.1920205,8.05495007 C13.7077468,8.27916111 14.6579145,8.47812834 15.6443958,8.48684893 C17.9516368,8.48684893 19.4537242,7.3989549 19.4715203,5.7154214 C19.4802981,4.79161222 18.8926659,4.08375247 17.6257756,3.50532469 C16.8566953,3.134011 16.3856998,2.88363818 16.3856998,2.50371864 C16.3947181,2.15833724 16.784068,1.80457949 17.6522293,1.80457949 C18.3670796,1.78725304 18.8923052,1.95122315 19.2901924,2.115308 L19.4890759,2.20148123 L19.7881226,0.449100933 L19.7881226,0.449100933 L19.7881226,0.449100933 Z" id="path11"></path>
                    <path d="M22.7106518,5.49098086 C22.8917392,5.02477335 23.5885529,3.22041372 23.5885529,3.22041372 C23.5794144,3.23774017 23.7692796,2.74560036 23.8778598,2.4434777 L24.0315316,3.1427316 C24.0315316,3.1427316 24.4479364,5.08524378 24.5383599,5.49098086 C24.1947027,5.49098086 23.144973,5.49098086 22.7106518,5.49098086 L22.7106518,5.49098086 Z M25.4249185,0.250707433 L23.7240678,0.250707433 C23.1995637,0.250707433 22.8010753,0.397351096 22.5747762,0.92402904 L19.3085897,8.36579332 L21.6158307,8.36579332 C21.6158307,8.36579332 21.9956813,7.36418727 22.0773269,7.14846733 C22.3304405,7.14846733 24.574914,7.14846733 24.9005346,7.14846733 C24.9636627,7.4333783 25.1629069,8.36579332 25.1629069,8.36579332 L27.1988775,8.36579332 L25.4249185,0.250707433 L25.4249185,0.250707433 L25.4249185,0.250707433 Z" id="path13" fill-rule="nonzero"></path>
                    <path d="M7.78140343,0.250707433 L5.62795452,5.78449768 L5.39263711,4.66218025 C4.99450939,3.36717213 3.74589621,1.96017323 2.35250931,1.2605751 L4.32499107,8.35730222 L6.65026858,8.35730222 L10.1065607,0.250707433 L7.78140343,0.250707433 L7.78140343,0.250707433 L7.78140343,0.250707433 Z" id="path15"></path>
                    <path d="M3.62829762,0.250707433 L0.090480114,0.250707433 L0.054286685,0.414677538 C2.81400559,1.08811389 4.64171364,2.71140646 5.39263711,4.66252449 L4.6235568,0.932864378 C4.49693992,0.414562793 4.1078305,0.267804386 3.62829762,0.250707433 L3.62829762,0.250707433 Z" id="path17"></path>
                </g>
            </g>
        </g>
    </g>
</svg>